<?xml version="1.0" encoding="UTF-8"?>
<svg version="1.1" xmlns="http://www.w3.org/2000/svg" width="4676" height="4675">
<path d="M0 0 C1543.08 0 3086.16 0 4676 0 C4676 1542.75 4676 3085.5 4676 4675 C3132.92 4675 1589.84 4675 0 4675 C0 3132.25 0 1589.5 0 0 Z " fill="#191919" transform="translate(0,0)"/>
<path d="M0 0 C18.35635953 13.29307485 35.25223438 29.03141751 51.0234375 45.26953125 C54.47961469 43.71102144 57.27142413 41.63500436 60.2734375 39.33203125 C68.38141413 33.42264616 74.88166726 31.04968196 85.0234375 32.26953125 C92.57752615 33.9889748 97.49793791 38.0320625 102.9921875 43.34375 C106.79305793 46.94726754 110.65805952 46.5847062 115.65625 46.84765625 C117.49329311 46.95401385 119.33028663 47.06123056 121.16723633 47.16918945 C122.14125397 47.22563629 123.11527161 47.28208313 124.11880493 47.34024048 C215.82373138 52.76725073 304.27586727 76.19926875 426.0234375 140.26953125 C426.94737305 140.84058594 427.87130859 141.41164063 428.82324219 142 C441.19045231 149.68233964 453.24784435 157.71009669 465.0234375 166.26953125 C465.7875293 166.82108887 466.55162109 167.37264648 467.33886719 167.94091797 C478.53577945 176.03163423 489.41247185 184.42516945 500.0234375 193.26953125 C500.60319336 193.75019043 501.18294922 194.23084961 501.78027344 194.72607422 C508.72206503 200.48835796 515.46811324 206.42206846 522.07421875 212.56640625 C524.23976881 214.57397433 526.45707599 216.5093249 528.69580078 218.43481445 C533.04199437 222.23321897 537.14040835 226.24194645 541.21484375 230.328125 C542.33825417 231.45010033 542.33825417 231.45010033 543.48435974 232.59474182 C545.05614975 234.16585589 546.62669599 235.73821517 548.19604492 237.31176758 C550.57945054 239.70052971 552.96814818 242.08390571 555.35742188 244.46679688 C556.89354987 246.00358575 558.42936759 247.54068485 559.96484375 249.078125 C560.66920059 249.78045761 561.37355743 250.48279022 562.09925842 251.20640564 C566.60644548 255.73466014 570.86222747 260.42298869 575.0234375 265.26953125 C576.06884604 266.46092378 577.11551104 267.65121638 578.1640625 268.83984375 C584.89508489 276.51823482 591.35572649 284.34175388 597.58691406 292.4296875 C599.04965163 294.30310529 600.54393011 296.14700698 602.046875 297.98828125 C624.23838218 325.44363275 643.07185289 356.3427708 659.54492188 387.48876953 C660.86806631 389.97731232 662.21297062 392.45187847 663.5703125 394.921875 C676.0091161 417.73433317 686.21082549 441.85167226 695.0234375 466.26953125 C695.2546228 466.90594543 695.48580811 467.54235962 695.72399902 468.19805908 C718.70513334 531.49538452 734.02664401 600.14549258 734.2265625 667.71875 C734.23341175 669.17451502 734.24031515 670.63027979 734.24726868 672.08604431 C734.26617099 676.70970865 734.27066501 681.33333361 734.2734375 685.95703125 C734.2744685 686.73961052 734.2754995 687.52218979 734.27656174 688.32848358 C734.34746442 745.50722936 734.34746442 745.50722936 730.0234375 761.26953125 C731.9415625 761.42228516 731.9415625 761.42228516 733.8984375 761.578125 C739.19249773 762.17267278 743.99748753 763.60931922 749.0234375 765.33203125 C749.93697998 765.64293701 750.85052246 765.95384277 751.79174805 766.27416992 C782.22405083 776.90018846 810.62176887 796.32838027 830.0234375 822.26953125 C830.80847656 823.27757812 831.59351562 824.285625 832.40234375 825.32421875 C851.09417149 849.85149005 863.13688201 881.57945094 863.18457031 912.5871582 C863.18953522 913.37710678 863.19450012 914.16705536 863.19961548 914.98094177 C863.21411798 917.57324121 863.22102232 920.16547929 863.2265625 922.7578125 C863.22938988 923.6534963 863.23221725 924.54918011 863.23513031 925.47200584 C863.25008149 930.22067936 863.25933421 934.96932287 863.26367188 939.71801758 C863.26912248 944.56774062 863.29308956 949.41717809 863.32164383 954.26681232 C863.34048929 958.04291011 863.34548749 961.81894244 863.34700775 965.59508324 C863.34999034 967.37964612 863.35786519 969.16420914 863.37119293 970.94872475 C863.48052775 986.72571287 862.10274588 1002.34736383 857.2734375 1017.45703125 C857.01812256 1018.27888916 856.76280762 1019.10074707 856.49975586 1019.94750977 C853.92494021 1027.99079526 850.71964736 1035.68181679 847.0234375 1043.26953125 C846.20746094 1044.94595703 846.20746094 1044.94595703 845.375 1046.65625 C825.20430481 1085.90861223 788.28921201 1114.94232794 746.63623047 1128.48339844 C726.51315983 1134.53799454 705.89840834 1136.25384765 685.0234375 1137.26953125 C682.90195249 1142.05483868 681.08860443 1146.85679993 679.4921875 1151.84375 C679.01294978 1153.31648721 678.53319186 1154.78905523 678.05297852 1156.26147461 C677.80411896 1157.0268454 677.5552594 1157.79221619 677.29885864 1158.58078003 C662.74980091 1203.16586329 643.87050765 1246.29115401 619.67431641 1286.51464844 C618.09878349 1289.14379861 616.54760368 1291.78565674 615.00390625 1294.43359375 C600.87462914 1318.54548669 584.56208659 1341.5177638 567.0234375 1363.26953125 C566.26546875 1364.21054688 565.5075 1365.1515625 564.7265625 1366.12109375 C562.50812076 1368.85087845 560.27157029 1371.56415111 558.0234375 1374.26953125 C557.60094727 1374.77838867 557.17845703 1375.28724609 556.74316406 1375.81152344 C550.91287943 1382.81723433 544.9340976 1389.64626019 538.7265625 1396.3203125 C536.7147221 1398.49057419 534.77468129 1400.71249808 532.84448242 1402.95556641 C529.11808267 1407.2194411 525.19255248 1411.24511926 521.18359375 1415.2421875 C520.45780624 1415.96893173 519.73201874 1416.69567596 518.98423767 1417.44444275 C517.46020194 1418.96915421 515.93492181 1420.49262275 514.40844727 1422.01489258 C512.09211287 1424.32587016 509.78116672 1426.64213896 507.47070312 1428.95898438 C505.97948716 1430.44953945 504.48796097 1431.93978425 502.99609375 1433.4296875 C502.31563492 1434.11217056 501.63517609 1434.79465363 500.93409729 1435.49781799 C496.99619516 1439.4168414 492.95479077 1443.15953842 488.74530029 1446.78578186 C486.52806757 1448.69639734 484.37105785 1450.66978025 482.2109375 1452.64453125 C477.94598442 1456.4888137 473.574829 1460.1648003 469.109375 1463.7734375 C466.87403933 1465.58151281 464.65155545 1467.40065888 462.4375 1469.234375 C390.46421515 1528.64365357 304.14346395 1572.95615166 204.0234375 1601.26953125 C203.36059753 1601.45044312 202.69775757 1601.63135498 202.01483154 1601.81774902 C158.25737863 1613.71801361 113.22698067 1620.9103582 68.0234375 1624.26953125 C66.13189941 1624.41310059 66.13189941 1624.41310059 64.20214844 1624.55957031 C48.95928518 1625.61082609 33.67004082 1625.51529146 18.3984375 1625.51953125 C17.66805141 1625.51997311 16.93766533 1625.52041496 16.18514633 1625.52087021 C-7.98429325 1625.52851993 -31.93404367 1624.92569982 -55.9765625 1622.26953125 C-57.15759552 1622.1422464 -57.15759552 1622.1422464 -58.36248779 1622.01239014 C-110.78064039 1616.35085634 -162.00746155 1605.11023374 -211.9765625 1588.26953125 C-213.20181641 1587.85880371 -214.42707031 1587.44807617 -215.68945312 1587.02490234 C-254.75366662 1573.81012822 -293.21328683 1556.8247473 -328.9765625 1536.26953125 C-330.40452148 1535.45669678 -330.40452148 1535.45669678 -331.86132812 1534.62744141 C-353.61739752 1522.22619912 -374.64927499 1508.89719879 -394.9765625 1494.26953125 C-395.78754395 1493.68671387 -396.59852539 1493.10389648 -397.43408203 1492.50341797 C-412.61903935 1481.55078003 -427.09907077 1469.83869842 -441.32617188 1457.67724609 C-443.09594448 1456.16770337 -444.87195528 1454.66570152 -446.6484375 1453.1640625 C-457.45090172 1444.0060679 -457.45090172 1444.0060679 -462.30639648 1438.9387207 C-463.94619969 1437.2998763 -465.64787452 1435.81269089 -467.41796875 1434.31640625 C-472.66115385 1429.75682781 -477.54896455 1424.84718405 -482.44946289 1419.92700195 C-484.03616196 1418.33494159 -485.62813992 1416.74830135 -487.22070312 1415.16210938 C-492.14468638 1410.24134334 -496.97660036 1405.28320398 -501.50268555 1399.98852539 C-503.71398505 1397.4094696 -506.03604672 1394.9429078 -508.3515625 1392.45703125 C-512.56930337 1387.8865522 -516.5860889 1383.20014255 -520.484375 1378.3515625 C-522.35525334 1376.03789007 -524.24388129 1373.74766546 -526.15625 1371.46875 C-534.87946177 1361.04754142 -543.04571753 1350.30354851 -550.9765625 1339.26953125 C-551.50523926 1338.53702148 -552.03391602 1337.80451172 -552.57861328 1337.04980469 C-569.99534099 1312.87051802 -585.45972865 1287.40537233 -599.46142578 1261.10644531 C-600.58115003 1259.00989428 -601.71132559 1256.9189174 -602.84716797 1254.83105469 C-607.65855815 1245.96124526 -612.07101366 1236.96386692 -616.2265625 1227.76953125 C-616.54638092 1227.06365875 -616.86619934 1226.35778625 -617.19570923 1225.63052368 C-626.91688028 1204.1081371 -635.14824115 1182.15047422 -642.6640625 1159.76953125 C-642.92690033 1158.99032318 -643.18973816 1158.21111511 -643.46054077 1157.40829468 C-644.2065394 1155.18738925 -644.94302062 1152.96358519 -645.67578125 1150.73828125 C-645.89496216 1150.08543655 -646.11414307 1149.43259186 -646.33996582 1148.75996399 C-647.69754989 1144.58250881 -648.46662582 1140.61185705 -648.9765625 1136.26953125 C-650.04390625 1136.29273437 -651.11125 1136.3159375 -652.2109375 1136.33984375 C-689.719625 1136.902538 -728.50425239 1128.16831399 -758.9765625 1105.26953125 C-760.00265625 1104.52445313 -761.02875 1103.779375 -762.0859375 1103.01171875 C-774.47234595 1093.88116624 -785.6917193 1083.57692575 -794.9765625 1071.26953125 C-795.62753906 1070.43421875 -796.27851562 1069.59890625 -796.94921875 1068.73828125 C-819.60011922 1038.83729137 -829.09050607 1004.5387636 -829.1796875 967.40625 C-829.18251488 966.60315714 -829.18534225 965.80006428 -829.18825531 964.97263527 C-829.20317576 960.71441963 -829.21244778 956.45623719 -829.21679688 952.19799805 C-829.22116464 948.72360637 -829.23499995 945.24946538 -829.2578125 941.77514648 C-829.50206962 903.79647111 -829.50206962 903.79647111 -825.9765625 887.26953125 C-825.63189941 885.63963257 -825.63189941 885.63963257 -825.28027344 883.97680664 C-824.67620146 881.43574539 -823.9924633 878.95338834 -823.2265625 876.45703125 C-822.84141479 875.16406128 -822.84141479 875.16406128 -822.44848633 873.8449707 C-816.66637333 855.05527718 -807.38309733 837.51923031 -794.9765625 822.26953125 C-794.52410156 821.71023926 -794.07164063 821.15094727 -793.60546875 820.57470703 C-768.83766197 790.16031015 -733.70428955 768.60501837 -694.9765625 761.26953125 C-693.31007144 761.24533783 -691.64298424 761.24095895 -689.9765625 761.26953125 C-690.03714844 760.56948975 -690.09773438 759.86944824 -690.16015625 759.14819336 C-693.57463362 717.44232213 -694.1618456 673.93470688 -689.9765625 632.26953125 C-689.91339844 631.62284485 -689.85023438 630.97615845 -689.78515625 630.30987549 C-681.76687136 548.36565705 -658.68000012 469.90793028 -569.9765625 312.26953125 C-569.18306396 311.19783691 -569.18306396 311.19783691 -568.37353516 310.10449219 C-562.3954997 302.03258993 -556.32813354 294.05280887 -549.9765625 286.26953125 C-549.30625 285.43679688 -548.6359375 284.6040625 -547.9453125 283.74609375 C-532.69768803 264.90754323 -516.20683296 247.41571578 -499.1015625 230.26953125 C-498.46573242 229.63102234 -497.82990234 228.99251343 -497.17480469 228.33465576 C-490.61942306 221.75835541 -484.07288986 215.26772164 -476.9765625 209.26953125 C-475.36887877 207.81507608 -473.76416535 206.3573223 -472.1640625 204.89453125 C-413.18763207 151.75290748 -341.74262092 111.82316749 -267.5390625 84.45703125 C-266.59855042 84.10980011 -266.59855042 84.10980011 -265.63903809 83.7555542 C-258.36190457 81.08167133 -251.06986985 78.66545871 -243.61889648 76.52758789 C-234.82426901 73.97744183 -228.93153778 71.67635535 -222.52734375 64.9453125 C-182.23877404 22.68241778 -53.25918433 -37.3230581 0 0 Z " fill="#616E7E" transform="translate(2320.9765625,1122.73046875)"/>
<path d="M0 0 C2.35458263 9.80809078 4.34459575 19.66225842 6.22583008 29.56958008 C6.53965525 31.21217816 6.8536983 32.85473463 7.16793823 34.49725342 C8.02420223 38.97637698 8.87734895 43.45608924 9.72992921 47.93591523 C10.65075851 52.77147265 11.57443783 57.60648577 12.49772644 62.4415741 C14.30592904 71.91336536 16.11135808 81.38568331 17.91584748 90.85818261 C19.39913975 98.64418232 20.88363732 106.42995143 22.36889648 114.21557617 C35.73242572 184.26706521 49.05125907 254.32703258 62.35229492 324.39041138 C71.19864273 370.98842248 80.05768805 417.58395228 88.95703125 464.171875 C89.16255151 465.24777083 89.36807177 466.32366665 89.57981992 467.43216538 C92.65653946 483.53827087 95.73444164 499.64415033 98.8125 515.75 C111.96679898 584.57992583 125.07029316 653.41910274 138.08155823 722.2762146 C143.04099561 748.52001651 148.02126528 774.75985075 153 801 C185.01 801.33 217.02 801.66 250 802 C252.97 781.705 252.97 781.705 256 761 C257.25724731 752.61616606 258.5193846 744.23339426 259.79760742 735.8527832 C260.1365764 733.6243036 260.47544238 731.39580834 260.81421757 729.16729927 C261.72043665 723.20796459 262.62806106 717.24884478 263.53596783 711.28976703 C264.41838614 705.49636195 265.29966607 699.70278377 266.18098743 693.90921173 C267.97095646 682.14268186 269.76197966 670.37631269 271.55368042 658.61004639 C273.31693703 647.03056715 275.07978884 635.45102642 276.84207153 623.87139893 C276.95227657 623.14726409 277.06248162 622.42312926 277.1760262 621.67705095 C277.73512164 618.00333194 278.29420829 614.3296116 278.85328972 610.65589046 C279.98346033 603.22955208 281.1136779 595.80322085 282.24391174 588.37689209 C282.41283579 587.26695399 282.41283579 587.26695399 282.58517244 586.13459289 C284.19095608 575.5836279 285.7969751 565.03269876 287.40316539 554.48179567 C293.10633097 517.01822482 298.80582691 479.55409826 304.50111121 442.08932847 C305.95283457 432.53962919 307.40477646 422.98996316 308.85688782 413.44032288 C308.95736872 412.77951904 309.05784963 412.11871521 309.16137541 411.43788702 C310.25825121 404.22439358 311.35516475 397.01090588 312.4520998 389.79742146 C314.38465855 377.08863285 316.3168313 364.37978577 318.24813843 351.67080688 C319.87980901 340.93361254 321.51226606 330.19653814 323.14576304 319.45962149 C323.97445518 314.01247983 324.80275848 308.56527978 325.63002777 303.11792183 C326.38349781 298.15654392 327.13803102 293.19532894 327.89343226 288.2342447 C328.16646407 286.43982459 328.43909669 284.64534368 328.71129739 282.8507973 C329.07984654 280.42143353 329.44982651 277.99229189 329.82017517 275.5632019 C329.92615501 274.86228316 330.03213484 274.16136441 330.14132619 273.43920571 C330.67657016 269.93923662 331.27142879 266.46508949 332 263 C332.66 263 333.32 263 334 263 C326.54735436 249.04852469 319.08589683 235.10336333 311.48901367 221.22973633 C308.24354358 215.29727867 305.03591806 209.34553866 301.84277344 203.38476562 C296.89544333 194.15228234 291.88489272 184.96922255 286.6875 175.875 C280.58192746 165.18787566 274.80897648 154.33454334 269.08666992 143.43896484 C268.4057547 142.14534011 267.72452525 140.85188073 267.04296875 139.55859375 C266.71322556 138.93174683 266.38348236 138.3048999 266.04374695 137.65905762 C263.01617397 131.94480314 259.76513512 126.37156792 256.4621582 120.81274414 C255 118 255 118 255 115 C361.59 115 468.18 115 578 115 C573.02327187 124.95345626 568.02821213 134.83734345 562.75 144.625 C562.09639666 145.84075566 561.44291607 147.05657733 560.78955078 148.27246094 C555.88263527 157.39596716 550.93037741 166.49459075 545.95703125 175.58203125 C543.90012 179.34353472 541.85749998 183.11239028 539.82421875 186.88671875 C534.56323602 196.649204 529.24999967 206.36987953 523.75 216 C517.44283558 227.04734976 511.48535731 238.27244327 505.55957031 249.52734375 C505.02752235 250.53628693 505.02752235 250.53628693 504.48472595 251.56561279 C503.8171032 252.83240196 503.15097103 254.09997821 502.48658752 255.36846924 C501.09357512 258.01272512 499.66051164 260.50923253 498 263 C498.66 263 499.32 263 500 263 C502.34744157 275.89691234 504.40585267 288.82744205 506.37890625 301.78637695 C506.70579621 303.92370475 507.03285295 306.06100704 507.36006165 308.19828606 C508.24446275 313.97849759 509.12639698 319.75908303 510.00783539 325.539747 C510.75887359 330.46308368 511.51137259 335.38619665 512.2638855 340.30930811 C514.64999993 355.91984352 517.03167338 371.53105472 519.4118576 387.14249516 C519.98709169 390.91533706 520.56241149 394.68816589 521.13775635 398.46099091 C526.56949882 434.08071591 531.99195073 469.70185345 537.41203356 505.32335424 C540.53826019 525.86907679 543.66487746 546.41473989 546.79188946 566.96034292 C547.29530332 570.2679567 547.79870753 573.57557194 548.30208755 576.88319087 C553.53337479 611.25685034 558.77279333 645.62924914 564.02771378 679.99930382 C564.94012498 685.96715861 565.85206616 691.93508515 566.7638855 697.9030304 C567.05692913 699.8209519 567.34997353 701.73887328 567.64301872 703.65679455 C568.07217521 706.46554169 568.50132699 709.27428955 568.9304564 712.08304083 C570.56044135 722.75134125 572.19228452 733.41935356 573.82726461 744.08688962 C574.82270434 750.5825784 575.81612077 757.07857441 576.80786914 763.57482779 C577.47586155 767.94971562 578.14625898 772.32422468 578.81867278 776.69843501 C579.31225501 779.91439543 579.80197719 783.13094368 580.29223633 786.34741211 C580.46796677 787.48538333 580.6436972 788.62335455 580.82475281 789.79580975 C580.9815451 790.82946069 581.1383374 791.86311163 581.29988098 792.92808533 C581.43618329 793.81817763 581.5724856 794.70826994 581.71291828 795.62533474 C582 798 582 798 582 802 C614.34 802 646.68 802 680 802 C680.33 798.7 680.66 795.4 681 792 C681.39992781 789.52344335 681.83448525 787.05217494 682.30717468 784.58847046 C682.43634108 783.90868366 682.56550748 783.22889685 682.69858801 782.52851045 C683.12783059 780.27518926 683.56329466 778.02311854 683.9987793 775.77099609 C684.3128649 774.12914835 684.62655673 772.48722524 684.93989086 770.84523392 C685.61956698 767.28814208 686.30204469 763.73160324 686.98669052 760.17546463 C688.09972025 754.39420178 689.20656388 748.611764 690.31277466 742.82919312 C691.92036044 734.42919947 693.53091785 726.02978023 695.14346313 717.6307373 C697.71386173 704.24202751 700.2779656 690.85211642 702.84057617 677.46191406 C703.16488135 675.76739247 703.16488135 675.76739247 703.49573815 674.03863811 C704.37733175 669.43218129 705.25890337 664.82572027 706.14039785 660.21924448 C707.48809659 653.17656386 708.83622805 646.13396623 710.18466717 639.09142733 C716.51441133 606.03166873 722.82020739 572.96742384 729.1015625 539.8984375 C729.30470039 538.82899887 729.50783827 537.75956023 729.71713185 536.65771437 C732.14783656 523.86043934 734.57736408 511.06294097 737.00638455 498.26534617 C740.59769996 479.34418636 744.19076057 460.42335783 747.78413892 441.5025897 C748.16952451 439.47334804 748.55490226 437.4441049 748.94027209 435.41486025 C753.81847378 409.72775006 758.70212853 384.04169941 763.60546875 358.359375 C763.79387258 357.37256087 763.79387258 357.37256087 763.98608255 356.36581111 C766.0599021 345.50410025 768.135073 334.6426476 770.21063232 323.78126907 C777.13344996 287.55413368 784.03234707 251.32252023 790.91330004 215.0874095 C791.55096951 211.72947737 792.18867783 208.37155262 792.82639694 205.01362991 C796.64810538 184.89019431 800.46965809 164.76672917 804.28759766 144.64257812 C806.65555492 132.16126451 809.02432816 119.6801061 811.39453125 107.19921875 C811.58293721 106.20709491 811.77134316 105.21497108 811.96545839 104.19278288 C818.56453118 69.44642712 825.23560505 34.71456161 832 0 C835.98142306 0.30880969 839.96253378 0.62148529 843.94360352 0.93481445 C845.06139442 1.02146614 846.17918533 1.10811783 847.33084869 1.19739532 C856.24746904 1.90207801 865.0893512 2.88093484 873.9375 4.1875 C874.65925415 4.29226654 875.3810083 4.39703308 876.12463379 4.50497437 C892.89686256 6.95726032 909.48038116 10.21381845 926 14 C926.65166138 14.14932983 927.30332275 14.29865967 927.97473145 14.45251465 C950.12455702 19.56615241 971.57264966 26.47077222 993 34 C994.15145508 34.4036377 995.30291016 34.80727539 996.48925781 35.22314453 C1012.703634 40.96625563 1028.37076444 47.83245248 1044 55 C1044.88558594 55.4021875 1045.77117187 55.804375 1046.68359375 56.21875 C1092.1128555 76.88798757 1134.8669935 104.8786885 1173 137 C1174.04018918 137.86609613 1175.08056449 138.73196873 1176.12109375 139.59765625 C1183.10716477 145.43405509 1189.87804297 151.46516228 1196.546875 157.66015625 C1197.93686077 158.94178291 1199.34308836 160.20572705 1200.75 161.46875 C1207.29192748 167.35648474 1213.57911401 173.47387592 1219.8125 179.6875 C1221.01338257 180.88149414 1221.01338257 180.88149414 1222.23852539 182.09960938 C1226.47345023 186.34556382 1230.54944 190.66966873 1234.46069336 195.21557617 C1236.54477933 197.63152929 1238.71008001 199.96899233 1240.875 202.3125 C1245.7957178 207.71491457 1250.42792553 213.30168859 1255 219 C1255.91225289 220.12020516 1256.82503803 221.23997705 1257.73828125 222.359375 C1281.9288386 252.12986588 1302.7436702 284.29272026 1321 318 C1321.42603516 318.77827148 1321.85207031 319.55654297 1322.29101562 320.35839844 C1357.17198754 384.25517143 1378.39520684 455.96951312 1387.3125 528.0625 C1387.45993652 529.24706787 1387.60737305 530.43163574 1387.75927734 531.65209961 C1401.55454764 651.98470056 1391 773.87921593 1391 895 C747.5 895 104 895 -559 895 C-559 561.14099147 -559 561.14099147 -555.25 531.125 C-555.16729858 530.44751709 -555.08459717 529.77003418 -554.99938965 529.07202148 C-550.23375316 490.22331639 -541.98820376 452.26176421 -530 415 C-529.65388672 413.91912109 -529.30777344 412.83824219 -528.95117188 411.72460938 C-504.97890939 337.71536637 -465.49322168 268.45555927 -414.52050781 209.76318359 C-412.98691572 207.98482744 -411.47166022 206.19233986 -409.9609375 204.39453125 C-404.45521083 197.85969679 -398.82066977 191.62861488 -392.66796875 185.6953125 C-390.56372075 183.56949827 -388.62228457 181.42748268 -386.6796875 179.16015625 C-383.01243319 174.92729563 -379.04573367 171.11278222 -374.9375 167.3125 C-374.19870605 166.62406006 -373.45991211 165.93562012 -372.69873047 165.22631836 C-371.19074834 163.8218379 -369.6813208 162.41890767 -368.17041016 161.01757812 C-366.16159399 159.15021515 -364.16279367 157.2729106 -362.16796875 155.390625 C-355.33238579 148.95642465 -348.33472696 142.86583601 -341 137 C-339.80841891 136.01871778 -338.61841404 135.03551955 -337.4296875 134.05078125 C-311.46753255 112.59877764 -283.35519706 93.50409552 -254 77 C-253.10410156 76.4956543 -252.20820312 75.99130859 -251.28515625 75.47167969 C-221.32482898 58.69602126 -190.38455394 44.46206076 -158 33 C-156.87464844 32.60071289 -155.74929688 32.20142578 -154.58984375 31.79003906 C-106.39885098 14.84913299 -51.43036964 0 0 0 Z " fill="#616E7E" transform="translate(1922,2672)"/>
<path d="M0 0 C5.15493037 0.67076914 10.17112627 1.63217016 15.23828125 2.78515625 C16.02379868 2.96176788 16.8093161 3.13837952 17.61863708 3.32034302 C20.18392213 3.89816328 22.74822728 4.48020507 25.3125 5.0625 C27.11033405 5.46858342 28.90818584 5.87458827 30.70605469 6.28051758 C42.77785756 9.01231901 54.82778341 11.83072714 66.86968994 14.690979 C77.23963553 17.15133411 87.6351095 19.45402043 98.06494141 21.64794922 C107.94925033 23.74108063 117.7861586 26.01755756 127.625 28.3125 C142.55770245 31.79422393 157.52472528 35.08018927 172.52386475 38.26281738 C182.78798407 40.44123487 193.03612494 42.65689956 203.25 45.0625 C215.31294097 47.8999105 227.43396724 50.43564029 239.56347656 52.96899414 C249.72143494 55.0917641 259.86607054 57.2654206 270 59.5 C282.46358918 62.24625443 294.94576562 64.89532384 307.43753052 67.51025391 C318.2842942 69.78177614 329.11642981 72.10924301 339.9375 74.5 C353.53287266 77.49810666 367.16050385 80.32124488 380.80220032 83.10006714 C382.07766975 83.35990891 382.07766975 83.35990891 383.37890625 83.625 C384.69673347 83.89342209 384.69673347 83.89342209 386.04118347 84.16726685 C393.48378186 85.68552527 400.92240817 87.2227583 408.36021233 88.7643013 C410.41616775 89.1903648 412.4721813 89.61614674 414.5282135 90.0418396 C415.91586324 90.32916161 417.30351278 90.61648461 418.69116211 90.90380859 C419.72721572 91.11832704 419.72721572 91.11832704 420.78419971 91.33717918 C424.177801 92.0399807 427.57125811 92.74346354 430.96438599 93.44854736 C447.95833102 96.97809082 464.96889816 100.38692737 482.01464844 103.65527344 C495.12281873 106.16968054 508.22336744 108.73940276 521.26806641 111.56616211 C530.30571774 113.52121054 539.3745007 115.09185166 548.50219727 116.56835938 C554.73706049 117.58810589 560.86833261 118.79788511 567.0078125 120.296875 C570.92042022 121.21628673 574.85932964 121.94421345 578.8125 122.66650391 C583.57182922 123.53912077 588.32233768 124.45019688 593.0703125 125.3828125 C605.67139258 127.85623196 618.26601092 130.27368308 630.94506836 132.32006836 C641.6763576 134.07170138 652.3668632 136.04480475 663.0625 138 C666.89448003 138.69949953 670.7265286 139.3986232 674.55859375 140.09765625 C675.47461868 140.26476608 676.39064362 140.43187592 677.33442688 140.60404968 C684.42854607 141.89749489 691.5235167 143.18497794 698.625 144.4375 C699.46812744 144.58896484 700.31125488 144.74042969 701.17993164 144.89648438 C706.09182351 145.75452779 710.97638937 146.33189279 715.94677734 146.73852539 C718 147 718 147 720 148 C722.081088 148.36394374 724.17015908 148.68254184 726.26171875 148.98046875 C726.90646652 149.07358337 727.55121429 149.166698 728.21549988 149.26263428 C729.62561722 149.46606843 731.03595258 149.66799562 732.44647217 149.86862183 C736.32606066 150.4206525 740.20404345 150.98372573 744.08203125 151.546875 C744.89687988 151.6650206 745.71172852 151.7831662 746.55126953 151.90489197 C752.16813718 152.72295157 757.77886165 153.57552654 763.38671875 154.453125 C764.16291565 154.57457886 764.93911255 154.69603271 765.73883057 154.82116699 C767.31947915 155.0685984 768.90012694 155.31603494 770.48077393 155.56347656 C818.64032271 163.08690978 867.23686366 170.13439188 916 172 C918.44621136 177.37589223 920.22318653 182.75368402 921.8125 188.4375 C922.19607666 189.7975415 922.19607666 189.7975415 922.58740234 191.18505859 C931.90091514 224.5760217 937.98384365 257.9651595 941.61962891 292.44335938 C941.90247733 295.0881192 942.2038709 297.72800454 942.51708984 300.36914062 C944.05294347 313.79600863 944.39865985 327.11785685 944.375 340.625 C944.37478851 341.74851868 944.37457703 342.87203735 944.37435913 344.02960205 C944.31412135 376.40783612 941.05955588 408.20520642 935 440 C934.79181641 441.1451709 934.58363281 442.2903418 934.36914062 443.47021484 C921.52542935 513.86363243 893.05633144 582.18049044 854 642 C852.97712891 643.58554688 852.97712891 643.58554688 851.93359375 645.203125 C834.23562087 672.24887896 813.80030865 697.60867356 791.70703125 721.17529297 C789.78781904 723.22680785 787.87848535 725.28731795 785.96875 727.34765625 C784.56285296 728.85709965 783.15660601 730.36621724 781.75 731.875 C781.10063477 732.57665283 780.45126953 733.27830566 779.78222656 734.0012207 C775.96903271 738.07343674 772.01344356 741.82573017 767.77685547 745.45458984 C765.62918325 747.3225158 763.65374007 749.31813163 761.6875 751.375 C757.61350662 755.50499329 753.26761477 759.13496352 748.7421875 762.7578125 C746.13912048 764.88624621 743.65991367 767.09713692 741.1875 769.375 C717.60852794 790.7734715 690.19982254 808.61577188 663 825 C662.24879883 825.45552246 661.49759766 825.91104492 660.72363281 826.38037109 C617.53104026 852.45618524 571.11876986 871.18826979 523 886 C521.92572754 886.33128906 520.85145508 886.66257812 519.74462891 887.00390625 C494.10744132 894.80315886 467.4698428 899.94226036 441 904 C440.13052734 904.1335791 439.26105469 904.2671582 438.36523438 904.40478516 C378.57992258 913.29801477 317.62954316 912.19897481 258 903 C256.9598877 902.84418457 255.91977539 902.68836914 254.84814453 902.52783203 C240.01401706 900.29313564 225.46797372 897.20017372 210.88671875 893.6875 C208.34533734 893.08224543 205.8008078 892.50140915 203.25 891.9375 C194.2254033 889.92963272 185.47880667 887.35760004 176.6875 884.5 C173.00684973 883.30742088 169.30887858 882.2093749 165.58666992 881.15478516 C108.47907205 864.94523415 51.96923636 835.57284869 4 801 C3.25733887 800.46697266 2.51467773 799.93394531 1.74951172 799.38476562 C-8.8733426 791.73439138 -19.18667408 783.77830481 -29.26757812 775.42822266 C-31.74310877 773.3873751 -34.24998215 771.38572864 -36.75 769.375 C-41.66701795 765.3526575 -46.3338579 761.10160928 -50.98046875 756.7734375 C-53.09109809 754.81018378 -55.25632409 752.93234769 -57.453125 751.06640625 C-63.44694962 745.84215034 -68.99897605 740.14975889 -74.60913086 734.52124023 C-76.5579687 732.56704376 -78.51209272 730.61824853 -80.46679688 728.66992188 C-86.52401016 722.61628502 -92.48405853 716.55795584 -98 710 C-99.04442576 708.80774582 -100.09131731 707.61764733 -101.140625 706.4296875 C-108.38663946 698.16481019 -115.32568553 689.73174538 -122 681 C-122.56444824 680.2668457 -123.12889648 679.53369141 -123.71044922 678.77832031 C-133.3698028 666.20895992 -142.42253833 653.33060893 -151 640 C-151.54897949 639.14825195 -152.09795898 638.29650391 -152.66357422 637.41894531 C-161.48418733 623.65260998 -169.43317597 609.48905035 -177 595 C-177.56332031 593.92927246 -178.12664062 592.85854492 -178.70703125 591.75537109 C-194.10963128 562.32788668 -206.2492233 531.73333661 -216 500 C-216.20389343 499.33740173 -216.40778687 498.67480347 -216.61785889 497.99212646 C-225.71805907 468.28150182 -232.32937595 437.86892861 -236 407 C-236.14953125 405.77506836 -236.2990625 404.55013672 -236.453125 403.28808594 C-238.88114659 382.44582304 -239.28827655 361.65977142 -239.3125 340.6875 C-239.31608521 339.43590088 -239.31967041 338.18430176 -239.32336426 336.89477539 C-239.34814873 320.8207237 -238.73386505 304.98126474 -237 289 C-236.91330048 288.17545319 -236.82660095 287.35090637 -236.73727417 286.50137329 C-235.53118436 275.10960231 -233.99506996 263.76749346 -232.34588623 252.43225098 C-232.00992394 250.06978454 -231.69747328 247.70533356 -231.39111328 245.33886719 C-227.89945114 218.97918665 -227.89945114 218.97918665 -218.33105469 211.28442383 C-215.07567115 209.05873363 -211.74519232 207.08957075 -208.26318359 205.24072266 C-205.11902235 203.51703037 -202.4471656 201.46176396 -199.625 199.25 C-198.696875 198.55132813 -197.76875 197.85265625 -196.8125 197.1328125 C-183.92137639 187.35704376 -171.12183686 177.45411855 -158.6328125 167.16796875 C-156.88270474 165.72685627 -155.12750388 164.29190597 -153.3671875 162.86328125 C-147.02117766 157.71061728 -140.79255804 152.43434481 -134.6015625 147.09765625 C-132.25217024 145.07255881 -129.8932486 143.0597527 -127.5234375 141.05859375 C-120.56732025 135.17106328 -113.81792947 129.11097897 -107.18603516 122.85986328 C-104.15563563 120.00430978 -101.11657188 117.19102673 -97.9375 114.5 C-93.42763197 110.63157928 -89.32199051 106.34892634 -85.14794922 102.12646484 C-82.04543823 99.00049441 -78.92772727 95.97199539 -75.5625 93.125 C-72.40273127 90.44317948 -69.78699236 87.52646913 -67.11328125 84.3671875 C-64.36235101 81.28573884 -61.43802422 78.4019723 -58.5 75.5 C-53.78346971 70.82519134 -49.28666957 66.07512676 -45 61 C-44.13246094 60.01 -43.26492188 59.02 -42.37109375 58 C-28.08863804 41.66395106 -14.78909089 24.24990309 -3.59375 5.64453125 C-2.44243975 3.73414634 -1.23725326 1.85587989 0 0 Z " fill="#FEFEFE" transform="translate(1986,1742)"/>
<path d="M0 0 C106.59 0 213.18 0 323 0 C318.02327187 9.95345626 313.02821213 19.83734345 307.75 29.625 C307.09639666 30.84075566 306.44291607 32.05657733 305.78955078 33.27246094 C300.88263527 42.39596716 295.93037741 51.49459075 290.95703125 60.58203125 C288.90012 64.34353472 286.85749998 68.11239028 284.82421875 71.88671875 C279.56323602 81.649204 274.24999967 91.36987953 268.75 101 C262.44283558 112.04734976 256.48535731 123.27244327 250.55957031 134.52734375 C250.20487167 135.19997253 249.85017303 135.87260132 249.48472595 136.56561279 C248.8171032 137.83240196 248.15097103 139.09997821 247.48658752 140.36846924 C246.09357512 143.01272512 244.66051164 145.50923253 243 148 C243.66 148 244.32 148 245 148 C247.34744157 160.89691234 249.40585267 173.82744205 251.37890625 186.78637695 C251.70579621 188.92370475 252.03285295 191.06100704 252.36006165 193.19828606 C253.24446275 198.97849759 254.12639698 204.75908303 255.00783539 210.539747 C255.75887359 215.46308368 256.51137259 220.38619665 257.2638855 225.30930811 C259.64999993 240.91984352 262.03167338 256.53105472 264.4118576 272.14249516 C264.98709169 275.91533706 265.56241149 279.68816589 266.13775635 283.46099091 C271.56949882 319.08071591 276.99195073 354.70185345 282.41203356 390.32335424 C285.53826019 410.86907679 288.66487746 431.41473989 291.79188946 451.96034292 C292.29530332 455.2679567 292.79870753 458.57557194 293.30208755 461.88319087 C298.53337479 496.25685034 303.77279333 530.62924914 309.02771378 564.99930382 C309.94012498 570.96715861 310.85206616 576.93508515 311.7638855 582.9030304 C312.05692913 584.8209519 312.34997353 586.73887328 312.64301872 588.65679455 C313.07217521 591.46554169 313.50132699 594.27428955 313.9304564 597.08304083 C315.56044135 607.75134125 317.19228452 618.41935356 318.82726461 629.08688962 C319.82270434 635.5825784 320.81612077 642.07857441 321.80786914 648.57482779 C322.47586155 652.94971562 323.14625898 657.32422468 323.81867278 661.69843501 C324.31225501 664.91439543 324.80197719 668.13094368 325.29223633 671.34741211 C325.46796677 672.48538333 325.6436972 673.62335455 325.82475281 674.79580975 C325.9815451 675.82946069 326.1383374 676.86311163 326.29988098 677.92808533 C326.43618329 678.81817763 326.5724856 679.70826994 326.71291828 680.62533474 C327 683 327 683 327 687 C359.34 687 391.68 687 425 687 C425 687.33 425 687.66 425 688 C250.76 688 76.52 688 -103 688 C-102.67 687.34 -102.34 686.68 -102 686 C-69.99 686.33 -37.98 686.66 -5 687 C-2.03 666.705 -2.03 666.705 1 646 C2.25724731 637.61616606 3.5193846 629.23339426 4.79760742 620.8527832 C5.1365764 618.6243036 5.47544238 616.39580834 5.81421757 614.16729927 C6.72043665 608.20796459 7.62806106 602.24884478 8.53596783 596.28976703 C9.41838614 590.49636195 10.29966607 584.70278377 11.18098743 578.90921173 C12.97095646 567.14268186 14.76197966 555.37631269 16.55368042 543.61004639 C18.31693703 532.03056715 20.07978884 520.45102642 21.84207153 508.87139893 C21.95227657 508.14726409 22.06248162 507.42312926 22.1760262 506.67705095 C22.73512164 503.00333194 23.29420829 499.3296116 23.85328972 495.65589046 C24.98346033 488.22955208 26.1136779 480.80322085 27.24391174 473.37689209 C27.35652777 472.63693335 27.4691438 471.89697462 27.58517244 471.13459289 C29.19095608 460.5836279 30.7969751 450.03269876 32.40316539 439.48179567 C38.10633097 402.01822482 43.80582691 364.55409826 49.50111121 327.08932847 C50.95283457 317.53962919 52.40477646 307.98996316 53.85688782 298.44032288 C53.95736872 297.77951904 54.05784963 297.11871521 54.16137541 296.43788702 C55.25825121 289.22439358 56.35516475 282.01090588 57.4520998 274.79742146 C59.38465855 262.08863285 61.3168313 249.37978577 63.24813843 236.67080688 C64.87980901 225.93361254 66.51226606 215.19653814 68.14576304 204.45962149 C68.97445518 199.01247983 69.80275848 193.56527978 70.63002777 188.11792183 C71.38349781 183.15654392 72.13803102 178.19532894 72.89343226 173.2342447 C73.16646407 171.43982459 73.43909669 169.64534368 73.71129739 167.8507973 C74.07984654 165.42143353 74.44982651 162.99229189 74.82017517 160.5632019 C74.92615501 159.86228316 75.03213484 159.16136441 75.14132619 158.43920571 C75.67657016 154.93923662 76.27142879 151.46508949 77 148 C77.66 148 78.32 148 79 148 C71.54735436 134.04852469 64.08589683 120.10336333 56.48901367 106.22973633 C53.24354358 100.29727867 50.03591806 94.34553866 46.84277344 88.38476562 C41.89544333 79.15228234 36.88489272 69.96922255 31.6875 60.875 C25.58192746 50.18787566 19.80897648 39.33454334 14.08666992 28.43896484 C13.4057547 27.14534011 12.72452525 25.85188073 12.04296875 24.55859375 C11.54835396 23.61832336 11.54835396 23.61832336 11.04374695 22.65905762 C8.01617397 16.94480314 4.76513512 11.37156792 1.4621582 5.81274414 C0 3 0 3 0 0 Z " fill="#AAD4C8" transform="translate(2177,2787)"/>
<path d="M0 0 C1.12118197 8.61078076 1.19742158 17.20672287 1.1875 25.875 C1.18789276 26.60477051 1.18828552 27.33454102 1.18869019 28.08642578 C1.18220302 38.17217076 0.823256 48.11278979 -0.46484375 58.125 C-2.42664025 74.62208871 -2.23734205 91.29015261 -2.25 107.875 C-2.25200409 109.15270264 -2.25400818 110.43040527 -2.256073 111.74682617 C-2.26396785 132.33531139 -1.34503217 152.55257858 1 173 C1.3438031 176.33232589 1.67444451 179.66584599 2 183 C-15.67477903 181.64040161 -30.03090574 172.55887571 -42 160 C-44.6348016 156.81507499 -46.88955857 153.55144177 -49 150 C-49.45890625 149.23429687 -49.9178125 148.46859375 -50.390625 147.6796875 C-56.99463349 135.62538284 -58.62305179 122.97358598 -58.53125 109.44140625 C-58.53395772 107.99901571 -58.53785061 106.55662698 -58.54284668 105.11424255 C-58.54868383 102.11659062 -58.54037071 99.11942117 -58.52148438 96.12182617 C-58.49871837 92.32884724 -58.51183914 88.53700268 -58.53577423 84.74406528 C-58.55040917 81.77267818 -58.54554635 78.80154849 -58.53526306 75.83015251 C-58.53264314 74.43387649 -58.5356931 73.03757505 -58.54518127 71.64132881 C-58.65588619 50.78275091 -52.4913169 33.09534577 -37.98046875 17.8828125 C-28.22824703 8.58292017 -13.78358101 0 0 0 Z " fill="#FDFDFD" transform="translate(1650,1978)"/>
<path d="M0 0 C16.37730828 2.84822753 30.92075567 13.58291634 40.625 26.75 C49.92251155 40.55034225 52.47753734 54.57957904 52.43359375 70.95703125 C52.43817078 72.47336558 52.44348078 73.98969785 52.44947815 75.50602722 C52.45835168 78.66694625 52.4560537 81.82761188 52.44604492 84.98852539 C52.43457921 88.99574218 52.4547589 93.00207448 52.48396206 97.0091753 C52.50250463 100.13662575 52.5019959 103.26387139 52.49632454 106.39136314 C52.49617343 107.86662725 52.50203919 109.34190719 52.51461601 110.81711769 C52.65383204 129.82131126 47.7818184 146.74454256 34.29296875 160.73046875 C33.53628906 161.47941406 32.77960937 162.22835937 32 163 C31.33613281 163.69738281 30.67226562 164.39476563 29.98828125 165.11328125 C20.9715234 173.95829134 5.84600819 182 -7 182 C-7.19252769 176.03164167 -6.85554142 170.29525842 -6.125 164.375 C-2.24309821 131.60116191 -1.88675909 98.63112042 -4.375 65.75 C-4.43803314 64.91645996 -4.50106628 64.08291992 -4.56600952 63.22412109 C-5.19726444 55.06804479 -5.96557115 46.98396657 -7.1640625 38.890625 C-8.45057743 29.54870126 -7.15834579 22.53973591 -4 13.75 C-1.58120576 6.99130607 -1.58120576 6.99130607 0 0 Z " fill="#FEFEFE" transform="translate(3032,1979)"/>
<path d="M0 0 C0 3 0 3 -1.13891602 4.49967957 C-1.67186279 5.02596451 -2.20480957 5.55224945 -2.75390625 6.09448242 C-3.35452881 6.69487839 -3.95515137 7.29527435 -4.57397461 7.91386414 C-5.23018799 8.55459366 -5.88640137 9.19532318 -6.5625 9.85546875 C-7.22838135 10.51710526 -7.8942627 11.17874176 -8.58032227 11.86042786 C-10.71329379 13.9765774 -12.8564491 16.08207266 -15 18.1875 C-16.44599425 19.61845203 -17.89131571 21.05008428 -19.3359375 22.48242188 C-22.8828599 25.99622824 -26.43895178 29.50051246 -30 33 C-30.66 32.67 -31.32 32.34 -32 32 C-31.57589844 31.5875 -31.15179687 31.175 -30.71484375 30.75 C-30.12832031 30.1725 -29.54179688 29.595 -28.9375 29 C-28.36902344 28.443125 -27.80054688 27.88625 -27.21484375 27.3125 C-25.33391121 25.34863392 -23.57390741 23.34340137 -21.80859375 21.27734375 C-17.85694157 16.73181079 -13.54293736 12.64909206 -9.125 8.5625 C-8.35414062 7.84384766 -7.58328125 7.12519531 -6.7890625 6.38476562 C-5.38206249 5.07313445 -3.97355122 3.76312101 -2.56298828 2.45532227 C-1.6971199 1.64909898 -0.83657756 0.83657756 0 0 Z " fill="#939CA6" transform="translate(1557,2830)"/>
<path d="M0 0 C0 3 0 3 -1.28515625 4.62573242 C-2.16494141 5.4819519 -2.16494141 5.4819519 -3.0625 6.35546875 C-3.69414063 6.97744141 -4.32578125 7.59941406 -4.9765625 8.24023438 C-5.64429688 8.88283203 -6.31203125 9.52542969 -7 10.1875 C-8.00160156 11.16879883 -8.00160156 11.16879883 -9.0234375 12.16992188 C-10.67578441 13.78686135 -12.33471601 15.39640491 -14 17 C-14.66 16.67 -15.32 16.34 -16 16 C-14.08743854 13.89197235 -12.17019745 11.78855326 -10.25 9.6875 C-9.71117187 9.09259766 -9.17234375 8.49769531 -8.6171875 7.88476562 C-5.91859521 4.93935086 -3.3371486 2.24366544 0 0 Z " fill="#949DA7" transform="translate(1546,1924)"/>
<path d="M0 0 C0.66 0.66 1.32 1.32 2 2 C-0.31 4.31 -2.62 6.62 -5 9 C-5.66 8.67 -6.32 8.34 -7 8 C-4.69 5.36 -2.38 2.72 0 0 Z " fill="#909AA4" transform="translate(1514,2874)"/>
</svg>
