<?xml version="1.0" encoding="UTF-8"?>
<svg version="1.1" xmlns="http://www.w3.org/2000/svg" width="2048" height="1196">
<path d="M0 0 C1.98 0 3.96 0 6 0 C6 1.65 6 3.3 6 5 C6.66 5 7.32 5 8 5 C8 6.98 8 8.96 8 11 C8.66 11 9.32 11 10 11 C10 12.98 10 14.96 10 17 C10.66 17 11.32 17 12 17 C13.76462683 20.08809695 14 21.23312136 14 25 C14.66 25 15.32 25 16 25 C16 26.98 16 28.96 16 31 C16.66 31 17.32 31 18 31 C18 32.98 18 34.96 18 37 C18.66 37 19.32 37 20 37 C20 38.32 20 39.64 20 41 C20.66 41 21.32 41 22 41 C22 42.98 22 44.96 22 47 C22.66 47 23.32 47 24 47 C25.60355101 50.50776784 26.22036864 53.14354879 26 57 C26.66 57 27.32 57 28 57 C29.60355101 60.50776784 30.22036864 63.14354879 30 67 C30.66 67 31.32 67 32 67 C32 68.98 32 70.96 32 73 C32.66 73 33.32 73 34 73 C34 74.98 34 76.96 34 79 C34.66 79 35.32 79 36 79 C36 80.32 36 81.64 36 83 C36.66 83 37.32 83 38 83 C39.31626692 86.61973402 40 89.09567131 40 93 C40.66 93 41.32 93 42 93 C42 94.98 42 96.96 42 99 C42.66 99 43.32 99 44 99 C44 100.32 44 101.64 44 103 C44.66 103 45.32 103 46 103 C46 104.98 46 106.96 46 109 C46.66 109 47.32 109 48 109 C48 110.98 48 112.96 48 115 C48.66 115 49.32 115 50 115 C50.20496094 115.56589844 50.40992188 116.13179688 50.62109375 116.71484375 C50.89050781 117.44832031 51.15992188 118.18179688 51.4375 118.9375 C51.83775391 120.03384766 51.83775391 120.03384766 52.24609375 121.15234375 C52.85386948 122.98305678 52.85386948 122.98305678 54 124 C54.04063832 125.66617115 54.042721 127.33388095 54 129 C54.66 129 55.32 129 56 129 C56 130.98 56 132.96 56 135 C56.66 135 57.32 135 58 135 C58 136.98 58 138.96 58 141 C58.66 141 59.32 141 60 141 C60 142.32 60 143.64 60 145 C60.66 145 61.32 145 62 145 C63.31626692 148.61973402 64 151.09567131 64 155 C64.66 155 65.32 155 66 155 C66 156.98 66 158.96 66 161 C66.66 161 67.32 161 68 161 C68 162.32 68 163.64 68 165 C68.66 165 69.32 165 70 165 C70 166.98 70 168.96 70 171 C70.66 171 71.32 171 72 171 C72 172.98 72 174.96 72 177 C72.66 177 73.32 177 74 177 C74.67528223 178.57967807 75.33989694 180.16391903 76 181.75 C76.37125 182.63171875 76.7425 183.5134375 77.125 184.421875 C78 187 78 187 78 191 C78.66 191 79.32 191 80 191 C80 192.98 80 194.96 80 197 C80.66 197 81.32 197 82 197 C82 198.98 82 200.96 82 203 C82.66 203 83.32 203 84 203 C84 204.32 84 205.64 84 207 C84.66 207 85.32 207 86 207 C86.20496094 207.71027344 86.40992188 208.42054688 86.62109375 209.15234375 C86.89050781 210.07144531 87.15992188 210.99054688 87.4375 211.9375 C87.83775391 213.31228516 87.83775391 213.31228516 88.24609375 214.71484375 C88.79026051 216.9402493 88.79026051 216.9402493 90 218 C90.04063832 219.66617115 90.042721 221.33388095 90 223 C90.66 223 91.32 223 92 223 C93.60355101 226.50776784 94.22036864 229.14354879 94 233 C94.66 233 95.32 233 96 233 C96 234.98 96 236.96 96 239 C96.66 239 97.32 239 98 239 C99.31626692 242.61973402 100 245.09567131 100 249 C100.66 249 101.32 249 102 249 C103.60355101 252.50776784 104.22036864 255.14354879 104 259 C104.66 259 105.32 259 106 259 C106 260.98 106 262.96 106 265 C106.66 265 107.32 265 108 265 C108 266.32 108 267.64 108 269 C108.66 269 109.32 269 110 269 C110 270.98 110 272.96 110 275 C110.66 275 111.32 275 112 275 C112 276.98 112 278.96 112 281 C112.66 281 113.32 281 114 281 C114 282.32 114 283.64 114 285 C114.66 285 115.32 285 116 285 C117.60355101 288.50776784 118.22036864 291.14354879 118 295 C118.66 295 119.32 295 120 295 C120 296.98 120 298.96 120 301 C120.66 301 121.32 301 122 301 C122 302.98 122 304.96 122 307 C122.66 307 123.32 307 124 307 C124 308.32 124 309.64 124 311 C124.66 311 125.32 311 126 311 C127.60355101 314.50776784 128.22036864 317.14354879 128 321 C128.66 321 129.32 321 130 321 C130 322.98 130 324.96 130 327 C130.66 327 131.32 327 132 327 C132 328.32 132 329.64 132 331 C132.66 331 133.32 331 134 331 C134 332.98 134 334.96 134 337 C134.66 337 135.32 337 136 337 C137.31626692 340.61973402 138 343.09567131 138 347 C138.66 347 139.32 347 140 347 C141.31626692 350.61973402 142 353.09567131 142 357 C142.66 357 143.32 357 144 357 C144 358.98 144 360.96 144 363 C144.66 363 145.32 363 146 363 C146 364.98 146 366.96 146 369 C146.66 369 147.32 369 148 369 C148 370.32 148 371.64 148 373 C148.66 373 149.32 373 150 373 C151.31626692 376.61973402 152 379.09567131 152 383 C152.66 383 153.32 383 154 383 C154 384.98 154 386.96 154 389 C154.66 389 155.32 389 156 389 C156 390.32 156 391.64 156 393 C156.66 393 157.32 393 158 393 C158 394.98 158 396.96 158 399 C158.66 399 159.32 399 160 399 C160 400.98 160 402.96 160 405 C160.66 405 161.32 405 162 405 C162.67528223 406.57967807 163.33989694 408.16391903 164 409.75 C164.37125 410.63171875 164.7425 411.5134375 165.125 412.421875 C166 415 166 415 166 419 C166.66 419 167.32 419 168 419 C168 420.98 168 422.96 168 425 C168.66 425 169.32 425 170 425 C170 426.98 170 428.96 170 431 C170.66 431 171.32 431 172 431 C172 432.32 172 433.64 172 435 C172.66 435 173.32 435 174 435 C174 436.98 174 438.96 174 441 C174.66 441 175.32 441 176 441 C177.60355101 444.50776784 178.22036864 447.14354879 178 451 C178.66 451 179.32 451 180 451 C181.60355101 454.50776784 182.22036864 457.14354879 182 461 C182.66 461 183.32 461 184 461 C184 462.98 184 464.96 184 467 C184.66 467 185.32 467 186 467 C186 468.98 186 470.96 186 473 C186.66 473 187.32 473 188 473 C188 474.32 188 475.64 188 477 C188.66 477 189.32 477 190 477 C190 478.32 190 479.64 190 481 C190.66 481 191.32 481 192 481 C192 482.98 192 484.96 192 487 C192.66 487 193.32 487 194 487 C194 488.98 194 490.96 194 493 C194.66 493 195.32 493 196 493 C196 494.32 196 495.64 196 497 C196.66 497 197.32 497 198 497 C198 498.98 198 500.96 198 503 C198.66 503 199.32 503 200 503 C201.60355101 506.50776784 202.22036864 509.14354879 202 513 C202.66 513 203.32 513 204 513 C205.60355101 516.50776784 206.22036864 519.14354879 206 523 C206.66 523 207.32 523 208 523 C208 524.98 208 526.96 208 529 C208.66 529 209.32 529 210 529 C210 530.98 210 532.96 210 535 C210.66 535 211.32 535 212 535 C212 536.32 212 537.64 212 539 C212.66 539 213.32 539 214 539 C215.31626692 542.61973402 216 545.09567131 216 549 C216.66 549 217.32 549 218 549 C218 550.98 218 552.96 218 555 C218.66 555 219.32 555 220 555 C220 556.32 220 557.64 220 559 C220.66 559 221.32 559 222 559 C222 560.98 222 562.96 222 565 C222.66 565 223.32 565 224 565 C224 566.98 224 568.96 224 571 C224.66 571 225.32 571 226 571 C226.20496094 571.56589844 226.40992188 572.13179687 226.62109375 572.71484375 C226.89050781 573.44832031 227.15992188 574.18179688 227.4375 574.9375 C227.70433594 575.66839844 227.97117187 576.39929688 228.24609375 577.15234375 C228.85386948 578.98305678 228.85386948 578.98305678 230 580 C230.04063832 581.66617115 230.042721 583.33388095 230 585 C230.66 585 231.32 585 232 585 C232 586.98 232 588.96 232 591 C232.66 591 233.32 591 234 591 C234 592.98 234 594.96 234 597 C234.66 597 235.32 597 236 597 C236 598.32 236 599.64 236 601 C236.66 601 237.32 601 238 601 C239.31626692 604.61973402 240 607.09567131 240 611 C240.66 611 241.32 611 242 611 C242 612.98 242 614.96 242 617 C242.66 617 243.32 617 244 617 C244 618.32 244 619.64 244 621 C244.66 621 245.32 621 246 621 C246 622.98 246 624.96 246 627 C246.66 627 247.32 627 248 627 C248 628.98 248 630.96 248 633 C248.66 633 249.32 633 250 633 C250.67528223 634.57967807 251.33989694 636.16391903 252 637.75 C252.37125 638.63171875 252.7425 639.5134375 253.125 640.421875 C254 643 254 643 254 647 C254.66 647 255.32 647 256 647 C256 648.98 256 650.96 256 653 C256.66 653 257.32 653 258 653 C258 654.98 258 656.96 258 659 C258.66 659 259.32 659 260 659 C260 660.32 260 661.64 260 663 C260.66 663 261.32 663 262 663 C262 664.98 262 666.96 262 669 C262.66 669 263.32 669 264 669 C265.60355101 672.50776784 266.22036864 675.14354879 266 679 C266.66 679 267.32 679 268 679 C269.60355101 682.50776784 270.22036864 685.14354879 270 689 C270.66 689 271.32 689 272 689 C272 690.98 272 692.96 272 695 C272.66 695 273.32 695 274 695 C275.31626692 698.61973402 276 701.09567131 276 705 C276.66 705 277.32 705 278 705 C279.60355101 708.50776784 280.22036864 711.14354879 280 715 C280.66 715 281.32 715 282 715 C282 716.98 282 718.96 282 721 C282.66 721 283.32 721 284 721 C284 722.32 284 723.64 284 725 C284.66 725 285.32 725 286 725 C286 726.98 286 728.96 286 731 C286.66 731 287.32 731 288 731 C288 732.98 288 734.96 288 737 C288.66 737 289.32 737 290 737 C290 738.32 290 739.64 290 741 C290.66 741 291.32 741 292 741 C293.60355101 744.50776784 294.22036864 747.14354879 294 751 C294.66 751 295.32 751 296 751 C296 752.98 296 754.96 296 757 C296.66 757 297.32 757 298 757 C298 758.98 298 760.96 298 763 C298.66 763 299.32 763 300 763 C300 764.32 300 765.64 300 767 C300.66 767 301.32 767 302 767 C303.60355101 770.50776784 304.22036864 773.14354879 304 777 C304.66 777 305.32 777 306 777 C306 778.98 306 780.96 306 783 C306.66 783 307.32 783 308 783 C308 784.32 308 785.64 308 787 C308.66 787 309.32 787 310 787 C310 788.98 310 790.96 310 793 C310.66 793 311.32 793 312 793 C313.31626692 796.61973402 314 799.09567131 314 803 C314.66 803 315.32 803 316 803 C317.31626692 806.61973402 318 809.09567131 318 813 C318.66 813 319.32 813 320 813 C320 814.98 320 816.96 320 819 C320.66 819 321.32 819 322 819 C322 820.98 322 822.96 322 825 C322.66 825 323.32 825 324 825 C324 826.32 324 827.64 324 829 C324.66 829 325.32 829 326 829 C327.31626692 832.61973402 328 835.09567131 328 839 C328.66 839 329.32 839 330 839 C330 840.98 330 842.96 330 845 C330.66 845 331.32 845 332 845 C332 846.32 332 847.64 332 849 C332.66 849 333.32 849 334 849 C334 850.98 334 852.96 334 855 C334.66 855 335.32 855 336 855 C336 856.98 336 858.96 336 861 C336.66 861 337.32 861 338 861 C338.67528223 862.57967807 339.33989694 864.16391903 340 865.75 C340.37125 866.63171875 340.7425 867.5134375 341.125 868.421875 C342 871 342 871 342 875 C342.66 875 343.32 875 344 875 C344 876.98 344 878.96 344 881 C344.66 881 345.32 881 346 881 C346 882.98 346 884.96 346 887 C346.66 887 347.32 887 348 887 C348 888.32 348 889.64 348 891 C348.66 891 349.32 891 350 891 C350 892.98 350 894.96 350 897 C350.66 897 351.32 897 352 897 C353.60355101 900.50776784 354.22036864 903.14354879 354 907 C354.66 907 355.32 907 356 907 C356 908.32 356 909.64 356 911 C356.66 911 357.32 911 358 911 C358 912.98 358 914.96 358 917 C358.66 917 359.32 917 360 917 C360 918.98 360 920.96 360 923 C360.66 923 361.32 923 362 923 C362 924.98 362 926.96 362 929 C362.66 929 363.32 929 364 929 C364 930.32 364 931.64 364 933 C364.66 933 365.32 933 366 933 C366 934.32 366 935.64 366 937 C366.66 937 367.32 937 368 937 C368 938.98 368 940.96 368 943 C368.66 943 369.32 943 370 943 C370 944.98 370 946.96 370 949 C370.66 949 371.32 949 372 949 C372 950.32 372 951.64 372 953 C372.66 953 373.32 953 374 953 C374 954.98 374 956.96 374 959 C374.66 959 375.32 959 376 959 C377.60355101 962.50776784 378.22036864 965.14354879 378 969 C378.66 969 379.32 969 380 969 C381.60355101 972.50776784 382.22036864 975.14354879 382 979 C382.66 979 383.32 979 384 979 C384 980.98 384 982.96 384 985 C384.66 985 385.32 985 386 985 C386 986.98 386 988.96 386 991 C386.66 991 387.32 991 388 991 C388 992.32 388 993.64 388 995 C388.66 995 389.32 995 390 995 C391.31626692 998.61973402 392 1001.09567131 392 1005 C392.66 1005 393.32 1005 394 1005 C394 1006.98 394 1008.96 394 1011 C394.66 1011 395.32 1011 396 1011 C396 1012.32 396 1013.64 396 1015 C396.66 1015 397.32 1015 398 1015 C398 1016.98 398 1018.96 398 1021 C398.66 1021 399.32 1021 400 1021 C400 1022.98 400 1024.96 400 1027 C400.66 1027 401.32 1027 402 1027 C402.20496094 1027.56589844 402.40992188 1028.13179687 402.62109375 1028.71484375 C402.89050781 1029.44832031 403.15992188 1030.18179687 403.4375 1030.9375 C403.70433594 1031.66839844 403.97117187 1032.39929687 404.24609375 1033.15234375 C404.85386948 1034.98305678 404.85386948 1034.98305678 406 1036 C406.04063832 1037.66617115 406.042721 1039.33388095 406 1041 C406.66 1041 407.32 1041 408 1041 C408 1042.98 408 1044.96 408 1047 C408.66 1047 409.32 1047 410 1047 C410 1048.98 410 1050.96 410 1053 C410.66 1053 411.32 1053 412 1053 C412 1054.32 412 1055.64 412 1057 C412.66 1057 413.32 1057 414 1057 C415.31626692 1060.61973402 416 1063.09567131 416 1067 C416.66 1067 417.32 1067 418 1067 C418 1068.98 418 1070.96 418 1073 C418.66 1073 419.32 1073 420 1073 C420 1074.32 420 1075.64 420 1077 C420.66 1077 421.32 1077 422 1077 C422 1078.98 422 1080.96 422 1083 C422.66 1083 423.32 1083 424 1083 C424 1084.98 424 1086.96 424 1089 C424.66 1089 425.32 1089 426 1089 C426.67528223 1090.57967807 427.33989694 1092.16391903 428 1093.75 C428.37125 1094.63171875 428.7425 1095.5134375 429.125 1096.421875 C430 1099 430 1099 430 1103 C430.66 1103 431.32 1103 432 1103 C432 1104.98 432 1106.96 432 1109 C432.66 1109 433.32 1109 434 1109 C434 1110.98 434 1112.96 434 1115 C434.66 1115 435.32 1115 436 1115 C436 1116.32 436 1117.64 436 1119 C436.66 1119 437.32 1119 438 1119 C438 1120.98 438 1122.96 438 1125 C438.66 1125 439.32 1125 440 1125 C440 1127.64 440 1130.28 440 1133 C325.82 1133 211.64 1133 94 1133 C94 1129.7 94 1126.4 94 1123 C93.34 1123 92.68 1123 92 1123 C91.96241577 1121.41747437 91.96241577 1121.41747437 91.92407227 1119.80297852 C91.83015891 1115.90229372 91.72989966 1112.00179375 91.62768555 1108.10131836 C91.58427561 1106.41060701 91.54260511 1104.71985009 91.50268555 1103.02905273 C91.44512906 1100.60386394 91.38139351 1098.17890585 91.31640625 1095.75390625 C91.29969376 1094.99348526 91.28298126 1094.23306427 91.26576233 1093.44960022 C91.47908732 1089.92917969 91.47908732 1089.92917969 90 1087 C89.85447268 1085.23266824 89.77277531 1083.45999006 89.71875 1081.6875 C89.68136719 1080.61242188 89.64398437 1079.53734375 89.60546875 1078.4296875 C89.53515625 1076.14322917 89.46484375 1073.85677083 89.39453125 1071.5703125 C89.35714844 1070.49523438 89.31976562 1069.42015625 89.28125 1068.3125 C89.25095703 1067.31863281 89.22066406 1066.32476563 89.18945312 1065.30078125 C89.25272441 1063.03716014 89.25272441 1063.03716014 88 1062 C87.8525031 1059.56554087 87.76511465 1057.15571433 87.71875 1054.71875 C87.70034058 1053.99006714 87.68193115 1053.26138428 87.66296387 1052.51062012 C87.58403496 1049.38044372 87.5164625 1046.25004361 87.44775391 1043.11962891 C87.39612846 1040.8400575 87.33883739 1038.56067728 87.28125 1036.28125 C87.26088684 1035.21094543 87.26088684 1035.21094543 87.2401123 1034.11901855 C87.44072762 1030.77300001 87.44072762 1030.77300001 86 1028 C85.91148471 1025.40640678 85.88474055 1022.83960309 85.90234375 1020.24609375 C85.9037587 1019.47064713 85.90517365 1018.6952005 85.90663147 1017.89625549 C85.91224655 1015.40996506 85.92480154 1012.9237634 85.9375 1010.4375 C85.94251306 1008.75586067 85.9470763 1007.07421994 85.95117188 1005.39257812 C85.96222087 1001.26168434 85.97949555 997.13085724 86 993 C85.34 993 84.68 993 84 993 C84 981.12 84 969.24 84 957 C83.34 957 82.68 957 82 957 C81.97494385 956.27820557 81.9498877 955.55641113 81.92407227 954.81274414 C81.80848698 951.562465 81.68559226 948.31250312 81.5625 945.0625 C81.52318359 943.92619141 81.48386719 942.78988281 81.44335938 941.61914062 C81.40146484 940.53955078 81.35957031 939.45996094 81.31640625 938.34765625 C81.27974854 937.34742432 81.24309082 936.34719238 81.20532227 935.31665039 C81.25328159 933.03930812 81.25328159 933.03930812 80 932 C79.85243002 929.49283162 79.7650766 927.00960951 79.71875 924.5 C79.70034058 923.74912109 79.68193115 922.99824219 79.66296387 922.22460938 C79.58402923 918.99884747 79.51646037 915.77286832 79.44775391 912.546875 C79.39613127 910.19780811 79.33883903 907.84892693 79.28125 905.5 C79.26767456 904.76458984 79.25409912 904.02917969 79.2401123 903.27148438 C79.45532655 899.8453051 79.45532655 899.8453051 78 897 C77.85243002 894.49283162 77.7650766 892.00960951 77.71875 889.5 C77.70034058 888.74912109 77.68193115 887.99824219 77.66296387 887.22460938 C77.58402923 883.99884747 77.51646037 880.77286832 77.44775391 877.546875 C77.39613127 875.19780811 77.33883903 872.84892693 77.28125 870.5 C77.26767456 869.76458984 77.25409912 869.02917969 77.2401123 868.27148438 C77.45532655 864.8453051 77.45532655 864.8453051 76 862 C75.91148471 859.40640678 75.88474055 856.83960309 75.90234375 854.24609375 C75.90446617 853.08292381 75.90446617 853.08292381 75.90663147 851.89625549 C75.91224655 849.40996506 75.92480154 846.9237634 75.9375 844.4375 C75.94251306 842.75586067 75.9470763 841.07421994 75.95117188 839.39257812 C75.96222087 835.26168434 75.97949555 831.13085724 76 827 C75.34 827 74.68 827 74 827 C74 818.75 74 810.5 74 802 C73.34 802 72.68 802 72 802 C72 791.11 72 780.22 72 769 C71.34 769 70.68 769 70 769 C70 768.34 70 767.68 70 767 C69.34 767 68.68 767 68 767 C68 766.34 68 765.68 68 765 C67.34 765 66.68 765 66 765 C66 764.34 66 763.68 66 763 C65.34 763 64.68 763 64 763 C64 762.34 64 761.68 64 761 C63.34 761 62.68 761 62 761 C62 760.34 62 759.68 62 759 C61.34 759 60.68 759 60 759 C60 758.34 60 757.68 60 757 C59.34 757 58.68 757 58 757 C58 756.34 58 755.68 58 755 C57.34 755 56.68 755 56 755 C56 754.34 56 753.68 56 753 C55.34 753 54.68 753 54 753 C54 752.34 54 751.68 54 751 C53.34 751 52.68 751 52 751 C52 750.34 52 749.68 52 749 C51.34 749 50.68 749 50 749 C50 748.34 50 747.68 50 747 C49.34 747 48.68 747 48 747 C48 746.34 48 745.68 48 745 C47.34 745 46.68 745 46 745 C46 744.34 46 743.68 46 743 C45.34 743 44.68 743 44 743 C44 742.34 44 741.68 44 741 C43.34 741 42.68 741 42 741 C42 740.34 42 739.68 42 739 C41.34 739 40.68 739 40 739 C40 732.07 40 725.14 40 718 C39.34 718 38.68 718 38 718 C38 704.47 38 690.94 38 677 C37.34 677 36.68 677 36 677 C35.97494385 675.7632251 35.9498877 674.5264502 35.92407227 673.25219727 C35.83017747 668.68063287 35.72991371 664.10922682 35.62768555 659.5378418 C35.58426856 657.55610854 35.54259863 655.57433622 35.50268555 653.5925293 C35.44514617 650.7503683 35.38140555 647.90840517 35.31640625 645.06640625 C35.29133751 643.72891075 35.29133751 643.72891075 35.26576233 642.36439514 C35.563413 638.36051605 35.563413 638.36051605 34 635 C33.85375838 632.94055622 33.77258163 630.87642768 33.71875 628.8125 C33.68136719 627.55695312 33.64398437 626.30140625 33.60546875 625.0078125 C33.55179439 622.99970197 33.49978114 620.99155223 33.44775391 618.98339844 C33.39611193 617.05132528 33.33877085 615.11940707 33.28125 613.1875 C33.25095703 612.02605469 33.22066406 610.86460937 33.18945312 609.66796875 C33.29851963 607.08010463 33.29851963 607.08010463 32 606 C31.85211149 603.12913328 31.76491906 600.27928077 31.71875 597.40625 C31.70034058 596.54439087 31.68193115 595.68253174 31.66296387 594.79455566 C31.5840051 591.09086962 31.51645144 587.38699374 31.44775391 583.68310547 C31.39614309 580.98655873 31.33884598 578.29017443 31.28125 575.59375 C31.26088684 574.32658142 31.26088684 574.32658142 31.2401123 573.03381348 C31.52626643 569.20554853 31.52626643 569.20554853 30 566 C29.91128727 562.97022196 29.8848065 559.96332978 29.90234375 556.93359375 C29.9037587 556.02497086 29.90517365 555.11634796 29.90663147 554.18019104 C29.91224807 551.26592779 29.92480335 548.35174019 29.9375 545.4375 C29.94251286 543.46679798 29.94707614 541.49609476 29.95117188 539.52539062 C29.96222289 534.68356441 29.97949862 529.84179505 30 525 C29.34 525 28.68 525 28 525 C27.97494385 523.7632251 27.9498877 522.5264502 27.92407227 521.25219727 C27.83017747 516.68063287 27.72991371 512.10922682 27.62768555 507.5378418 C27.58426856 505.55610854 27.54259863 503.57433622 27.50268555 501.5925293 C27.44514617 498.7503683 27.38140555 495.90840517 27.31640625 493.06640625 C27.29133751 491.72891075 27.29133751 491.72891075 27.26576233 490.36439514 C27.563413 486.36051605 27.563413 486.36051605 26 483 C25.85388036 481.02531359 25.77261383 479.04575868 25.71875 477.06640625 C25.68136719 475.86048828 25.64398437 474.65457031 25.60546875 473.41210938 C25.57066406 472.14173828 25.53585937 470.87136719 25.5 469.5625 C25.43133019 467.06368176 25.35862144 464.56497019 25.28125 462.06640625 C25.25095703 460.95209229 25.22066406 459.83777832 25.18945312 458.68969727 C25.17478961 456.03019286 25.17478961 456.03019286 24 454 C23.85492215 451.09676049 23.76572214 448.21374027 23.71875 445.30859375 C23.70034058 444.44814957 23.68193115 443.58770538 23.66296387 442.70118713 C23.58411805 439.01031169 23.51639825 435.31925088 23.44775391 431.62817383 C23.39615599 428.93821826 23.33886371 426.24842608 23.28125 423.55859375 C23.26767456 422.71695175 23.25409912 421.87530975 23.2401123 421.00816345 C23.52392685 417.19346108 23.52392685 417.19346108 22 414 C21.91128727 410.97022196 21.8848065 407.96332978 21.90234375 404.93359375 C21.90446617 403.57065941 21.90446617 403.57065941 21.90663147 402.18019104 C21.91224807 399.26592779 21.92480335 396.35174019 21.9375 393.4375 C21.94251286 391.46679798 21.94707614 389.49609476 21.95117188 387.52539062 C21.96222289 382.68356441 21.97949862 377.84179505 22 373 C21.34 373 20.68 373 20 373 C19.97494385 371.79351807 19.9498877 370.58703613 19.92407227 369.34399414 C19.83017477 364.88424339 19.72991167 360.42465487 19.62768555 355.96508789 C19.58426959 354.03185815 19.54259958 352.09858841 19.50268555 350.1652832 C19.44514369 347.39261798 19.3814038 344.62015543 19.31640625 341.84765625 C19.29133751 340.54297142 19.29133751 340.54297142 19.26576233 339.21192932 C19.54973787 335.28884034 19.54973787 335.28884034 18 332 C17.85375838 329.94055622 17.77258163 327.87642768 17.71875 325.8125 C17.68136719 324.55695313 17.64398437 323.30140625 17.60546875 322.0078125 C17.55179439 319.99970197 17.49978114 317.99155223 17.44775391 315.98339844 C17.39611193 314.05132528 17.33877085 312.11940707 17.28125 310.1875 C17.25095703 309.02605469 17.22066406 307.86460937 17.18945312 306.66796875 C17.29851963 304.08010463 17.29851963 304.08010463 16 303 C15.91131701 300.04294679 15.88479704 297.10934944 15.90234375 294.15234375 C15.90446617 292.82270348 15.90446617 292.82270348 15.90663147 291.46620178 C15.91224785 288.62326746 15.92480309 285.78041069 15.9375 282.9375 C15.94251289 281.01497509 15.94707616 279.09244896 15.95117188 277.16992188 C15.96222259 272.44658451 15.97949817 267.72330542 16 263 C15.34 263 14.68 263 14 263 C13.97494385 261.7632251 13.9498877 260.5264502 13.92407227 259.25219727 C13.83017747 254.68063287 13.72991371 250.10922682 13.62768555 245.5378418 C13.58426856 243.55610854 13.54259863 241.57433622 13.50268555 239.5925293 C13.44514617 236.7503683 13.38140555 233.90840517 13.31640625 231.06640625 C13.29133751 229.72891075 13.29133751 229.72891075 13.26576233 228.36439514 C13.563413 224.36051605 13.563413 224.36051605 12 221 C11.91131701 218.04294679 11.88479704 215.10934944 11.90234375 212.15234375 C11.90446617 210.82270348 11.90446617 210.82270348 11.90663147 209.46620178 C11.91224785 206.62326746 11.92480309 203.78041069 11.9375 200.9375 C11.94251289 199.01497509 11.94707616 197.09244896 11.95117188 195.16992188 C11.96222259 190.44658451 11.97949817 185.72330542 12 181 C11.34 181 10.68 181 10 181 C9.97494385 180.12674072 9.9498877 179.25348145 9.92407227 178.35375977 C9.82912291 175.12397448 9.72987971 171.89435846 9.62768555 168.66479492 C9.58428566 167.26510801 9.54261436 165.86536641 9.50268555 164.46557617 C9.44510555 162.45738505 9.38086 160.44938851 9.31640625 158.44140625 C9.27974854 157.23170166 9.24309082 156.02199707 9.20532227 154.77563477 C9.31061734 152.09294544 9.31061734 152.09294544 8 151 C7.91131701 148.04294679 7.88479704 145.10934944 7.90234375 142.15234375 C7.90446617 140.82270348 7.90446617 140.82270348 7.90663147 139.46620178 C7.91224785 136.62326746 7.92480309 133.78041069 7.9375 130.9375 C7.94251289 129.01497509 7.94707616 127.09244896 7.95117188 125.16992188 C7.96222259 120.44658451 7.97949817 115.72330542 8 111 C7.34 111 6.68 111 6 111 C5.97494385 109.79351807 5.9498877 108.58703613 5.92407227 107.34399414 C5.83017477 102.88424339 5.72991167 98.42465487 5.62768555 93.96508789 C5.58426959 92.03185815 5.54259958 90.09858841 5.50268555 88.1652832 C5.44514369 85.39261798 5.3814038 82.62015543 5.31640625 79.84765625 C5.29133751 78.54297142 5.29133751 78.54297142 5.26576233 77.21192932 C5.54973787 73.28884034 5.54973787 73.28884034 4 70 C3.91128727 66.97022196 3.8848065 63.96332978 3.90234375 60.93359375 C3.90446617 59.57065941 3.90446617 59.57065941 3.90663147 58.18019104 C3.91224807 55.26592779 3.92480335 52.35174019 3.9375 49.4375 C3.94251286 47.46679798 3.94707614 45.49609476 3.95117188 43.52539062 C3.96222289 38.68356441 3.97949862 33.84179505 4 29 C3.34 29 2.68 29 2 29 C2 42.86 2 56.72 2 71 C1.34 71 0.68 71 0 71 C0.00785522 72.8097229 0.00785522 72.8097229 0.01586914 74.65600586 C0.03391611 79.11563378 0.04543089 83.57525846 0.05493164 88.03491211 C0.05997256 89.96818585 0.06680519 91.90145576 0.07543945 93.8347168 C0.08751565 96.60726872 0.09323057 99.37977041 0.09765625 102.15234375 C0.10281754 103.02213364 0.10797882 103.89192352 0.11329651 104.78807068 C0.11349185 106.85905814 0.06208168 108.92994324 0 111 C-0.33 111.33 -0.66 111.66 -1 112 C-1.14794419 114.94363177 -1.23510716 117.86675226 -1.28125 120.8125 C-1.30886414 122.13858276 -1.30886414 122.13858276 -1.33703613 123.49145508 C-1.39598101 126.32756698 -1.44871919 129.16373976 -1.5 132 C-1.56742738 135.72930121 -1.6410958 139.45839932 -1.71875 143.1875 C-1.73232544 144.05415283 -1.74590088 144.92080566 -1.7598877 145.8137207 C-1.88719819 151.88719819 -1.88719819 151.88719819 -3 153 C-3.1584265 155.0708472 -3.25124422 157.14678029 -3.31640625 159.22265625 C-3.35830078 160.48271484 -3.40019531 161.74277344 -3.44335938 163.04101562 C-3.48317596 164.38150736 -3.52288814 165.7220022 -3.5625 167.0625 C-3.60568042 168.40691523 -3.64929456 169.7513166 -3.69335938 171.09570312 C-3.79985358 174.3970234 -3.9018646 177.69842236 -4 181 C-4.66 181 -5.32 181 -6 181 C-5.99214478 182.85516235 -5.99214478 182.85516235 -5.98413086 184.74780273 C-5.96608439 189.31924725 -5.95456929 193.89068859 -5.94506836 198.4621582 C-5.94002733 200.44393441 -5.93319462 202.42570689 -5.92456055 204.4074707 C-5.91248485 207.24952109 -5.90676955 210.09152247 -5.90234375 212.93359375 C-5.89718246 213.82525742 -5.89202118 214.71692108 -5.88670349 215.63560486 C-5.88650823 217.75740601 -5.9378997 219.8791078 -6 222 C-6.33 222.33 -6.66 222.66 -7 223 C-7.16029688 225.95529504 -7.25957328 228.88982457 -7.31640625 231.84765625 C-7.33718735 232.7340831 -7.35796844 233.62050995 -7.37937927 234.53379822 C-7.444974 237.376617 -7.50380552 240.21953117 -7.5625 243.0625 C-7.6056758 244.98503606 -7.64928978 246.90756234 -7.69335938 248.83007812 C-7.80066543 253.55328668 -7.90190451 258.27659153 -8 263 C-8.66 263 -9.32 263 -10 263 C-9.99214478 264.85516235 -9.99214478 264.85516235 -9.98413086 266.74780273 C-9.96608439 271.31924725 -9.95456929 275.89068859 -9.94506836 280.4621582 C-9.94002733 282.44393441 -9.93319462 284.42570689 -9.92456055 286.4074707 C-9.91248485 289.24952109 -9.90676955 292.09152247 -9.90234375 294.93359375 C-9.89718246 295.82525742 -9.89202118 296.71692108 -9.88670349 297.63560486 C-9.88650823 299.75740601 -9.9378997 301.8791078 -10 304 C-10.33 304.33 -10.66 304.66 -11 305 C-11.1584265 307.0708472 -11.25124422 309.14678029 -11.31640625 311.22265625 C-11.35830078 312.48271484 -11.40019531 313.74277344 -11.44335938 315.04101562 C-11.48317596 316.38150736 -11.52288814 317.7220022 -11.5625 319.0625 C-11.60568042 320.40691523 -11.64929456 321.7513166 -11.69335938 323.09570312 C-11.79985358 326.3970234 -11.9018646 329.69842236 -12 333 C-12.66 333 -13.32 333 -14 333 C-13.99214478 334.85516235 -13.99214478 334.85516235 -13.98413086 336.74780273 C-13.96608439 341.31924725 -13.95456929 345.89068859 -13.94506836 350.4621582 C-13.94002733 352.44393441 -13.93319462 354.42570689 -13.92456055 356.4074707 C-13.91248485 359.24952109 -13.90676955 362.09152247 -13.90234375 364.93359375 C-13.89718246 365.82525742 -13.89202118 366.71692108 -13.88670349 367.63560486 C-13.88650823 369.75740601 -13.9378997 371.8791078 -14 374 C-14.33 374.33 -14.66 374.66 -15 375 C-15.16029688 377.95529504 -15.25957328 380.88982457 -15.31640625 383.84765625 C-15.3475779 385.17729652 -15.3475779 385.17729652 -15.37937927 386.53379822 C-15.444974 389.376617 -15.50380552 392.21953117 -15.5625 395.0625 C-15.6056758 396.98503606 -15.64928978 398.90756234 -15.69335938 400.83007812 C-15.80066543 405.55328668 -15.90190451 410.27659153 -16 415 C-16.66 415 -17.32 415 -18 415 C-17.99214478 416.8097229 -17.99214478 416.8097229 -17.98413086 418.65600586 C-17.96608389 423.11563378 -17.95456911 427.57525846 -17.94506836 432.03491211 C-17.94002744 433.96818585 -17.93319481 435.90145576 -17.92456055 437.8347168 C-17.91248435 440.60726872 -17.90676943 443.37977041 -17.90234375 446.15234375 C-17.89718246 447.02213364 -17.89202118 447.89192352 -17.88670349 448.78807068 C-17.88650815 450.85905814 -17.93791832 452.92994324 -18 455 C-18.33 455.33 -18.66 455.66 -19 456 C-19.15858842 458.14386657 -19.25129298 460.29266838 -19.31640625 462.44140625 C-19.35830078 463.74658203 -19.40019531 465.05175781 -19.44335938 466.39648438 C-19.48317608 467.7851533 -19.52288825 469.17382522 -19.5625 470.5625 C-19.60567989 471.95509183 -19.649294 473.34767028 -19.69335938 474.74023438 C-19.79985876 478.16004801 -19.90186923 481.57993763 -20 485 C-20.66 485 -21.32 485 -22 485 C-21.99214478 486.8097229 -21.99214478 486.8097229 -21.98413086 488.65600586 C-21.96608389 493.11563378 -21.95456911 497.57525846 -21.94506836 502.03491211 C-21.94002744 503.96818585 -21.93319481 505.90145576 -21.92456055 507.8347168 C-21.91248435 510.60726872 -21.90676943 513.37977041 -21.90234375 516.15234375 C-21.89718246 517.02213364 -21.89202118 517.89192352 -21.88670349 518.78807068 C-21.88650815 520.85905814 -21.93791832 522.92994324 -22 525 C-22.33 525.33 -22.66 525.66 -23 526 C-23.1603556 529.02807044 -23.25960448 532.03585454 -23.31640625 535.06640625 C-23.33718735 535.97502914 -23.35796844 536.88365204 -23.37937927 537.81980896 C-23.44497672 540.73395946 -23.5038068 543.64820304 -23.5625 546.5625 C-23.60567554 548.53321291 -23.64928951 550.50391626 -23.69335938 552.47460938 C-23.80066843 557.31630988 -23.90190675 562.15810437 -24 567 C-24.66 567 -25.32 567 -26 567 C-25.99214478 568.8097229 -25.99214478 568.8097229 -25.98413086 570.65600586 C-25.96608389 575.11563378 -25.95456911 579.57525846 -25.94506836 584.03491211 C-25.94002744 585.96818585 -25.93319481 587.90145576 -25.92456055 589.8347168 C-25.91248435 592.60726872 -25.90676943 595.37977041 -25.90234375 598.15234375 C-25.89718246 599.02213364 -25.89202118 599.89192352 -25.88670349 600.78807068 C-25.88650815 602.85905814 -25.93791832 604.92994324 -26 607 C-26.33 607.33 -26.66 607.66 -27 608 C-27.14624162 610.05944378 -27.22741837 612.12357232 -27.28125 614.1875 C-27.31863281 615.44304688 -27.35601563 616.69859375 -27.39453125 617.9921875 C-27.43023885 619.32811038 -27.46538818 620.66404828 -27.5 622 C-27.56747481 624.60440136 -27.64121369 627.20834932 -27.71875 629.8125 C-27.74904297 630.97394531 -27.77933594 632.13539063 -27.81054688 633.33203125 C-28 636 -28 636 -29 637 C-29.14794419 639.94363177 -29.23510716 642.86675226 -29.28125 645.8125 C-29.29965942 646.69655518 -29.31806885 647.58061035 -29.33703613 648.49145508 C-29.39598101 651.32756698 -29.44871919 654.16373976 -29.5 657 C-29.56742738 660.72930121 -29.6410958 664.45839932 -29.71875 668.1875 C-29.73232544 669.05415283 -29.74590088 669.92080566 -29.7598877 670.8137207 C-29.88719819 676.88719819 -29.88719819 676.88719819 -31 678 C-31.14794419 680.94363177 -31.23510716 683.86675226 -31.28125 686.8125 C-31.29965942 687.69655518 -31.31806885 688.58061035 -31.33703613 689.49145508 C-31.39598101 692.32756698 -31.44871919 695.16373976 -31.5 698 C-31.56742738 701.72930121 -31.6410958 705.45839932 -31.71875 709.1875 C-31.73232544 710.05415283 -31.74590088 710.92080566 -31.7598877 711.8137207 C-31.88719819 717.88719819 -31.88719819 717.88719819 -33 719 C-33.15655027 720.48638992 -33.25066943 721.97949127 -33.31640625 723.47265625 C-33.35830078 724.37177734 -33.40019531 725.27089844 -33.44335938 726.19726562 C-33.50233398 727.61555664 -33.50233398 727.61555664 -33.5625 729.0625 C-33.60568359 730.01189453 -33.64886719 730.96128906 -33.69335938 731.93945312 C-33.79979276 734.29281353 -33.90181008 736.64628354 -34 739 C-34.66 739 -35.32 739 -36 739 C-36 739.66 -36 740.32 -36 741 C-36.66 741 -37.32 741 -38 741 C-38 741.66 -38 742.32 -38 743 C-38.66 743 -39.32 743 -40 743 C-40 743.66 -40 744.32 -40 745 C-40.66 745 -41.32 745 -42 745 C-42 745.66 -42 746.32 -42 747 C-42.66 747 -43.32 747 -44 747 C-44 747.66 -44 748.32 -44 749 C-44.66 749 -45.32 749 -46 749 C-46 749.66 -46 750.32 -46 751 C-46.66 751 -47.32 751 -48 751 C-48 751.66 -48 752.32 -48 753 C-48.66 753 -49.32 753 -50 753 C-50 753.66 -50 754.32 -50 755 C-50.66 755 -51.32 755 -52 755 C-52 755.66 -52 756.32 -52 757 C-52.66 757 -53.32 757 -54 757 C-54 757.66 -54 758.32 -54 759 C-54.66 759 -55.32 759 -56 759 C-56 759.66 -56 760.32 -56 761 C-56.66 761 -57.32 761 -58 761 C-58 761.66 -58 762.32 -58 763 C-58.66 763 -59.32 763 -60 763 C-60 763.66 -60 764.32 -60 765 C-60.66 765 -61.32 765 -62 765 C-62 765.66 -62 766.32 -62 767 C-62.66 767 -63.32 767 -64 767 C-64 767.66 -64 768.32 -64 769 C-64.66 769 -65.32 769 -66 769 C-65.99214478 770.49164673 -65.99214478 770.49164673 -65.98413086 772.01342773 C-65.96607959 775.69033921 -65.95456754 779.36724675 -65.94506836 783.04418945 C-65.94002843 784.63794614 -65.9331965 786.23169819 -65.92456055 787.82543945 C-65.91248001 790.11150253 -65.90676845 792.39750467 -65.90234375 794.68359375 C-65.89718246 795.40026718 -65.89202118 796.11694061 -65.88670349 796.85533142 C-65.88650737 798.57063672 -65.93807993 800.28581266 -66 802 C-66.33 802.33 -66.66 802.66 -67 803 C-67.15764405 804.77869726 -67.25100677 806.56318476 -67.31640625 808.34765625 C-67.35830078 809.42724609 -67.40019531 810.50683594 -67.44335938 811.61914062 C-67.48267578 812.75544922 -67.52199219 813.89175781 -67.5625 815.0625 C-67.60568359 816.20267578 -67.64886719 817.34285156 -67.69335938 818.51757812 C-67.79982839 821.34492195 -67.90184207 824.17235738 -68 827 C-68.66 827 -69.32 827 -70 827 C-70 838.88 -70 850.76 -70 863 C-70.66 863 -71.32 863 -72 863 C-71.99214478 864.58252563 -71.99214478 864.58252563 -71.98413086 866.19702148 C-71.96608099 870.0975663 -71.95456805 873.9981074 -71.94506836 877.89868164 C-71.9400281 879.58944316 -71.93319595 881.28020029 -71.92456055 882.97094727 C-71.91248143 885.39600707 -71.90676877 887.82100944 -71.90234375 890.24609375 C-71.89718246 891.00651474 -71.89202118 891.76693573 -71.88670349 892.55039978 C-71.88650762 894.3673257 -71.93802723 896.18413127 -72 898 C-72.33 898.33 -72.66 898.66 -73 899 C-73.1474969 901.43445913 -73.23488535 903.84428567 -73.28125 906.28125 C-73.30886414 907.37427429 -73.30886414 907.37427429 -73.33703613 908.48937988 C-73.3959594 910.82616893 -73.44870654 913.16303173 -73.5 915.5 C-73.56745015 918.57307911 -73.64111793 921.64591316 -73.71875 924.71875 C-73.73232544 925.43228638 -73.74590088 926.14582275 -73.7598877 926.88098145 C-73.88719819 931.88719819 -73.88719819 931.88719819 -75 933 C-75.15786308 934.85174706 -75.25107356 936.7090911 -75.31640625 938.56640625 C-75.35830078 939.69111328 -75.40019531 940.81582031 -75.44335938 941.97460938 C-75.50233398 943.75061523 -75.50233398 943.75061523 -75.5625 945.5625 C-75.60568359 946.75037109 -75.64886719 947.93824219 -75.69335938 949.16210938 C-75.79983546 952.10794784 -75.90184841 955.0538743 -76 958 C-76.66 958 -77.32 958 -78 958 C-78 969.55 -78 981.1 -78 993 C-78.66 993 -79.32 993 -80 993 C-79.99214478 994.58252563 -79.99214478 994.58252563 -79.98413086 996.19702148 C-79.96608099 1000.0975663 -79.95456805 1003.9981074 -79.94506836 1007.89868164 C-79.9400281 1009.58944316 -79.93319595 1011.28020029 -79.92456055 1012.97094727 C-79.91248143 1015.39600707 -79.90676877 1017.82100944 -79.90234375 1020.24609375 C-79.89718246 1021.00651474 -79.89202118 1021.76693573 -79.88670349 1022.55039978 C-79.88650762 1024.3673257 -79.93802723 1026.18413127 -80 1028 C-80.33 1028.33 -80.66 1028.66 -81 1029 C-81.14756998 1031.50716838 -81.2349234 1033.99039049 -81.28125 1036.5 C-81.29965942 1037.25087891 -81.31806885 1038.00175781 -81.33703613 1038.77539062 C-81.39596304 1041.18351187 -81.44870868 1043.59170471 -81.5 1046 C-81.5674463 1049.16682444 -81.6411142 1052.33341084 -81.71875 1055.5 C-81.73232544 1056.23541016 -81.74590088 1056.97082031 -81.7598877 1057.72851562 C-81.88719819 1062.88719819 -81.88719819 1062.88719819 -83 1064 C-83.14552732 1065.76733176 -83.22722469 1067.54000994 -83.28125 1069.3125 C-83.31863281 1070.38757812 -83.35601563 1071.46265625 -83.39453125 1072.5703125 C-83.44673828 1074.26800781 -83.44673828 1074.26800781 -83.5 1076 C-83.56855494 1078.22930507 -83.6412424 1080.45848824 -83.71875 1082.6875 C-83.74904297 1083.68136719 -83.77933594 1084.67523437 -83.81054688 1085.69921875 C-84 1088 -84 1088 -85 1089 C-85.15996166 1091.59153107 -85.25938697 1094.1595202 -85.31640625 1096.75390625 C-85.3475779 1097.91707619 -85.3475779 1097.91707619 -85.37937927 1099.10374451 C-85.44495802 1101.58990308 -85.50379799 1104.07617045 -85.5625 1106.5625 C-85.60567733 1108.24415204 -85.64929136 1109.92579294 -85.69335938 1111.60742188 C-85.80064779 1115.73816871 -85.90189132 1119.86902536 -86 1124 C-86.66 1124 -87.32 1124 -88 1124 C-88 1126.97 -88 1129.94 -88 1133 C-202.18 1133 -316.36 1133 -434 1133 C-434 1130.36 -434 1127.72 -434 1125 C-433.34 1125 -432.68 1125 -432 1125 C-432 1123.02 -432 1121.04 -432 1119 C-431.34 1119 -430.68 1119 -430 1119 C-430 1117.68 -430 1116.36 -430 1115 C-429.34 1115 -428.68 1115 -428 1115 C-428 1113.02 -428 1111.04 -428 1109 C-427.34 1109 -426.68 1109 -426 1109 C-426 1107.02 -426 1105.04 -426 1103 C-425.34 1103 -424.68 1103 -424 1103 C-423.8453125 1102.0409375 -423.8453125 1102.0409375 -423.6875 1101.0625 C-422.76096927 1096.93522674 -421.38339371 1092.99357051 -420 1089 C-419.34 1089 -418.68 1089 -418 1089 C-418 1087.02 -418 1085.04 -418 1083 C-417.34 1083 -416.68 1083 -416 1083 C-416 1081.02 -416 1079.04 -416 1077 C-415.34 1077 -414.68 1077 -414 1077 C-414 1075.68 -414 1074.36 -414 1073 C-413.34 1073 -412.68 1073 -412 1073 C-412 1071.02 -412 1069.04 -412 1067 C-411.34 1067 -410.68 1067 -410 1067 C-409.7834375 1065.9171875 -409.7834375 1065.9171875 -409.5625 1064.8125 C-409.04166667 1062.20833333 -408.52083333 1059.60416667 -408 1057 C-407.34 1057 -406.68 1057 -406 1057 C-406 1055.68 -406 1054.36 -406 1053 C-405.34 1053 -404.68 1053 -404 1053 C-404 1051.02 -404 1049.04 -404 1047 C-403.34 1047 -402.68 1047 -402 1047 C-402 1045.02 -402 1043.04 -402 1041 C-401.34 1041 -400.68 1041 -400 1041 C-399.8453125 1040.0409375 -399.8453125 1040.0409375 -399.6875 1039.0625 C-398.76096927 1034.93522674 -397.38339371 1030.99357051 -396 1027 C-395.34 1027 -394.68 1027 -394 1027 C-394 1025.02 -394 1023.04 -394 1021 C-393.34 1021 -392.68 1021 -392 1021 C-392 1019.02 -392 1017.04 -392 1015 C-391.34 1015 -390.68 1015 -390 1015 C-390 1013.68 -390 1012.36 -390 1011 C-389.34 1011 -388.68 1011 -388 1011 C-388 1009.02 -388 1007.04 -388 1005 C-387.34 1005 -386.68 1005 -386 1005 C-385.855625 1004.278125 -385.71125 1003.55625 -385.5625 1002.8125 C-385.04166667 1000.20833333 -384.52083333 997.60416667 -384 995 C-383.34 995 -382.68 995 -382 995 C-382 993.68 -382 992.36 -382 991 C-381.34 991 -380.68 991 -380 991 C-380 989.02 -380 987.04 -380 985 C-379.34 985 -378.68 985 -378 985 C-378 983.02 -378 981.04 -378 979 C-377.34 979 -376.68 979 -376 979 C-376.04125 978.278125 -376.0825 977.55625 -376.125 976.8125 C-375.99078695 973.79270631 -375.24829381 971.73064271 -374 969 C-373.34 969 -372.68 969 -372 969 C-371.855625 968.278125 -371.71125 967.55625 -371.5625 966.8125 C-371.04166667 964.20833333 -370.52083333 961.60416667 -370 959 C-369.34 959 -368.68 959 -368 959 C-368 957.02 -368 955.04 -368 953 C-367.34 953 -366.68 953 -366 953 C-366 951.68 -366 950.36 -366 949 C-365.34 949 -364.68 949 -364 949 C-364 947.02 -364 945.04 -364 943 C-363.34 943 -362.68 943 -362 943 C-362.04125 942.278125 -362.0825 941.55625 -362.125 940.8125 C-361.99078695 937.79270631 -361.24829381 935.73064271 -360 933 C-359.34 933 -358.68 933 -358 933 C-358 931.68 -358 930.36 -358 929 C-357.34 929 -356.68 929 -356 929 C-356 927.02 -356 925.04 -356 923 C-355.34 923 -354.68 923 -354 923 C-354 921.02 -354 919.04 -354 917 C-353.34 917 -352.68 917 -352 917 C-352.04125 916.278125 -352.0825 915.55625 -352.125 914.8125 C-351.99078695 911.79270631 -351.24829381 909.73064271 -350 907 C-349.34 907 -348.68 907 -348 907 C-348.04125 906.278125 -348.0825 905.55625 -348.125 904.8125 C-347.99078695 901.79270631 -347.24829381 899.73064271 -346 897 C-345.34 897 -344.68 897 -344 897 C-344 895.02 -344 893.04 -344 891 C-343.34 891 -342.68 891 -342 891 C-342 889.68 -342 888.36 -342 887 C-341.34 887 -340.68 887 -340 887 C-340 885.02 -340 883.04 -340 881 C-339.34 881 -338.68 881 -338 881 C-338 879.02 -338 877.04 -338 875 C-337.34 875 -336.68 875 -336 875 C-336 873.68 -336 872.36 -336 871 C-335.34 871 -334.68 871 -334 871 C-333.855625 870.278125 -333.71125 869.55625 -333.5625 868.8125 C-333.04166667 866.20833333 -332.52083333 863.60416667 -332 861 C-331.34 861 -330.68 861 -330 861 C-330 859.02 -330 857.04 -330 855 C-329.34 855 -328.68 855 -328 855 C-328 853.02 -328 851.04 -328 849 C-327.34 849 -326.68 849 -326 849 C-326 847.68 -326 846.36 -326 845 C-325.34 845 -324.68 845 -324 845 C-324.04125 844.278125 -324.0825 843.55625 -324.125 842.8125 C-323.99078695 839.79270631 -323.24829381 837.73064271 -322 835 C-321.34 835 -320.68 835 -320 835 C-320 833.02 -320 831.04 -320 829 C-319.34 829 -318.68 829 -318 829 C-318 827.68 -318 826.36 -318 825 C-317.34 825 -316.68 825 -316 825 C-316 823.02 -316 821.04 -316 819 C-315.34 819 -314.68 819 -314 819 C-314 817.02 -314 815.04 -314 813 C-313.34 813 -312.68 813 -312 813 C-311.855625 812.278125 -311.71125 811.55625 -311.5625 810.8125 C-311.04166667 808.20833333 -310.52083333 805.60416667 -310 803 C-309.34 803 -308.68 803 -308 803 C-308 801.68 -308 800.36 -308 799 C-307.34 799 -306.68 799 -306 799 C-306 797.02 -306 795.04 -306 793 C-305.34 793 -304.68 793 -304 793 C-304 791.02 -304 789.04 -304 787 C-303.34 787 -302.68 787 -302 787 C-302 785.68 -302 784.36 -302 783 C-301.34 783 -300.68 783 -300 783 C-300 781.02 -300 779.04 -300 777 C-299.34 777 -298.68 777 -298 777 C-298.04125 776.278125 -298.0825 775.55625 -298.125 774.8125 C-297.99078695 771.79270631 -297.24829381 769.73064271 -296 767 C-295.34 767 -294.68 767 -294 767 C-294 765.68 -294 764.36 -294 763 C-293.34 763 -292.68 763 -292 763 C-292 761.02 -292 759.04 -292 757 C-291.34 757 -290.68 757 -290 757 C-290 755.02 -290 753.04 -290 751 C-289.34 751 -288.68 751 -288 751 C-288.04125 750.278125 -288.0825 749.55625 -288.125 748.8125 C-287.99078695 745.79270631 -287.24829381 743.73064271 -286 741 C-285.34 741 -284.68 741 -284 741 C-284 739.68 -284 738.36 -284 737 C-283.34 737 -282.68 737 -282 737 C-282 735.02 -282 733.04 -282 731 C-281.34 731 -280.68 731 -280 731 C-280 729.02 -280 727.04 -280 725 C-279.34 725 -278.68 725 -278 725 C-278 723.68 -278 722.36 -278 721 C-277.34 721 -276.68 721 -276 721 C-276 719.02 -276 717.04 -276 715 C-275.34 715 -274.68 715 -274 715 C-274.04125 714.278125 -274.0825 713.55625 -274.125 712.8125 C-273.99078695 709.79270631 -273.24829381 707.73064271 -272 705 C-271.34 705 -270.68 705 -270 705 C-270 703.68 -270 702.36 -270 701 C-269.34 701 -268.68 701 -268 701 C-268 699.02 -268 697.04 -268 695 C-267.34 695 -266.68 695 -266 695 C-266 693.02 -266 691.04 -266 689 C-265.34 689 -264.68 689 -264 689 C-264.04125 688.278125 -264.0825 687.55625 -264.125 686.8125 C-263.99078695 683.79270631 -263.24829381 681.73064271 -262 679 C-261.34 679 -260.68 679 -260 679 C-260.04125 678.278125 -260.0825 677.55625 -260.125 676.8125 C-259.99078695 673.79270631 -259.24829381 671.73064271 -258 669 C-257.34 669 -256.68 669 -256 669 C-256 667.02 -256 665.04 -256 663 C-255.34 663 -254.68 663 -254 663 C-254 661.68 -254 660.36 -254 659 C-253.34 659 -252.68 659 -252 659 C-252 657.02 -252 655.04 -252 653 C-251.34 653 -250.68 653 -250 653 C-250 651.02 -250 649.04 -250 647 C-249.34 647 -248.68 647 -248 647 C-247.8453125 646.0409375 -247.8453125 646.0409375 -247.6875 645.0625 C-246.76096927 640.93522674 -245.38339371 636.99357051 -244 633 C-243.34 633 -242.68 633 -242 633 C-242 631.02 -242 629.04 -242 627 C-241.34 627 -240.68 627 -240 627 C-240 625.02 -240 623.04 -240 621 C-239.34 621 -238.68 621 -238 621 C-238 619.68 -238 618.36 -238 617 C-237.34 617 -236.68 617 -236 617 C-236 615.02 -236 613.04 -236 611 C-235.34 611 -234.68 611 -234 611 C-233.855625 610.278125 -233.71125 609.55625 -233.5625 608.8125 C-233.04166667 606.20833333 -232.52083333 603.60416667 -232 601 C-231.34 601 -230.68 601 -230 601 C-230 599.68 -230 598.36 -230 597 C-229.34 597 -228.68 597 -228 597 C-228 595.02 -228 593.04 -228 591 C-227.34 591 -226.68 591 -226 591 C-226 589.02 -226 587.04 -226 585 C-225.34 585 -224.68 585 -224 585 C-223.8453125 584.0409375 -223.8453125 584.0409375 -223.6875 583.0625 C-222.76096927 578.93522674 -221.38339371 574.99357051 -220 571 C-219.34 571 -218.68 571 -218 571 C-218 569.02 -218 567.04 -218 565 C-217.34 565 -216.68 565 -216 565 C-216 563.02 -216 561.04 -216 559 C-215.34 559 -214.68 559 -214 559 C-214 557.68 -214 556.36 -214 555 C-213.34 555 -212.68 555 -212 555 C-212 553.02 -212 551.04 -212 549 C-211.34 549 -210.68 549 -210 549 C-209.855625 548.278125 -209.71125 547.55625 -209.5625 546.8125 C-209.04166667 544.20833333 -208.52083333 541.60416667 -208 539 C-207.34 539 -206.68 539 -206 539 C-206 537.68 -206 536.36 -206 535 C-205.34 535 -204.68 535 -204 535 C-204 533.02 -204 531.04 -204 529 C-203.34 529 -202.68 529 -202 529 C-202 527.02 -202 525.04 -202 523 C-201.34 523 -200.68 523 -200 523 C-200.04125 522.278125 -200.0825 521.55625 -200.125 520.8125 C-199.99078695 517.79270631 -199.24829381 515.73064271 -198 513 C-197.34 513 -196.68 513 -196 513 C-195.855625 512.278125 -195.71125 511.55625 -195.5625 510.8125 C-194.78125 506.90625 -194.78125 506.90625 -194 503 C-193.34 503 -192.68 503 -192 503 C-192 501.02 -192 499.04 -192 497 C-191.34 497 -190.68 497 -190 497 C-190 495.68 -190 494.36 -190 493 C-189.34 493 -188.68 493 -188 493 C-188 491.02 -188 489.04 -188 487 C-187.34 487 -186.68 487 -186 487 C-186.04125 486.278125 -186.0825 485.55625 -186.125 484.8125 C-185.99078695 481.79270631 -185.24829381 479.73064271 -184 477 C-183.34 477 -182.68 477 -182 477 C-182 475.68 -182 474.36 -182 473 C-181.34 473 -180.68 473 -180 473 C-180 471.02 -180 469.04 -180 467 C-179.34 467 -178.68 467 -178 467 C-178 465.02 -178 463.04 -178 461 C-177.34 461 -176.68 461 -176 461 C-176.061875 459.9171875 -176.061875 459.9171875 -176.125 458.8125 C-175.99078695 455.79270631 -175.24829381 453.73064271 -174 451 C-173.34 451 -172.68 451 -172 451 C-172.061875 449.9171875 -172.061875 449.9171875 -172.125 448.8125 C-171.99078695 445.79270631 -171.24829381 443.73064271 -170 441 C-169.34 441 -168.68 441 -168 441 C-168 439.02 -168 437.04 -168 435 C-167.34 435 -166.68 435 -166 435 C-166 433.68 -166 432.36 -166 431 C-165.34 431 -164.68 431 -164 431 C-164 429.02 -164 427.04 -164 425 C-163.34 425 -162.68 425 -162 425 C-162 423.02 -162 421.04 -162 419 C-161.34 419 -160.68 419 -160 419 C-160 417.68 -160 416.36 -160 415 C-159.34 415 -158.68 415 -158 415 C-157.855625 414.278125 -157.71125 413.55625 -157.5625 412.8125 C-157.04166667 410.20833333 -156.52083333 407.60416667 -156 405 C-155.34 405 -154.68 405 -154 405 C-154 403.02 -154 401.04 -154 399 C-153.34 399 -152.68 399 -152 399 C-152 397.02 -152 395.04 -152 393 C-151.34 393 -150.68 393 -150 393 C-150 391.68 -150 390.36 -150 389 C-149.34 389 -148.68 389 -148 389 C-148.061875 387.9171875 -148.061875 387.9171875 -148.125 386.8125 C-147.99078695 383.79270631 -147.24829381 381.73064271 -146 379 C-145.34 379 -144.68 379 -144 379 C-144 377.02 -144 375.04 -144 373 C-143.34 373 -142.68 373 -142 373 C-142 371.68 -142 370.36 -142 369 C-141.34 369 -140.68 369 -140 369 C-140 367.02 -140 365.04 -140 363 C-139.34 363 -138.68 363 -138 363 C-138 361.02 -138 359.04 -138 357 C-137.34 357 -136.68 357 -136 357 C-135.855625 356.278125 -135.71125 355.55625 -135.5625 354.8125 C-134.78125 350.90625 -134.78125 350.90625 -134 347 C-133.34 347 -132.68 347 -132 347 C-132 345.68 -132 344.36 -132 343 C-131.34 343 -130.68 343 -130 343 C-130 341.02 -130 339.04 -130 337 C-129.34 337 -128.68 337 -128 337 C-128 335.02 -128 333.04 -128 331 C-127.34 331 -126.68 331 -126 331 C-126 329.68 -126 328.36 -126 327 C-125.34 327 -124.68 327 -124 327 C-124 325.02 -124 323.04 -124 321 C-123.34 321 -122.68 321 -122 321 C-122.061875 319.9171875 -122.061875 319.9171875 -122.125 318.8125 C-121.99078695 315.79270631 -121.24829381 313.73064271 -120 311 C-119.34 311 -118.68 311 -118 311 C-118 309.68 -118 308.36 -118 307 C-117.34 307 -116.68 307 -116 307 C-116 305.02 -116 303.04 -116 301 C-115.34 301 -114.68 301 -114 301 C-114 299.02 -114 297.04 -114 295 C-113.34 295 -112.68 295 -112 295 C-112.061875 293.9171875 -112.061875 293.9171875 -112.125 292.8125 C-111.99078695 289.79270631 -111.24829381 287.73064271 -110 285 C-109.34 285 -108.68 285 -108 285 C-108 283.68 -108 282.36 -108 281 C-107.34 281 -106.68 281 -106 281 C-106 279.02 -106 277.04 -106 275 C-105.34 275 -104.68 275 -104 275 C-104 273.02 -104 271.04 -104 269 C-103.34 269 -102.68 269 -102 269 C-102 267.68 -102 266.36 -102 265 C-101.34 265 -100.68 265 -100 265 C-100 263.02 -100 261.04 -100 259 C-99.34 259 -98.68 259 -98 259 C-98.061875 257.9171875 -98.061875 257.9171875 -98.125 256.8125 C-97.99078695 253.79270631 -97.24829381 251.73064271 -96 249 C-95.34 249 -94.68 249 -94 249 C-94 247.68 -94 246.36 -94 245 C-93.34 245 -92.68 245 -92 245 C-92 243.02 -92 241.04 -92 239 C-91.34 239 -90.68 239 -90 239 C-90 237.02 -90 235.04 -90 233 C-89.34 233 -88.68 233 -88 233 C-88.04125 232.278125 -88.0825 231.55625 -88.125 230.8125 C-87.99078695 227.79270631 -87.24829381 225.73064271 -86 223 C-85.34 223 -84.68 223 -84 223 C-84.04125 222.278125 -84.0825 221.55625 -84.125 220.8125 C-83.99078695 217.79270631 -83.24829381 215.73064271 -82 213 C-81.34 213 -80.68 213 -80 213 C-80 211.02 -80 209.04 -80 207 C-79.34 207 -78.68 207 -78 207 C-78 205.68 -78 204.36 -78 203 C-77.34 203 -76.68 203 -76 203 C-76 201.02 -76 199.04 -76 197 C-75.34 197 -74.68 197 -74 197 C-74 195.02 -74 193.04 -74 191 C-73.34 191 -72.68 191 -72 191 C-71.896875 190.360625 -71.79375 189.72125 -71.6875 189.0625 C-70.76096927 184.93522674 -69.38339371 180.99357051 -68 177 C-67.34 177 -66.68 177 -66 177 C-66 175.02 -66 173.04 -66 171 C-65.34 171 -64.68 171 -64 171 C-64 169.02 -64 167.04 -64 165 C-63.34 165 -62.68 165 -62 165 C-62 163.68 -62 162.36 -62 161 C-61.34 161 -60.68 161 -60 161 C-60 159.02 -60 157.04 -60 155 C-59.34 155 -58.68 155 -58 155 C-57.855625 154.278125 -57.71125 153.55625 -57.5625 152.8125 C-57.04166667 150.20833333 -56.52083333 147.60416667 -56 145 C-55.34 145 -54.68 145 -54 145 C-54 143.68 -54 142.36 -54 141 C-53.34 141 -52.68 141 -52 141 C-52 139.02 -52 137.04 -52 135 C-51.34 135 -50.68 135 -50 135 C-50 133.02 -50 131.04 -50 129 C-49.34 129 -48.68 129 -48 129 C-47.896875 128.360625 -47.79375 127.72125 -47.6875 127.0625 C-46.76096927 122.93522674 -45.38339371 118.99357051 -44 115 C-43.34 115 -42.68 115 -42 115 C-42 113.02 -42 111.04 -42 109 C-41.34 109 -40.68 109 -40 109 C-40 107.02 -40 105.04 -40 103 C-39.34 103 -38.68 103 -38 103 C-38 101.68 -38 100.36 -38 99 C-37.34 99 -36.68 99 -36 99 C-36 97.02 -36 95.04 -36 93 C-35.34 93 -34.68 93 -34 93 C-33.855625 92.278125 -33.71125 91.55625 -33.5625 90.8125 C-33.04166667 88.20833333 -32.52083333 85.60416667 -32 83 C-31.34 83 -30.68 83 -30 83 C-30 81.68 -30 80.36 -30 79 C-29.34 79 -28.68 79 -28 79 C-28 77.02 -28 75.04 -28 73 C-27.34 73 -26.68 73 -26 73 C-26 71.02 -26 69.04 -26 67 C-25.34 67 -24.68 67 -24 67 C-24.061875 65.9171875 -24.061875 65.9171875 -24.125 64.8125 C-23.99078695 61.79270631 -23.24829381 59.73064271 -22 57 C-21.34 57 -20.68 57 -20 57 C-19.855625 56.278125 -19.71125 55.55625 -19.5625 54.8125 C-19.04166667 52.20833333 -18.52083333 49.60416667 -18 47 C-17.34 47 -16.68 47 -16 47 C-16 45.02 -16 43.04 -16 41 C-15.34 41 -14.68 41 -14 41 C-14 39.68 -14 38.36 -14 37 C-13.34 37 -12.68 37 -12 37 C-12 35.02 -12 33.04 -12 31 C-11.34 31 -10.68 31 -10 31 C-10.061875 29.9171875 -10.061875 29.9171875 -10.125 28.8125 C-9.99078695 25.79270631 -9.24829381 23.73064271 -8 21 C-7.34 21 -6.68 21 -6 21 C-6 19.68 -6 18.36 -6 17 C-5.34 17 -4.68 17 -4 17 C-4 15.02 -4 13.04 -4 11 C-3.34 11 -2.68 11 -2 11 C-2 9.02 -2 7.04 -2 5 C-1.34 5 -0.68 5 0 5 C0 3.35 0 1.7 0 0 Z " fill="#87AD45" transform="translate(1021,0)"/>
<path d="M0 0 C0.80664093 0.41378906 0.80664093 0.41378906 1.62957764 0.8359375 C0.96957764 0.8359375 0.30957764 0.8359375 -0.37042236 0.8359375 C-0.36256714 2.32758423 -0.36256714 2.32758423 -0.35455322 3.84936523 C-0.33650195 7.52627671 -0.3249899 11.20318425 -0.31549072 14.88012695 C-0.31045079 16.47388364 -0.30361887 18.06763569 -0.29498291 19.66137695 C-0.28290238 21.94744003 -0.27719081 24.23344217 -0.27276611 26.51953125 C-0.26760483 27.23620468 -0.26244354 27.95287811 -0.25712585 28.69126892 C-0.25692973 30.40657422 -0.30850229 32.12175016 -0.37042236 33.8359375 C-0.70042236 34.1659375 -1.03042236 34.4959375 -1.37042236 34.8359375 C-1.52806641 36.61463476 -1.62142913 38.39912226 -1.68682861 40.18359375 C-1.72872314 41.26318359 -1.77061768 42.34277344 -1.81378174 43.45507812 C-1.87275635 45.15954102 -1.87275635 45.15954102 -1.93292236 46.8984375 C-1.97610596 48.03861328 -2.01928955 49.17878906 -2.06378174 50.35351562 C-2.17025075 53.18085945 -2.27226444 56.00829488 -2.37042236 58.8359375 C-3.03042236 58.8359375 -3.69042236 58.8359375 -4.37042236 58.8359375 C-4.37042236 70.7159375 -4.37042236 82.5959375 -4.37042236 94.8359375 C-5.03042236 94.8359375 -5.69042236 94.8359375 -6.37042236 94.8359375 C-6.36256714 96.41846313 -6.36256714 96.41846313 -6.35455322 98.03295898 C-6.33650336 101.9335038 -6.32499042 105.8340449 -6.31549072 109.73461914 C-6.31045047 111.42538066 -6.30361831 113.11613779 -6.29498291 114.80688477 C-6.2829038 117.23194457 -6.27719113 119.65694694 -6.27276611 122.08203125 C-6.26760483 122.84245224 -6.26244354 123.60287323 -6.25712585 124.38633728 C-6.25692999 126.2032632 -6.3084496 128.02006877 -6.37042236 129.8359375 C-6.70042236 130.1659375 -7.03042236 130.4959375 -7.37042236 130.8359375 C-7.51791926 133.27039663 -7.60530772 135.68022317 -7.65167236 138.1171875 C-7.6792865 139.21021179 -7.6792865 139.21021179 -7.7074585 140.32531738 C-7.76638176 142.66210643 -7.81912891 144.99896923 -7.87042236 147.3359375 C-7.93787251 150.40901661 -8.0115403 153.48185066 -8.08917236 156.5546875 C-8.1027478 157.26822388 -8.11632324 157.98176025 -8.13031006 158.71691895 C-8.25762055 163.72313569 -8.25762055 163.72313569 -9.37042236 164.8359375 C-9.52828544 166.68768456 -9.62149592 168.5450286 -9.68682861 170.40234375 C-9.72872314 171.52705078 -9.77061768 172.65175781 -9.81378174 173.81054688 C-9.87275635 175.58655273 -9.87275635 175.58655273 -9.93292236 177.3984375 C-9.97610596 178.58630859 -10.01928955 179.77417969 -10.06378174 180.99804688 C-10.17025783 183.94388534 -10.27227077 186.8898118 -10.37042236 189.8359375 C-11.03042236 189.8359375 -11.69042236 189.8359375 -12.37042236 189.8359375 C-12.37042236 201.3859375 -12.37042236 212.9359375 -12.37042236 224.8359375 C-13.03042236 224.8359375 -13.69042236 224.8359375 -14.37042236 224.8359375 C-14.36256714 226.41846313 -14.36256714 226.41846313 -14.35455322 228.03295898 C-14.33650336 231.9335038 -14.32499042 235.8340449 -14.31549072 239.73461914 C-14.31045047 241.42538066 -14.30361831 243.11613779 -14.29498291 244.80688477 C-14.2829038 247.23194457 -14.27719113 249.65694694 -14.27276611 252.08203125 C-14.26760483 252.84245224 -14.26244354 253.60287323 -14.25712585 254.38633728 C-14.25692999 256.2032632 -14.3084496 258.02006877 -14.37042236 259.8359375 C-14.70042236 260.1659375 -15.03042236 260.4959375 -15.37042236 260.8359375 C-15.51799235 263.34310588 -15.60534576 265.82632799 -15.65167236 268.3359375 C-15.6792865 269.46225586 -15.6792865 269.46225586 -15.7074585 270.61132812 C-15.7663854 273.01944937 -15.81913104 275.42764221 -15.87042236 277.8359375 C-15.93786866 281.00276194 -16.01153657 284.16934834 -16.08917236 287.3359375 C-16.1027478 288.07134766 -16.11632324 288.80675781 -16.13031006 289.56445312 C-16.25762055 294.72313569 -16.25762055 294.72313569 -17.37042236 295.8359375 C-17.51594968 297.60326926 -17.59764705 299.37594744 -17.65167236 301.1484375 C-17.68905518 302.22351562 -17.72643799 303.29859375 -17.76495361 304.40625 C-17.81716064 306.10394531 -17.81716064 306.10394531 -17.87042236 307.8359375 C-17.9389773 310.06524257 -18.01166476 312.29442574 -18.08917236 314.5234375 C-18.11946533 315.51730469 -18.1497583 316.51117187 -18.18096924 317.53515625 C-18.37042236 319.8359375 -18.37042236 319.8359375 -19.37042236 320.8359375 C-19.53038402 323.42746857 -19.62980933 325.9954577 -19.68682861 328.58984375 C-19.71800026 329.75301369 -19.71800026 329.75301369 -19.74980164 330.93968201 C-19.81538038 333.42584058 -19.87422036 335.91210795 -19.93292236 338.3984375 C-19.9760997 340.08008954 -20.01971372 341.76173044 -20.06378174 343.44335938 C-20.17107015 347.57410621 -20.27231369 351.70496286 -20.37042236 355.8359375 C-21.03042236 355.8359375 -21.69042236 355.8359375 -22.37042236 355.8359375 C-22.37042236 358.8059375 -22.37042236 361.7759375 -22.37042236 364.8359375 C-136.55042236 364.8359375 -250.73042236 364.8359375 -368.37042236 364.8359375 C-368.37042236 363.8459375 -368.37042236 362.8559375 -368.37042236 361.8359375 C-367.38042236 361.8359375 -366.39042236 361.8359375 -365.37042236 361.8359375 C-365.37042236 361.1759375 -365.37042236 360.5159375 -365.37042236 359.8359375 C-364.71042236 359.8359375 -364.05042236 359.8359375 -363.37042236 359.8359375 C-363.08167236 359.2171875 -362.79292236 358.5984375 -362.49542236 357.9609375 C-361.37042236 355.8359375 -361.37042236 355.8359375 -359.37042236 353.8359375 C-358.38042236 353.8359375 -357.39042236 353.8359375 -356.37042236 353.8359375 C-356.37042236 353.1759375 -356.37042236 352.5159375 -356.37042236 351.8359375 C-355.71042236 351.8359375 -355.05042236 351.8359375 -354.37042236 351.8359375 C-354.37042236 351.1759375 -354.37042236 350.5159375 -354.37042236 349.8359375 C-353.71042236 349.8359375 -353.05042236 349.8359375 -352.37042236 349.8359375 C-352.37042236 349.1759375 -352.37042236 348.5159375 -352.37042236 347.8359375 C-351.71042236 347.8359375 -351.05042236 347.8359375 -350.37042236 347.8359375 C-350.37042236 347.1759375 -350.37042236 346.5159375 -350.37042236 345.8359375 C-349.71042236 345.8359375 -349.05042236 345.8359375 -348.37042236 345.8359375 C-348.37042236 345.1759375 -348.37042236 344.5159375 -348.37042236 343.8359375 C-347.71042236 343.8359375 -347.05042236 343.8359375 -346.37042236 343.8359375 C-346.37042236 343.1759375 -346.37042236 342.5159375 -346.37042236 341.8359375 C-345.71042236 341.8359375 -345.05042236 341.8359375 -344.37042236 341.8359375 C-344.37042236 341.1759375 -344.37042236 340.5159375 -344.37042236 339.8359375 C-343.71042236 339.8359375 -343.05042236 339.8359375 -342.37042236 339.8359375 C-342.37042236 339.1759375 -342.37042236 338.5159375 -342.37042236 337.8359375 C-341.71042236 337.8359375 -341.05042236 337.8359375 -340.37042236 337.8359375 C-340.37042236 337.1759375 -340.37042236 336.5159375 -340.37042236 335.8359375 C-339.71042236 335.8359375 -339.05042236 335.8359375 -338.37042236 335.8359375 C-338.37042236 335.1759375 -338.37042236 334.5159375 -338.37042236 333.8359375 C-337.71042236 333.8359375 -337.05042236 333.8359375 -336.37042236 333.8359375 C-336.37042236 333.1759375 -336.37042236 332.5159375 -336.37042236 331.8359375 C-335.71042236 331.8359375 -335.05042236 331.8359375 -334.37042236 331.8359375 C-334.37042236 331.1759375 -334.37042236 330.5159375 -334.37042236 329.8359375 C-333.71042236 329.8359375 -333.05042236 329.8359375 -332.37042236 329.8359375 C-332.37042236 329.1759375 -332.37042236 328.5159375 -332.37042236 327.8359375 C-331.71042236 327.8359375 -331.05042236 327.8359375 -330.37042236 327.8359375 C-330.37042236 327.1759375 -330.37042236 326.5159375 -330.37042236 325.8359375 C-329.71042236 325.8359375 -329.05042236 325.8359375 -328.37042236 325.8359375 C-328.37042236 325.1759375 -328.37042236 324.5159375 -328.37042236 323.8359375 C-327.71042236 323.8359375 -327.05042236 323.8359375 -326.37042236 323.8359375 C-326.37042236 323.1759375 -326.37042236 322.5159375 -326.37042236 321.8359375 C-325.71042236 321.8359375 -325.05042236 321.8359375 -324.37042236 321.8359375 C-324.37042236 321.1759375 -324.37042236 320.5159375 -324.37042236 319.8359375 C-323.71042236 319.8359375 -323.05042236 319.8359375 -322.37042236 319.8359375 C-322.37042236 319.1759375 -322.37042236 318.5159375 -322.37042236 317.8359375 C-321.71042236 317.8359375 -321.05042236 317.8359375 -320.37042236 317.8359375 C-320.37042236 317.1759375 -320.37042236 316.5159375 -320.37042236 315.8359375 C-319.71042236 315.8359375 -319.05042236 315.8359375 -318.37042236 315.8359375 C-318.11260986 315.25313522 -317.85479736 314.67033295 -317.58917236 314.06987 C-316.26665438 311.64573388 -314.8227672 310.04093975 -312.87042236 308.09301758 C-312.15628174 307.37580032 -311.44214111 306.65858307 -310.70635986 305.91963196 C-309.93550049 305.1559581 -309.16464111 304.39228424 -308.37042236 303.60546875 C-307.57893799 302.8144426 -306.78745361 302.02341644 -305.97198486 301.2084198 C-304.29987086 299.53932438 -302.62532957 297.87265761 -300.94854736 296.20825195 C-298.37505229 293.65303454 -295.80967031 291.08988437 -293.24542236 288.52539062 C-291.62089402 286.90577678 -289.99590952 285.28662031 -288.37042236 283.66796875 C-287.2141333 282.51334892 -287.2141333 282.51334892 -286.03448486 281.33540344 C-285.32034424 280.62764267 -284.60620361 279.9198819 -283.87042236 279.19067383 C-282.92682861 278.25279778 -282.92682861 278.25279778 -281.96417236 277.29597473 C-280.37042236 275.8359375 -280.37042236 275.8359375 -278.37042236 274.8359375 C-278.04042236 273.8459375 -277.71042236 272.8559375 -277.37042236 271.8359375 C-275.132366 269.9421975 -272.77862047 268.26970069 -270.40167236 266.5546875 C-268.10832113 264.91621205 -268.10832113 264.91621205 -267.37042236 261.8359375 C-265.73075026 260.46954408 -264.05932109 259.1409956 -262.37042236 257.8359375 C-260.68684075 256.18400215 -259.0267801 254.51489563 -257.37042236 252.8359375 C-255.88170361 251.34549009 -254.39202435 249.85600178 -252.90167236 248.3671875 C-252.08311768 247.54863281 -251.26456299 246.73007812 -250.42120361 245.88671875 C-238.37042236 233.8359375 -238.37042236 233.8359375 -235.91851807 231.38623047 C-233.31791743 228.78338729 -230.72453934 226.17351128 -228.13214111 223.5625 C-226.62383007 222.04680503 -225.11503187 220.53159687 -223.60601807 219.01660156 C-222.57841666 217.9839764 -221.55171522 216.95045482 -220.52593994 215.91601562 C-215.20284761 210.54934042 -209.86225071 205.27421245 -204.11090088 200.36035156 C-200.91189481 197.55847278 -198.0045781 194.47562895 -195.06573486 191.40429688 C-193.86946771 190.17914259 -192.62369926 189.00270875 -191.37042236 187.8359375 C-190.71042236 187.8359375 -190.05042236 187.8359375 -189.37042236 187.8359375 C-188.71042236 186.5159375 -188.05042236 185.1959375 -187.37042236 183.8359375 C-186.71042236 183.8359375 -186.05042236 183.8359375 -185.37042236 183.8359375 C-185.01464111 182.99337402 -185.01464111 182.99337402 -184.65167236 182.13378906 C-183.07722879 179.31011092 -181.15357691 177.35978908 -178.87042236 175.0703125 C-177.98354736 174.18085937 -177.09667236 173.29140625 -176.18292236 172.375 C-175.25479736 171.45460938 -174.32667236 170.53421875 -173.37042236 169.5859375 C-172.44229736 168.65007812 -171.51417236 167.71421875 -170.55792236 166.75 C-169.67104736 165.86570312 -168.78417236 164.98140625 -167.87042236 164.0703125 C-167.05573486 163.25788086 -166.24104736 162.44544922 -165.40167236 161.60839844 C-163.37042236 159.8359375 -163.37042236 159.8359375 -161.37042236 159.8359375 C-161.12292236 159.2171875 -160.87542236 158.5984375 -160.62042236 157.9609375 C-159.16413597 155.48525063 -157.9922973 154.88468748 -155.37042236 153.8359375 C-155.37042236 153.1759375 -155.37042236 152.5159375 -155.37042236 151.8359375 C-154.71042236 151.8359375 -154.05042236 151.8359375 -153.37042236 151.8359375 C-153.37042236 151.1759375 -153.37042236 150.5159375 -153.37042236 149.8359375 C-152.71042236 149.8359375 -152.05042236 149.8359375 -151.37042236 149.8359375 C-150.71042236 148.5159375 -150.05042236 147.1959375 -149.37042236 145.8359375 C-148.71042236 145.8359375 -148.05042236 145.8359375 -147.37042236 145.8359375 C-147.37042236 145.1759375 -147.37042236 144.5159375 -147.37042236 143.8359375 C-146.71042236 143.8359375 -146.05042236 143.8359375 -145.37042236 143.8359375 C-145.12292236 143.2171875 -144.87542236 142.5984375 -144.62042236 141.9609375 C-143.16413597 139.48525063 -141.9922973 138.88468748 -139.37042236 137.8359375 C-139.37042236 137.1759375 -139.37042236 136.5159375 -139.37042236 135.8359375 C-138.71042236 135.8359375 -138.05042236 135.8359375 -137.37042236 135.8359375 C-137.37042236 135.1759375 -137.37042236 134.5159375 -137.37042236 133.8359375 C-136.71042236 133.8359375 -136.05042236 133.8359375 -135.37042236 133.8359375 C-135.37042236 133.1759375 -135.37042236 132.5159375 -135.37042236 131.8359375 C-134.71042236 131.8359375 -134.05042236 131.8359375 -133.37042236 131.8359375 C-133.37042236 131.1759375 -133.37042236 130.5159375 -133.37042236 129.8359375 C-131.72690779 128.47416828 -130.0551958 127.14631684 -128.37042236 125.8359375 C-125.74716399 123.34064295 -123.4067979 120.88270605 -121.18292236 118.0234375 C-120.58479736 117.3015625 -119.98667236 116.5796875 -119.37042236 115.8359375 C-118.71042236 115.8359375 -118.05042236 115.8359375 -117.37042236 115.8359375 C-117.37042236 115.1759375 -117.37042236 114.5159375 -117.37042236 113.8359375 C-115.96099854 112.44775391 -115.96099854 112.44775391 -113.97589111 110.8125 C-108.94537936 106.53418324 -104.3262628 101.90192073 -99.68292236 97.2109375 C-98.85469971 96.37820313 -98.02647705 95.54546875 -97.17315674 94.6875 C-95.59006407 93.09553491 -94.0082792 91.50226783 -92.42803955 89.9074707 C-90.76216538 88.23032995 -89.08701164 86.5638182 -87.40557861 84.90234375 C-85.30550167 82.85391241 -85.30550167 82.85391241 -83.49542236 80.3984375 C-81.18124799 77.60781546 -78.66514413 75.44557251 -75.85870361 73.16796875 C-74.24159692 71.88513805 -74.24159692 71.88513805 -73.37042236 69.8359375 C-72.71042236 69.8359375 -72.05042236 69.8359375 -71.37042236 69.8359375 C-71.37042236 69.1759375 -71.37042236 68.5159375 -71.37042236 67.8359375 C-70.11206055 66.60375977 -70.11206055 66.60375977 -68.2444458 65.08984375 C-62.26485507 59.99974374 -56.85160224 54.36230076 -51.34989166 48.76831055 C-48.66482855 46.04082342 -45.97012074 43.32294872 -43.27601242 40.60440063 C-38.27413013 35.55690483 -33.2763924 30.50545729 -28.29473877 25.43798828 C-24.81440575 21.89844385 -21.3221357 18.37108 -17.82152557 14.85159302 C-16.49168984 13.50999143 -15.16640829 12.16385993 -13.84577179 10.8132019 C-12.00753216 8.9341827 -10.15451043 7.07106047 -8.29718018 5.2109375 C-7.75373459 4.64794449 -7.210289 4.08495148 -6.65037537 3.50489807 C-2.90436863 -0.20101818 -2.90436863 -0.20101818 0 0 Z " fill="#749945" transform="translate(955.3704223632813,768.1640625)"/>
<path d="M0 0 C0.66 0.33 1.32 0.66 2 1 C0.68 1.99 -0.64 2.98 -2 4 C-2 3.01 -2 2.02 -2 1 C-1.34 0.67 -0.68 0.34 0 0 Z M-7 7 C-6.34 7.33 -5.68 7.66 -5 8 C-8.465 10.97 -8.465 10.97 -12 14 C-12 13.01 -12 12.02 -12 11 C-9.5 8.8125 -9.5 8.8125 -7 7 Z M-15 15 C-14.34 15.33 -13.68 15.66 -13 16 C-25.87 28.87 -38.74 41.74 -52 55 C-52 52 -52 52 -50.59533691 50.23457336 C-49.93803589 49.58393417 -49.28073486 48.93329498 -48.60351562 48.26293945 C-47.8627478 47.52239822 -47.12197998 46.78185699 -46.35876465 46.01887512 C-45.1447699 44.82810616 -45.1447699 44.82810616 -43.90625 43.61328125 C-42.67436951 42.38776802 -42.67436951 42.38776802 -41.41760254 41.13749695 C-38.78533728 38.52206391 -36.14284694 35.91723587 -33.5 33.3125 C-31.71676618 31.54430706 -29.93420508 29.7754354 -28.15234375 28.00585938 C-23.77601329 23.66265853 -19.39123626 19.32812679 -15 15 Z M-55 55 C-54.01 55.495 -54.01 55.495 -53 56 C-53.99 56.495 -53.99 56.495 -55 57 C-55 56.34 -55 55.68 -55 55 Z M-57 57 C-56.01 57.495 -56.01 57.495 -55 58 C-55.99 58.495 -55.99 58.495 -57 59 C-57 58.34 -57 57.68 -57 57 Z M-59 59 C-58.01 59.495 -58.01 59.495 -57 60 C-57.99 60.495 -57.99 60.495 -59 61 C-59 60.34 -59 59.68 -59 59 Z M-61 61 C-60.01 61.495 -60.01 61.495 -59 62 C-59.99 62.495 -59.99 62.495 -61 63 C-61 62.34 -61 61.68 -61 61 Z M-63 63 C-62.01 63.495 -62.01 63.495 -61 64 C-61.99 64.495 -61.99 64.495 -63 65 C-63 64.34 -63 63.68 -63 63 Z M-65 65 C-64.01 65.495 -64.01 65.495 -63 66 C-63.99 66.495 -63.99 66.495 -65 67 C-65 66.34 -65 65.68 -65 65 Z M-67 67 C-66.01 67.495 -66.01 67.495 -65 68 C-65.99 68.495 -65.99 68.495 -67 69 C-67 68.34 -67 67.68 -67 67 Z M-69 69 C-68.01 69.495 -68.01 69.495 -67 70 C-67.99 70.495 -67.99 70.495 -69 71 C-69 70.34 -69 69.68 -69 69 Z M-71 71 C-70.01 71.495 -70.01 71.495 -69 72 C-69.99 72.495 -69.99 72.495 -71 73 C-71 72.34 -71 71.68 -71 71 Z M-73 73 C-72.01 73.495 -72.01 73.495 -71 74 C-71.99 74.495 -71.99 74.495 -73 75 C-73 74.34 -73 73.68 -73 73 Z M-75 75 C-74.01 75.495 -74.01 75.495 -73 76 C-73.99 76.495 -73.99 76.495 -75 77 C-75 76.34 -75 75.68 -75 75 Z M-77 77 C-76.01 77.495 -76.01 77.495 -75 78 C-75.99 78.495 -75.99 78.495 -77 79 C-77 78.34 -77 77.68 -77 77 Z M-79 79 C-78.01 79.495 -78.01 79.495 -77 80 C-77.99 80.495 -77.99 80.495 -79 81 C-79 80.34 -79 79.68 -79 79 Z M-81 81 C-80.01 81.495 -80.01 81.495 -79 82 C-79.99 82.495 -79.99 82.495 -81 83 C-81 82.34 -81 81.68 -81 81 Z M-83 83 C-82.01 83.495 -82.01 83.495 -81 84 C-81.99 84.495 -81.99 84.495 -83 85 C-83 84.34 -83 83.68 -83 83 Z M-85 85 C-84.01 85.495 -84.01 85.495 -83 86 C-83.99 86.495 -83.99 86.495 -85 87 C-85 86.34 -85 85.68 -85 85 Z M-87 87 C-86.01 87.495 -86.01 87.495 -85 88 C-85.99 88.495 -85.99 88.495 -87 89 C-87 88.34 -87 87.68 -87 87 Z M-89 89 C-88.01 89.495 -88.01 89.495 -87 90 C-87.99 90.495 -87.99 90.495 -89 91 C-89 90.34 -89 89.68 -89 89 Z M-91 91 C-90.01 91.495 -90.01 91.495 -89 92 C-89.99 92.495 -89.99 92.495 -91 93 C-91 92.34 -91 91.68 -91 91 Z M-94 93 C-93.01 93.33 -92.02 93.66 -91 94 C-91.5775 94.55429688 -92.155 95.10859375 -92.75 95.6796875 C-93.4925 96.40414063 -94.235 97.12859375 -95 97.875 C-95.7425 98.59429688 -96.485 99.31359375 -97.25 100.0546875 C-99.22293325 101.81170957 -99.22293325 101.81170957 -99 104 C-100.32 104 -101.64 104 -103 104 C-103 103.01 -103 102.02 -103 101 C-102.01 101 -101.02 101 -100 101 C-100 100.34 -100 99.68 -100 99 C-99.34 99 -98.68 99 -98 99 C-97.71125 98.38125 -97.4225 97.7625 -97.125 97.125 C-96 95 -96 95 -94 93 Z " fill="#6C9045" transform="translate(690,1029)"/>
</svg>
