<?xml version="1.0" encoding="UTF-8"?>
<svg version="1.1" xmlns="http://www.w3.org/2000/svg" width="512" height="512">
<path d="M0 0 C0.6997998 0.24137695 1.39959961 0.48275391 2.12060547 0.73144531 C19.87419518 7.03097837 36.78626529 17.51613453 48 33 C48 33.66 48 34.32 48 35 C48.54092285 35.16508057 49.0818457 35.33016113 49.63916016 35.50024414 C55.48179154 37.35561506 60.90474814 39.68046678 66.375 42.4375 C67.23641602 42.87143066 68.09783203 43.30536133 68.98535156 43.75244141 C99.07972506 59.21653891 127.14860106 81.27028115 148 108 C148.78890625 108.98355469 149.5778125 109.96710938 150.390625 110.98046875 C167.73915881 132.78720824 181.16098474 157.5803115 190 184 C190.27924316 184.83337891 190.55848633 185.66675781 190.84619141 186.52539062 C193.8413823 195.62907856 196.32754123 204.79766209 198.25 214.1875 C198.40114258 214.92170166 198.55228516 215.65590332 198.70800781 216.41235352 C201.65759644 231.7911624 202.3764973 247.00230784 202.3125 262.625 C202.31001251 263.59655029 202.30752502 264.56810059 202.30496216 265.5690918 C202.11768187 312.87852563 189.04440496 359.75823993 162 399 C161.5865332 399.60585938 161.17306641 400.21171875 160.74707031 400.8359375 C130.37992977 445.0912015 87.05135046 478.89030901 36 496 C35.17193848 496.27924316 34.34387695 496.55848633 33.49072266 496.84619141 C20.88743499 501.02433497 8.1223948 503.98706954 -5 506 C-6.13550293 506.17877686 -7.27100586 506.35755371 -8.44091797 506.54174805 C-19.84084124 508.16545238 -31.12277149 508.35714296 -42.625 508.3125 C-44.08549774 508.30976578 -44.08549774 508.30976578 -45.57550049 508.30697632 C-59.59611234 508.2627468 -73.2304235 507.85249198 -87 505 C-87.84900879 504.83902832 -88.69801758 504.67805664 -89.57275391 504.51220703 C-129.03230861 496.9874962 -167.25169912 480.03479948 -198 454 C-198.92353271 453.2265625 -198.92353271 453.2265625 -199.86572266 452.4375 C-211.09594145 443.00672328 -221.6690872 433.24740012 -230.82421875 421.734375 C-232.25863415 419.93169855 -233.71930634 418.14956347 -235.20703125 416.390625 C-245.92128902 403.70614469 -254.318065 389.67709506 -262 375 C-262.38542969 374.26861816 -262.77085937 373.53723633 -263.16796875 372.78369141 C-280.67923923 339.0984019 -288.69661814 301.33610758 -288.375 263.5625 C-288.37034729 262.58075806 -288.36569458 261.59901611 -288.36090088 260.58752441 C-288.28122109 246.22006133 -287.93266885 232.11264545 -285 218 C-284.70198486 216.52756836 -284.70198486 216.52756836 -284.39794922 215.02539062 C-272.89779043 159.72125624 -242.99837307 106.93700845 -198 72 C-196.83171088 71.07592573 -195.66375801 70.15142623 -194.49609375 69.2265625 C-193.31061014 68.29596433 -192.12442345 67.36626104 -190.9375 66.4375 C-190.37675781 65.99510986 -189.81601563 65.55271973 -189.23828125 65.09692383 C-185.23158593 62 -185.23158593 62 -183 62 C-183.03480469 61.18660156 -183.06960937 60.37320313 -183.10546875 59.53515625 C-183.45703475 44.65219571 -181.65517713 25.74413385 -173.0390625 13.12890625 C-171 11 -171 11 -167.8125 10.1875 C-162.92928321 11.22818555 -160.93130514 13.48423054 -157.41015625 16.890625 C-150.00610684 23.37066825 -141.59234421 25.51385973 -131.96875 25.38671875 C-122.6463175 24.47833212 -114.25971774 20.02977126 -105.82421875 16.2109375 C-91.10849344 9.54977531 -76.51458152 3.54815994 -61 -1 C-59.74316406 -1.38027344 -58.48632812 -1.76054688 -57.19140625 -2.15234375 C-39.26954233 -6.64834892 -17.47312245 -6.15046891 0 0 Z " fill="#FE4155" transform="translate(299,4)"/>
<path d="M0 0 C0.6997998 0.24137695 1.39959961 0.48275391 2.12060547 0.73144531 C17.02786941 6.0210123 29.74268517 13.80353552 41 25 C41.93392578 25.88171875 41.93392578 25.88171875 42.88671875 26.78125 C47.58930004 31.60007487 50.29225867 37.17610877 52.98486328 43.27758789 C56.13803707 50.14551655 60.47371014 53.46738087 67.3125 56.75 C78.87383392 62.93908365 85.1119009 72.1774507 89.140625 84.484375 C90.57496364 90.62043937 90.33928989 96.92181808 90.3125 103.1875 C90.31100952 103.84862793 90.30951904 104.50975586 90.3079834 105.19091797 C90.23550669 123.1261992 87.9830202 140.01419981 81.94921875 156.94921875 C80.92078191 160.25460628 80.36429418 163.44994074 79.875 166.875 C79.58625 168.89625 79.2975 170.9175 79 173 C74.71 173.66 70.42 174.32 66 175 C65.484375 173.14375 64.96875 171.2875 64.4375 169.375 C62.9545448 164.36069106 61.10589283 160.51625951 58.3125 156.125 C53.663458 147.41915064 54.21456462 137.82856976 54.26293945 128.19189453 C54.27258577 114.0889831 50.8605252 102.51789355 41 92 C37.43825207 89.32868905 33.2688292 89.40029504 29 90 C25.40571737 91.34665395 22.07687037 93.1447947 18.6875 94.9375 C-21.03631151 114.91631691 -66.08907911 120.525229 -108.6328125 106.82421875 C-114.017921 105.0326382 -119.27690335 103.02930264 -124.4765625 100.75 C-127.4353098 99.87062 -129.08953151 100.02484303 -132 101 C-136.36996095 106.46245118 -136.11595721 112.8828797 -136.140625 119.6015625 C-136.15896581 121.0768382 -136.17853728 122.55209901 -136.19921875 124.02734375 C-136.22800192 126.31780126 -136.2499962 128.6072999 -136.25048828 130.89794922 C-136.26579848 140.9961212 -137.19486705 148.86730284 -142 158 C-142.38414062 158.75941895 -142.76828125 159.51883789 -143.1640625 160.30126953 C-143.80054358 161.55062239 -144.44112152 162.79789724 -145.0859375 164.04296875 C-146.73411974 167.57176918 -147.8634931 171.28052289 -149 175 C-149.71285156 174.84273437 -150.42570313 174.68546875 -151.16015625 174.5234375 C-156.25385283 173.58457183 -162.18649881 172.60993024 -166.9765625 174.9765625 C-170.71990772 177.98230275 -172.64653944 181.01250865 -173.4765625 185.6796875 C-173.95618754 196.00424756 -170.74179463 204.05512476 -167.03515625 213.546875 C-164.71389044 219.55535384 -163.22683682 225.59406331 -161.88671875 231.8828125 C-161.01457172 234.94877429 -159.99368353 236.5763063 -158 239 C-158 239.66 -158 240.32 -158 241 C-157.2575 241.28875 -156.515 241.5775 -155.75 241.875 C-153.4551718 242.81379336 -151.21766895 243.89116553 -149 245 C-148.34 236.75 -147.68 228.5 -147 220 C-145 221 -145 221 -144.34912109 222.69555664 C-144.06415771 223.79178345 -144.06415771 223.79178345 -143.7734375 224.91015625 C-143.55059082 225.72750244 -143.32774414 226.54484863 -143.09814453 227.38696289 C-142.85950684 228.26989014 -142.62086914 229.15281738 -142.375 230.0625 C-137.39375874 247.47195376 -129.14138944 265.1536546 -114 276 C-111.34500524 277.20579162 -111.34500524 277.20579162 -109 278 C-108.52691406 277.29875 -108.05382812 276.5975 -107.56640625 275.875 C-99.38236772 264.13337747 -90.79672873 256.78129309 -76.96484375 252.34765625 C-67.58280139 250.68761297 -56.12053314 250.9314892 -48.10546875 256.12890625 C-42.66570621 258.37949446 -35.14515987 258.17482521 -29.66796875 256.12890625 C-28.4044956 255.42640488 -27.15252383 254.70274307 -25.9140625 253.95703125 C-22.17665485 252.08832743 -18.10945694 252.1568495 -14 252 C-12.81083984 251.90525391 -12.81083984 251.90525391 -11.59765625 251.80859375 C1.49571082 251.15074224 12.04258047 256.7788718 21.546875 265.27734375 C25.42753528 268.99116036 28.26046183 271.83574605 30 277 C48.54054117 264.42596277 58.05128624 243.28427373 63 222 C65.55359648 225.83039472 65.69436942 229.35689254 66.1015625 233.82421875 C66.18524078 234.71066574 66.26891907 235.59711273 66.35513306 236.51042175 C67.23811034 246.60578804 67.39458068 256.68384863 67.375 266.8125 C67.37512085 267.78435242 67.3752417 268.75620483 67.37536621 269.75750732 C67.34480646 287.14280525 66.01879178 303.86320947 63 321 C62.76772705 322.3924292 62.76772705 322.3924292 62.53076172 323.81298828 C56.65515921 358.42243428 39.90173667 393.69708122 10.875 414.625 C-8.50475463 427.72943284 -30.5924491 436.47907411 -54.1875 432.33203125 C-81.2155751 426.71385424 -104.78703907 409.30060786 -120.23828125 386.73046875 C-121.87315965 384.17822371 -123.46542712 381.61348761 -125 379 C-155.7217475 381.9881335 -182.98566506 396.15848074 -209.31591797 411.6862793 C-224.4994727 420.57135554 -224.4994727 420.57135554 -232 420 C-263.13873665 397.35364607 -280.10774302 338.37913345 -285.85058594 302.98144531 C-287.83251185 289.79365208 -288.48844294 276.88621678 -288.375 263.5625 C-288.37034729 262.58075806 -288.36569458 261.59901611 -288.36090088 260.58752441 C-288.28122109 246.22006133 -287.93266885 232.11264545 -285 218 C-284.70198486 216.52756836 -284.70198486 216.52756836 -284.39794922 215.02539062 C-272.89779043 159.72125624 -242.99837307 106.93700845 -198 72 C-196.83171088 71.07592573 -195.66375801 70.15142623 -194.49609375 69.2265625 C-193.31061014 68.29596433 -192.12442345 67.36626104 -190.9375 66.4375 C-190.37675781 65.99510986 -189.81601563 65.55271973 -189.23828125 65.09692383 C-185.23158593 62 -185.23158593 62 -183 62 C-183.03480469 61.18660156 -183.06960937 60.37320313 -183.10546875 59.53515625 C-183.45703475 44.65219571 -181.65517713 25.74413385 -173.0390625 13.12890625 C-171 11 -171 11 -167.8125 10.1875 C-162.92928321 11.22818555 -160.93130514 13.48423054 -157.41015625 16.890625 C-150.00610684 23.37066825 -141.59234421 25.51385973 -131.96875 25.38671875 C-122.6463175 24.47833212 -114.25971774 20.02977126 -105.82421875 16.2109375 C-91.10849344 9.54977531 -76.51458152 3.54815994 -61 -1 C-59.74316406 -1.38027344 -58.48632812 -1.76054688 -57.19140625 -2.15234375 C-39.26954233 -6.64834892 -17.47312245 -6.15046891 0 0 Z " fill="#FE4155" transform="translate(299,4)"/>
<path d="M0 0 C7.64779481 6.83419962 13.27584988 16.4596635 14.9375 26.625 C14.98168796 28.82507713 14.97690416 31.02639449 14.9375 33.2265625 C14.88622265 47.84701803 15.2404554 59.83046168 22.90625 72.77734375 C25.22295262 76.7155364 25.6537869 80.09065675 25.9375 84.625 C26.6490625 84.30144531 27.360625 83.97789062 28.09375 83.64453125 C33.48804814 81.71058645 39.55419351 81.66153567 44.875 83.8125 C49.42383412 87.80996029 51.59959003 91.06004985 52.16699219 97.04614258 C52.34913861 104.23894637 50.89404473 109.69756161 48.1875 116.3125 C45.09837365 124.252879 42.65323076 131.9737253 40.921875 140.3125 C39.18722092 146.14974866 36.00505114 150.28783217 30.9375 153.625 C29.2875 153.955 27.6375 154.285 25.9375 154.625 C25.2775 148.025 24.6175 141.425 23.9375 134.625 C23.1640625 136.5740625 23.1640625 136.5740625 22.375 138.5625 C21.82585937 139.92375 21.82585937 139.92375 21.265625 141.3125 C20.281945 143.76591364 19.31602185 146.22361817 18.359375 148.6875 C12.54939544 163.46502046 5.07646618 177.04359443 -8.0625 186.625 C-8.7225 186.625 -9.3825 186.625 -10.0625 186.625 C-11.32421875 185.12109375 -11.32421875 185.12109375 -12.75 183.0625 C-21.01788154 171.73169867 -30.28686078 165.68256045 -44.0625 162.625 C-47.45568741 162.27246105 -50.66716607 162.35447746 -54.0625 162.625 C-55.32900391 162.67333984 -55.32900391 162.67333984 -56.62109375 162.72265625 C-60.92989275 162.97842971 -64.09389591 163.44842562 -67.8125 165.6875 C-73.44921465 168.82155926 -79.81982401 168.39505464 -86.0625 167.625 C-88.16796875 166.75390625 -88.16796875 166.75390625 -89.8125 165.6875 C-94.23135881 162.88322421 -97.92323492 162.80854518 -103.0625 162.625 C-104.02671875 162.56183594 -104.9909375 162.49867188 -105.984375 162.43359375 C-119.46723661 161.8921835 -130.26058513 167.77345936 -140.09765625 176.578125 C-143.59599627 180.22251898 -146.33459383 184.38822073 -149.0625 188.625 C-163.61303202 182.54023206 -172.06511574 168.71332943 -178.3125 154.8125 C-181.51842792 146.94096189 -183.8222608 138.8127769 -186.0625 130.625 C-186.11784912 131.28097168 -186.17319824 131.93694336 -186.23022461 132.61279297 C-186.48259399 135.57557273 -186.74121815 138.53777374 -187 141.5 C-187.08701172 142.53253906 -187.17402344 143.56507813 -187.26367188 144.62890625 C-187.35068359 145.61503906 -187.43769531 146.60117188 -187.52734375 147.6171875 C-187.605896 148.52839355 -187.68444824 149.43959961 -187.76538086 150.37841797 C-188.0625 152.625 -188.0625 152.625 -189.0625 154.625 C-194.07690967 153.34224404 -196.7319468 151.58565786 -200.0625 147.625 C-202.81513777 142.82222056 -204.10158982 138.07669371 -205.375 132.75 C-206.94950718 126.36877814 -208.85933282 120.38009429 -211.375 114.3125 C-214.27780792 107.08749315 -215.26718517 100.36793372 -214.0625 92.625 C-212.375 89 -212.375 89 -210.0625 86.625 C-209.0415625 85.449375 -209.0415625 85.449375 -208 84.25 C-203.52820193 81.77623936 -199.06713826 82.00661079 -194.0625 82.625 C-191.21875 83.6484375 -191.21875 83.6484375 -189.0625 84.625 C-188.96525635 84.07827637 -188.8680127 83.53155273 -188.76782227 82.96826172 C-187.60824105 77.0894546 -185.66821874 72.09598388 -183 66.75 C-182.27863659 65.2740777 -181.55853081 63.79753988 -180.83984375 62.3203125 C-180.52265381 61.68109863 -180.20546387 61.04188477 -179.87866211 60.38330078 C-177.98716812 56.3083562 -177.88201361 52.61052354 -177.81640625 48.2109375 C-177.78343871 46.71223438 -177.75022761 45.21353661 -177.71679688 43.71484375 C-177.6696459 41.36511276 -177.62525928 39.01539869 -177.58569336 36.66552734 C-177.20429911 15.05623142 -177.20429911 15.05623142 -172.75 10 C-169.37844639 8.27501908 -168.68050165 8.64310918 -165.0625 9.625 C-161.89644606 10.67394611 -158.76196586 11.80500965 -155.625 12.9375 C-122.86222121 24.50865733 -88.67031301 26.50127593 -55.0625 16.625 C-54.2792334 16.3971582 -53.4959668 16.16931641 -52.68896484 15.93457031 C-40.84221911 12.41702314 -29.83066139 7.92316999 -18.87670898 2.18139648 C-12.29657523 -1.17169849 -7.13491118 -3.20342951 0 0 Z " fill="#F8B98E" transform="translate(339.0625,94.375)"/>
<path d="M0 0 C2 1 2 1 2.65087891 2.69555664 C2.84085449 3.42637451 3.03083008 4.15719238 3.2265625 4.91015625 C3.44940918 5.72750244 3.67225586 6.54484863 3.90185547 7.38696289 C4.25981201 8.71135376 4.25981201 8.71135376 4.625 10.0625 C9.60624126 27.47195376 17.85861056 45.1536546 33 56 C35.65499476 57.20579162 35.65499476 57.20579162 38 58 C38.47308594 57.29875 38.94617188 56.5975 39.43359375 55.875 C47.61763228 44.13337747 56.20327127 36.78129309 70.03515625 32.34765625 C79.41719861 30.68761297 90.87946686 30.9314892 98.89453125 36.12890625 C104.33429379 38.37949446 111.85484013 38.17482521 117.33203125 36.12890625 C118.5955044 35.42640488 119.84747617 34.70274307 121.0859375 33.95703125 C124.82334515 32.08832743 128.89054306 32.1568495 133 32 C133.79277344 31.93683594 134.58554687 31.87367188 135.40234375 31.80859375 C148.49571082 31.15074224 159.04258047 36.7788718 168.546875 45.27734375 C172.42753528 48.99116036 175.26046183 51.83574605 177 57 C195.54054117 44.42596277 205.05128624 23.28427373 210 2 C212.55359648 5.83039472 212.69436942 9.35689254 213.1015625 13.82421875 C213.18524078 14.71066574 213.26891907 15.59711273 213.35513306 16.51042175 C214.23811034 26.60578804 214.39458068 36.68384863 214.375 46.8125 C214.37518127 48.27027863 214.37518127 48.27027863 214.37536621 49.75750732 C214.34480646 67.14280525 213.01879178 83.86320947 210 101 C209.76772705 102.3924292 209.76772705 102.3924292 209.53076172 103.81298828 C203.65515921 138.42243428 186.90173667 173.69708122 157.875 194.625 C138.49524537 207.72943284 116.4075509 216.47907411 92.8125 212.33203125 C65.52849787 206.6606561 41.81938845 188.99095011 26.33984375 166.14453125 C17.07386294 152.00062517 10.85588063 137.15211538 6 121 C5.63003906 119.78570312 5.26007813 118.57140625 4.87890625 117.3203125 C3.75020276 113.23589908 2.83267299 109.15331258 2 105 C1.72494629 103.67790527 1.72494629 103.67790527 1.44433594 102.32910156 C-2.05773604 84.64097155 -2.37687888 67.09757918 -2.375 49.125 C-2.37771912 47.44574936 -2.37771912 47.44574936 -2.38049316 45.73257446 C-2.37768576 30.39335444 -1.59725794 15.25613193 0 0 Z " fill="#3C3B65" transform="translate(152,224)"/>
<path d="M0 0 C0.6997998 0.24137695 1.39959961 0.48275391 2.12060547 0.73144531 C17.02786941 6.0210123 29.74268517 13.80353552 41 25 C41.93392578 25.88171875 41.93392578 25.88171875 42.88671875 26.78125 C47.58930004 31.60007487 50.29225867 37.17610877 52.98486328 43.27758789 C56.13803707 50.14551655 60.47371014 53.46738087 67.3125 56.75 C78.87383392 62.93908365 85.1119009 72.1774507 89.140625 84.484375 C90.57496364 90.62043937 90.33928989 96.92181808 90.3125 103.1875 C90.31100952 103.84862793 90.30951904 104.50975586 90.3079834 105.19091797 C90.23550669 123.1261992 87.9830202 140.01419981 81.94921875 156.94921875 C80.92078191 160.25460628 80.36429418 163.44994074 79.875 166.875 C79.58625 168.89625 79.2975 170.9175 79 173 C74.71 173.66 70.42 174.32 66 175 C65.484375 173.14375 64.96875 171.2875 64.4375 169.375 C62.9545448 164.36069106 61.10589283 160.51625951 58.3125 156.125 C53.663458 147.41915064 54.21456462 137.82856976 54.26293945 128.19189453 C54.27258577 114.0889831 50.8605252 102.51789355 41 92 C37.43825207 89.32868905 33.2688292 89.40029504 29 90 C25.40571737 91.34665395 22.07687037 93.1447947 18.6875 94.9375 C-21.03631151 114.91631691 -66.08907911 120.525229 -108.6328125 106.82421875 C-114.017921 105.0326382 -119.27690335 103.02930264 -124.4765625 100.75 C-127.4353098 99.87062 -129.08953151 100.02484303 -132 101 C-136.36996095 106.46245118 -136.11595721 112.8828797 -136.140625 119.6015625 C-136.15896581 121.0768382 -136.17853728 122.55209901 -136.19921875 124.02734375 C-136.22800192 126.31780126 -136.2499962 128.6072999 -136.25048828 130.89794922 C-136.26579848 140.9961212 -137.19486705 148.86730284 -142 158 C-142.38414062 158.75941895 -142.76828125 159.51883789 -143.1640625 160.30126953 C-143.80054358 161.55062239 -144.44112152 162.79789724 -145.0859375 164.04296875 C-146.7381296 167.5803544 -147.83675386 171.27761235 -149 175 C-152.3 174.34 -155.6 173.68 -159 173 C-159.22042969 171.54207031 -159.22042969 171.54207031 -159.4453125 170.0546875 C-160.97112552 160.50069625 -163.15477061 151.27357847 -165.81152344 141.97094727 C-167.29080729 136.75916878 -168.47329816 131.65244856 -169.375 126.3125 C-170.58961364 120.28944529 -173.08431763 116.58745148 -176.87890625 111.83203125 C-183.45426005 103.05278354 -188.21335698 91.63859027 -191 81 C-190.67 80.01 -190.34 79.02 -190 78 C-186.7 78.66 -183.4 79.32 -180 80 C-180.2165625 78.77925781 -180.433125 77.55851562 -180.65625 76.30078125 C-184.09215199 56.3089672 -185.15600425 30.86984687 -173.0390625 13.12890625 C-171 11 -171 11 -167.8125 10.1875 C-162.92928321 11.22818555 -160.93130514 13.48423054 -157.41015625 16.890625 C-150.00610684 23.37066825 -141.59234421 25.51385973 -131.96875 25.38671875 C-122.6463175 24.47833212 -114.25971774 20.02977126 -105.82421875 16.2109375 C-91.10849344 9.54977531 -76.51458152 3.54815994 -61 -1 C-59.74316406 -1.38027344 -58.48632812 -1.76054688 -57.19140625 -2.15234375 C-39.26954233 -6.64834892 -17.47312245 -6.15046891 0 0 Z " fill="#3D3C66" transform="translate(299,4)"/>
<path d="M0 0 C4.52573701 2.85502101 6.87334235 6.65929174 9.5 11.1875 C26.34175562 39.0653927 49.7827662 65.67614939 82 75 C100.19021307 79.45474606 118.39182345 72.43396739 133.84765625 63.15234375 C139.99625778 58.95422796 145.51566493 54.02063963 151 49 C151.70125 48.35933594 152.4025 47.71867187 153.125 47.05859375 C164.93609721 35.71228509 174.48422408 21.48760266 182.95703125 7.5300293 C186.58928259 1.68159064 186.58928259 1.68159064 190 0 C196.12806539 -0.58116532 200.94931958 0.55059229 206.6875 2.625 C207.95424561 3.07709839 207.95424561 3.07709839 209.24658203 3.53833008 C228.3030344 10.62977393 246.52018679 20.4751533 264.23046875 30.37890625 C268.37709306 32.69192502 272.59582305 34.8239551 276.86450195 36.90209961 C279 38 279 38 282 40 C281.57589844 40.4125 281.15179688 40.825 280.71484375 41.25 C277.5353697 44.38055907 274.47139071 47.55273085 271.5625 50.9375 C265.52454956 57.89921669 259.03237096 63.9568352 251.83984375 69.71875 C250.00096157 71.19592633 248.17921177 72.6947954 246.37890625 74.21875 C233.69014155 84.92784116 219.66960835 93.30595286 205 101 C204.28457031 101.3801123 203.56914062 101.76022461 202.83203125 102.15185547 C180.54699978 113.84743779 155.82436298 121.22016678 131 125 C129.83774902 125.18328857 128.67549805 125.36657715 127.47802734 125.55541992 C116.10810168 127.1785629 104.8471311 127.35702615 93.375 127.3125 C91.91450226 127.30976578 91.91450226 127.30976578 90.42449951 127.30697632 C76.40388766 127.2627468 62.7695765 126.85249198 49 124 C48.15099121 123.83902832 47.30198242 123.67805664 46.42724609 123.51220703 C6.96769139 115.9874962 -31.25169912 99.03479948 -62 73 C-62.61568848 72.484375 -63.23137695 71.96875 -63.86572266 71.4375 C-86.77801128 52.19649658 -86.77801128 52.19649658 -95 41 C-95 40.34 -95 39.68 -95 39 C-94.42241943 38.85957275 -93.84483887 38.71914551 -93.24975586 38.57446289 C-85.73692715 36.55585848 -79.3326589 33.21241924 -72.5625 29.4375 C-70.2502541 28.17271243 -67.93775239 26.90839243 -65.625 25.64453125 C-64.49707031 25.02400879 -63.36914062 24.40348633 -62.20703125 23.76416016 C-49.40543025 16.72211015 -36.62436948 10.21546583 -23.03564453 4.81347656 C-21.25388901 4.10145816 -19.48331592 3.36158601 -17.71484375 2.6171875 C-12.0095462 0.32222955 -6.15108783 -1.42755622 0 0 Z " fill="#FEF4ED" transform="translate(163,385)"/>
<path d="M0 0 C0.74169434 0.26893066 1.48338867 0.53786133 2.24755859 0.81494141 C3.08416016 1.11400391 3.92076172 1.41306641 4.78271484 1.72119141 C6.50167787 2.34299866 8.22043391 2.96537845 9.93896484 3.58837891 C16.14333998 5.80490376 22.39354423 7.63955931 28.77099609 9.29150391 C28.72646118 14.50247274 28.65623648 19.71227349 28.56347656 24.92260742 C28.53546976 26.69041584 28.51415564 28.45834477 28.5 30.22631836 C28.41530471 40.21189358 28.30451541 49.13447309 23.77099609 58.29150391 C24.77477295 58.45755127 25.7785498 58.62359863 26.81274414 58.79467773 C30.55122066 59.41595843 34.28724811 60.05102165 38.02270508 60.69018555 C39.6369825 60.96443635 41.25189265 61.23499032 42.86743164 61.50170898 C45.19514018 61.88667341 47.5202176 62.28506016 49.84521484 62.68603516 C50.56311691 62.80179398 51.28101898 62.9175528 52.02067566 63.03681946 C56.18366366 63.77048566 59.36768221 64.75511234 62.77099609 67.29150391 C65.33716241 71.14075338 65.32197285 73.7264343 65.77099609 78.29150391 C60.6116975 77.41036527 55.47644025 76.46559054 50.37255859 75.30322266 C40.10741638 72.98672435 30.30445541 71.58208209 19.77099609 71.29150391 C19.75230469 71.86594238 19.73361328 72.44038086 19.71435547 73.03222656 C19.60619259 75.66365973 19.43914589 78.28824947 19.27099609 80.91650391 C19.24263672 81.82013672 19.21427734 82.72376953 19.18505859 83.65478516 C18.69930268 90.30964117 18.69930268 90.30964117 15.89208984 93.27880859 C13.9082508 94.76668787 11.93474169 96.08326737 9.77099609 97.29150391 C12.07382543 98.82672346 13.94961844 99.875083 16.45849609 100.91650391 C17.55162109 101.37025391 18.64474609 101.82400391 19.77099609 102.29150391 C21.43263549 116.51313626 23.03914815 130.69342554 23.47973633 145.01318359 C23.6281164 149.81366238 24.04749286 154.41035969 24.77099609 159.16650391 C25.08134534 162.39043043 25.07992495 163.77157753 23.41552734 166.57275391 C21.63170266 168.61141069 19.73804379 170.43189999 17.77099609 172.29150391 C16.31784501 174.23739013 15.0592137 176.23035573 13.77099609 178.29150391 C-0.77953593 172.20673597 -9.23161965 158.37983333 -15.47900391 144.47900391 C-18.68493183 136.6074658 -20.98876471 128.47928081 -23.22900391 120.29150391 C-23.28435303 120.94747559 -23.33970215 121.60344727 -23.39672852 122.27929688 C-23.6490979 125.24207664 -23.90772206 128.20427765 -24.16650391 131.16650391 C-24.25351563 132.19904297 -24.34052734 133.23158203 -24.43017578 134.29541016 C-24.5171875 135.28154297 -24.60419922 136.26767578 -24.69384766 137.28369141 C-24.7723999 138.19489746 -24.85095215 139.10610352 -24.93188477 140.04492188 C-25.22900391 142.29150391 -25.22900391 142.29150391 -26.22900391 144.29150391 C-31.24341358 143.00874794 -33.89845071 141.25216176 -37.22900391 137.29150391 C-39.98164168 132.48872446 -41.26809373 127.74319761 -42.54150391 122.41650391 C-44.11601109 116.03528204 -46.02583672 110.0465982 -48.54150391 103.97900391 C-51.44431183 96.75399705 -52.43368907 90.03443762 -51.22900391 82.29150391 C-49.54150391 78.66650391 -49.54150391 78.66650391 -47.22900391 76.29150391 C-46.20806641 75.11587891 -46.20806641 75.11587891 -45.16650391 73.91650391 C-40.69470583 71.44274327 -36.23364217 71.6731147 -31.22900391 72.29150391 C-28.38525391 73.31494141 -28.38525391 73.31494141 -26.22900391 74.29150391 C-26.13176025 73.74478027 -26.0345166 73.19805664 -25.93432617 72.63476562 C-24.77474495 66.75595851 -22.83472265 61.76248779 -20.16650391 56.41650391 C-19.4451405 54.9405816 -18.72503472 53.46404378 -18.00634766 51.98681641 C-17.68915771 51.34760254 -17.37196777 50.70838867 -17.04516602 50.04980469 C-15.15367202 45.97486011 -15.04851752 42.27702744 -14.98291016 37.87744141 C-14.94994262 36.37873829 -14.91673151 34.88004051 -14.88330078 33.38134766 C-14.83614981 31.03161667 -14.79176318 28.6819026 -14.75219727 26.33203125 C-14.37080301 4.72273532 -14.37080301 4.72273532 -9.91650391 -0.33349609 C-6.17602499 -2.24722949 -3.8827672 -1.2341501 0 0 Z " fill="#FBAC6D" transform="translate(176.22900390625,104.70849609375)"/>
<path d="M0 0 C4.52573701 2.85502101 6.87334235 6.65929174 9.5 11.1875 C20.81816146 29.92227433 34.78304214 46.47675119 52 60 C48.61644567 61.83275859 45.15663598 63.00232927 41.5 64.1875 C40.15465443 64.63192506 38.80961843 65.07728798 37.46484375 65.5234375 C35.17811956 66.28038674 32.89094063 67.03575353 30.60205078 67.78613281 C11.94481365 73.9376799 -6.92059942 81.31832945 -20.9296875 95.59375 C-23 97 -23 97 -25.375 96.91796875 C-42.34759225 90.98261283 -58.1140488 77.17550903 -71 65 C-72.34929564 63.82770322 -73.70333672 62.66084179 -75.0625 61.5 C-82.14895095 55.31364262 -89.36102503 48.56094072 -95 41 C-95 40.34 -95 39.68 -95 39 C-94.42241943 38.85957275 -93.84483887 38.71914551 -93.24975586 38.57446289 C-85.73692715 36.55585848 -79.3326589 33.21241924 -72.5625 29.4375 C-70.2502541 28.17271243 -67.93775239 26.90839243 -65.625 25.64453125 C-64.49707031 25.02400879 -63.36914062 24.40348633 -62.20703125 23.76416016 C-49.40543025 16.72211015 -36.62436948 10.21546583 -23.03564453 4.81347656 C-21.25388901 4.10145816 -19.48331592 3.36158601 -17.71484375 2.6171875 C-12.0095462 0.32222955 -6.15108783 -1.42755622 0 0 Z " fill="#FCE5D5" transform="translate(163,385)"/>
<path d="M0 0 C0.33 0.66 0.66 1.32 1 2 C3.02543556 2.25719817 5.05350224 2.50842122 7.08984375 2.65625 C9 3 9 3 11 5 C10.31421875 5.61617188 9.6284375 6.23234375 8.921875 6.8671875 C5.01131211 10.78050043 2.23358733 15.49683883 -0.75 20.125 C-5.79741109 27.81388738 -10.87335634 35.12382015 -17 42 C-18.30710937 43.48693359 -18.30710937 43.48693359 -19.640625 45.00390625 C-35.58844333 62.92765983 -56.27103676 79.35957084 -81.15625 81.23828125 C-105.94965701 81.7886022 -125.06831422 67.99676006 -142.23828125 51.69140625 C-154.93624361 39.31673006 -164.95139477 24.69433003 -174.1953125 9.625 C-175.89868965 6.79931363 -175.89868965 6.79931363 -179 5 C-179 4.34 -179 3.68 -179 3 C-173.555 2.01 -173.555 2.01 -168 1 C-167.48953125 1.77601563 -166.9790625 2.55203125 -166.453125 3.3515625 C-149.55720185 28.45578874 -128.11325036 46.88055121 -98.1875 54.375 C-96.46575228 54.63768788 -94.73406096 54.83735704 -93 55 C-92.37915527 55.06509766 -91.75831055 55.13019531 -91.11865234 55.19726562 C-68.36000076 57.28589275 -45.69096293 47.46193689 -28.0625 33.5 C-26.35689318 32.02062121 -24.66821831 30.5214151 -23 29 C-22.24589844 28.32710938 -21.49179687 27.65421875 -20.71484375 26.9609375 C-12.52535344 19.24808419 -5.61324577 9.73953901 0 0 Z " fill="#FAAC6E" transform="translate(342,381)"/>
<path d="M0 0 C7.40930817 2.29057477 14.68244181 3.00363452 22.38891602 3.50561523 C27.86643412 3.91626412 31.99532595 4.85531755 36.9140625 7.328125 C32.34154839 19.16151578 27.61238496 31.24461769 15.8125 37.4296875 C2.75159057 42.82550723 -18.07553624 42.57459575 -31.0859375 37.328125 C-41.09614362 32.73213471 -46.25935514 24.95693793 -50.23828125 14.96484375 C-51.0859375 12.328125 -51.0859375 12.328125 -51.0859375 9.328125 C-43.9990046 3.75221984 -36.44647926 3.42686906 -27.8046875 2.78515625 C-21.96890756 2.3145386 -16.386548 1.18521519 -10.8984375 -0.859375 C-6.86995692 -2.02315828 -3.95068617 -1.27250566 0 0 Z " fill="#F8B98E" transform="translate(266.0859375,289.671875)"/>
<path d="M0 0 C4.54883412 3.99746029 6.72459003 7.24754985 7.29199219 13.23364258 C7.47413861 20.42644637 6.01904473 25.88506161 3.3125 32.5 C0.22337365 40.440379 -2.22176924 48.1612253 -3.953125 56.5 C-5.68777908 62.33724866 -8.86994886 66.47533217 -13.9375 69.8125 C-15.59478754 70.18970935 -17.26148508 70.52989982 -18.9375 70.8125 C-18.99284912 70.23282471 -19.04819824 69.65314941 -19.10522461 69.0559082 C-19.35917617 66.41201088 -19.61705194 63.76851028 -19.875 61.125 C-20.00551758 59.75698242 -20.00551758 59.75698242 -20.13867188 58.36132812 C-20.22568359 57.47509766 -20.31269531 56.58886719 -20.40234375 55.67578125 C-20.480896 54.86407471 -20.55944824 54.05236816 -20.64038086 53.21606445 C-20.91017074 50.76190887 -20.91017074 50.76190887 -21.48779297 48.17456055 C-22.03425183 45.3043165 -21.67199838 43.17735484 -21.125 40.3125 C-20.93550781 39.25546875 -20.74601562 38.1984375 -20.55078125 37.109375 C-20.15351276 34.97374055 -19.75514536 32.8383101 -19.35546875 30.703125 C-18.2854786 24.5141172 -17.75712737 18.51923292 -17.75 12.25 C-17.74919434 11.57098633 -17.74838867 10.89197266 -17.74755859 10.19238281 C-17.78440578 6.92854061 -17.94454386 3.93435409 -18.9375 0.8125 C-12.89598742 -1.93463706 -6.22635649 -2.51703773 0 0 Z " fill="#FBAC6C" transform="translate(383.9375,178.1875)"/>
<path d="M0 0 C1.46484375 1.9765625 1.46484375 1.9765625 2.9375 4.625 C14.4305422 23.45402658 32.19097604 39.21114746 53 47 C49.93123191 53.36380479 46.71262133 57.80196415 41 62 C35.86019328 60.48541817 32.66283664 57.29632278 28.875 53.6875 C28.21266357 53.06012939 27.55032715 52.43275879 26.86791992 51.78637695 C13.20901335 38.65236854 2.1332457 23.22207616 -7.59765625 7.00390625 C-9.00536446 4.7337772 -9.00536446 4.7337772 -12 3 C-12 2.34 -12 1.68 -12 1 C-3.30902794 -1.46244208 -3.30902794 -1.46244208 0 0 Z " fill="#FB985C" transform="translate(175,383)"/>
<path d="M0 0 C1.11890625 0.16564453 2.2378125 0.33128906 3.390625 0.50195312 C17.98926745 2.78299101 17.98926745 2.78299101 22.6875 6.875 C24.25141368 10.27881213 24.43930374 13.45914487 24.75 17.1875 C17.00506075 15.8647688 9.32658519 14.27926896 1.65307617 12.59667969 C-11.48970669 9.76487717 -25.16004185 7.20379898 -37.078125 14.6796875 C-37.79484375 15.17726562 -38.5115625 15.67484375 -39.25 16.1875 C-40.24 16.8475 -41.23 17.5075 -42.25 18.1875 C-42.00343478 11.28367371 -40.14697703 7.11856272 -35.25 2.1875 C-24.567497 -4.43565186 -11.78996944 -1.89383271 0 0 Z " fill="#46446B" transform="translate(217.25,165.8125)"/>
<path d="M0 0 C0.99386719 -0.02900391 1.98773438 -0.05800781 3.01171875 -0.08789062 C9.37914048 -0.14256466 14.25373425 0.52353029 19.5 4.3125 C23.54691778 8.53603848 26.19664474 13.39707238 26.5 19.3125 C22.94961249 17.60481921 19.70601621 15.57051816 16.40234375 13.43359375 C5.0485146 6.74252811 -13.65313281 12.41753915 -25.5 15.3125 C-28.45491935 16.09285992 -31.38944016 16.89275494 -34.30859375 17.796875 C-36.76589158 18.37506272 -38.98430535 18.40123702 -41.5 18.3125 C-41.03395685 13.55885987 -40.37250217 10.17932984 -37.5 6.3125 C-34.02811707 3.99791138 -31.39996869 3.53305569 -27.3125 2.75 C-26.04019531 2.50121094 -24.76789063 2.25242188 -23.45703125 1.99609375 C-15.60497838 0.59787562 -7.96872798 0.07751681 0 0 Z " fill="#46446B" transform="translate(317.5,164.6875)"/>
<path d="M0 0 C1.33333333 1.33333333 2.66666667 2.66666667 4 4 C7.38247877 4.84561969 9.82743499 5.36852043 13.1875 4.3125 C15.13498943 3.01074837 15.13498943 3.01074837 16.8125 0.875 C19 -1 19 -1 22.25 -1.4375 C26.63846953 -0.92551189 29.93736947 0.28941873 34 2 C35.25 8.625 35.25 8.625 33 12 C30.8984375 12.37109375 30.8984375 12.37109375 28.375 12.4375 C24.71358766 12.67742161 22.36527122 13.13399877 19.25 15.0625 C13.61328535 18.19655926 7.24267599 17.77005464 1 17 C-1.10546875 16.12890625 -1.10546875 16.12890625 -2.75 15.0625 C-6.62425223 12.60383993 -9.3665377 12.45248089 -13.86328125 12.2734375 C-16 12 -16 12 -18 10 C-18.125 6.375 -18.125 6.375 -18 3 C-11.599067 -0.42375486 -7.20302123 -1.70253229 0 0 Z " fill="#FAAC6D" transform="translate(252,245)"/>
<path d="M0 0 C1.010625 0.495 2.02125 0.99 3.0625 1.5 C6.84060832 3.10283383 9.8717825 3.45869083 14 3 C16.74572728 1.52012037 16.74572728 1.52012037 19 0 C19.66 0.33 20.32 0.66 21 1 C20.67386719 2.03898438 20.34773438 3.07796875 20.01171875 4.1484375 C19.80168213 4.8194751 19.59164551 5.4905127 19.37524414 6.18188477 C18.91429483 7.65178452 18.45121823 9.12101877 17.98608398 10.58959961 C16.73447038 14.56013005 15.60033651 18.52994246 14.5625 22.5625 C13.16055465 27.20693348 10.97476389 31.10926263 7 34 C4.68920246 34.74101525 2.35620543 35.41932378 0 36 C-0.05534912 35.42032471 -0.11069824 34.84064941 -0.16772461 34.2434082 C-0.42167617 31.59951088 -0.67955194 28.95601028 -0.9375 26.3125 C-1.06801758 24.94448242 -1.06801758 24.94448242 -1.20117188 23.54882812 C-1.28818359 22.66259766 -1.37519531 21.77636719 -1.46484375 20.86328125 C-1.543396 20.05157471 -1.62194824 19.23986816 -1.70288086 18.40356445 C-1.97241349 15.94911664 -1.97241349 15.94911664 -2.55249023 13.36108398 C-3.08508315 10.55109703 -2.73340399 8.53365661 -2.125 5.75 C-1.94195312 4.87859375 -1.75890625 4.0071875 -1.5703125 3.109375 C-1 1 -1 1 0 0 Z " fill="#FB975B" transform="translate(365,213)"/>
<path d="M0 0 C3.0926815 3.0926815 2.84631158 6.81921845 3 11 C2.86483229 14.99700479 2.51508292 18.95814762 2.125 22.9375 C2.03347656 23.97712891 1.94195312 25.01675781 1.84765625 26.08789062 C1.14311901 33.71376197 1.14311901 33.71376197 0 36 C-5.01440967 34.71724404 -7.6694468 32.96065786 -11 29 C-13.89029889 23.98964019 -15.24592876 18.87560529 -16.625 13.3125 C-17.0539618 11.62090956 -17.48361991 9.9294955 -17.9140625 8.23828125 C-18.0992041 7.49618408 -18.2843457 6.75408691 -18.47509766 5.98950195 C-18.91875531 4.30793628 -19.45004589 2.64986232 -20 1 C-15.25 1.875 -15.25 1.875 -13 3 C-7.74094829 3.40454244 -4.54701708 2.66166853 0 0 Z " fill="#FC985B" transform="translate(150,213)"/>
<path d="M0 0 C8.18477386 2.37858555 16.29594004 3.42301039 24.74609375 4.32421875 C23.74609375 7.32421875 23.74609375 7.32421875 21.3046875 8.7109375 C12.86584446 12.22800225 7.42165248 13.88342233 -1.25390625 10.32421875 C-5.16711394 10.02888232 -8.49552153 10.30647434 -12.25390625 11.32421875 C-20.80143723 13.55897399 -27.6090776 11.60484047 -35.25390625 7.32421875 C-35.58390625 6.33421875 -35.91390625 5.34421875 -36.25390625 4.32421875 C-35.40795898 4.21146606 -35.40795898 4.21146606 -34.54492188 4.09643555 C-31.94650828 3.74450054 -29.35030587 3.37820493 -26.75390625 3.01171875 C-25.42359375 2.83479492 -25.42359375 2.83479492 -24.06640625 2.65429688 C-1.79689718 -0.53875773 -1.79689718 -0.53875773 0 0 Z " fill="#F7AA6D" transform="translate(266.25390625,289.67578125)"/>
<path d="M0 0 C1.13308594 -0.01417969 2.26617187 -0.02835938 3.43359375 -0.04296875 C6.43965357 0.17845139 8.08792684 0.5202344 10.5625 2.1875 C12.32175284 5.70600569 12.07053602 9.34829106 11.5625 13.1875 C9.58986173 17.68511526 9.58986173 17.68511526 6.5625 19.1875 C1.476466 19.96390785 -3.35832256 20.20333549 -8.4375 19.1875 C-11.71285442 15.89084246 -13.32210708 13.43374351 -13.75 8.8125 C-13.4375 5.1875 -13.4375 5.1875 -11.625 2.8125 C-7.83581338 -0.00232435 -4.59021942 0.02605119 0 0 Z " fill="#44436C" transform="translate(307.4375,190.8125)"/>
<path d="M0 0 C1.79050781 0.00193359 1.79050781 0.00193359 3.6171875 0.00390625 C7.56230557 0.49155448 11.23124281 1.54374281 14.125 4.4375 C14.81367772 9.11067025 14.46494812 12.6624183 12.5625 17 C9.54434143 20.1409906 5.68030185 20.04176731 1.5625 20.125 C-5.15345289 20.14496815 -5.15345289 20.14496815 -8.27734375 17.08203125 C-10.87904431 12.77554891 -11.31268364 9.42709349 -10.875 4.4375 C-7.75603964 0.13072918 -5.15800524 -0.08319363 0 0 Z " fill="#414169" transform="translate(209.875,190.5625)"/>
<path d="M0 0 C1.03125 -0.01417969 2.0625 -0.02835938 3.125 -0.04296875 C5.96545203 0.18473053 7.59107948 0.72245939 10 2.1875 C9.67 2.8475 9.34 3.5075 9 4.1875 C8.95977609 6.5204866 8.95679753 8.85456666 9 11.1875 C7.24236328 11.19136719 7.24236328 11.19136719 5.44921875 11.1953125 C-4.45434538 11.37986406 -11.69517088 12.26893558 -20 18.1875 C-20.99 18.8475 -21.98 19.5075 -23 20.1875 C-22.75343478 13.28367371 -20.89697703 9.11856272 -16 4.1875 C-10.70532189 0.90479957 -6.15928109 0.03849551 0 0 Z " fill="#3B395F" transform="translate(198,163.8125)"/>
<path d="M0 0 C0.12375 1.093125 0.2475 2.18625 0.375 3.3125 C0.75464801 7.07381802 0.75464801 7.07381802 3 10 C-1.79766612 11.68792691 -6.61950275 12.95940239 -11.5625 14.125 C-12.30435547 14.30675781 -13.04621094 14.48851562 -13.81054688 14.67578125 C-17.61643893 15.57726592 -21.0576984 16.23419613 -25 16 C-24.53395685 11.24635987 -23.87250217 7.86682984 -21 4 C-14.65939616 -0.22706923 -7.41567962 -0.2354184 0 0 Z " fill="#3A385F" transform="translate(301,167)"/>
<path d="M0 0 C1.71703125 -0.01160156 1.71703125 -0.01160156 3.46875 -0.0234375 C6.5 0.375 6.5 0.375 8.4140625 1.67578125 C9.5 3.375 9.5 3.375 9.375 6.9375 C8.5 10.375 8.5 10.375 5.5 12.375 C0.62298356 13.01534109 -3.95097697 13.34764237 -8.1875 10.6875 C-9.75613705 7.92371092 -10.06114721 6.5013916 -9.5 3.375 C-6.97288411 -0.29680253 -4.23055935 -0.02858486 0 0 Z " fill="#FBAD6E" transform="translate(260.5,311.625)"/>
<path d="M0 0 C0.10957031 0.66386719 0.21914063 1.32773438 0.33203125 2.01171875 C1.21136023 6.90879478 1.99451714 10.90161428 5 15 C-2.09406894 14.41523944 -9.01563899 13.36766005 -16 12 C-14.69881926 8.09645778 -13.09616418 7.54661944 -9.625 5.4375 C-8.64789063 4.83808594 -7.67078125 4.23867187 -6.6640625 3.62109375 C-5.78492188 3.08613281 -4.90578125 2.55117187 -4 2 C-1 0 -1 0 0 0 Z " fill="#FCEFE6" transform="translate(294,195)"/>
<path d="M0 0 C4.12678821 1.44098089 7.30186428 3.47299494 10.8125 6.0625 C11.78832031 6.77535156 12.76414063 7.48820313 13.76953125 8.22265625 C14.50558594 8.80917969 15.24164063 9.39570313 16 10 C16 10.33 16 10.66 16 11 C13.41806023 11.67250524 10.83467929 12.33817901 8.25 13 C7.52039063 13.19078125 6.79078125 13.3815625 6.0390625 13.578125 C2.55428354 14.46515964 -0.38123722 15 -4 15 C-3 13 -2 11 -1 9 C-0.77532169 7.46331135 -0.59203195 5.92031946 -0.4375 4.375 C-0.35371094 3.55773437 -0.26992187 2.74046875 -0.18359375 1.8984375 C-0.12300781 1.27195313 -0.06242188 0.64546875 0 0 Z " fill="#FAEEE7" transform="translate(224,195)"/>
<path d="M0 0 C-0.03480469 0.56847656 -0.06960937 1.13695312 -0.10546875 1.72265625 C-0.30230592 7.33720226 0.44504683 10.99655005 3 16 C-1.48993869 15.41347648 -5.22543184 14.2356462 -9.375 12.4375 C-10.43460938 11.98246094 -11.49421875 11.52742187 -12.5859375 11.05859375 C-13.38257813 10.70925781 -14.17921875 10.35992187 -15 10 C-12.56987104 6.76526459 -10.40280055 4.29071709 -6.9375 2.1875 C-6.26589844 1.76855469 -5.59429687 1.34960938 -4.90234375 0.91796875 C-3 0 -3 0 0 0 Z " fill="#FCEFE7" transform="translate(200,193)"/>
<path d="M0 0 C4.2829452 0.5479083 6.85135641 2.02432804 10.3125 4.5625 C11.19550781 5.20316406 12.07851563 5.84382812 12.98828125 6.50390625 C13.65214844 6.99761719 14.31601562 7.49132812 15 8 C14.67 8.99 14.34 9.98 14 11 C11.3828125 12.16796875 11.3828125 12.16796875 8.125 13.1875 C7.05507813 13.53167969 5.98515625 13.87585938 4.8828125 14.23046875 C2 15 2 15 -1 15 C-0.83628906 14.45859375 -0.67257812 13.9171875 -0.50390625 13.359375 C0.08590587 10.59777407 0.09609308 8.07181861 0.0625 5.25 C0.05347656 4.26515625 0.04445313 3.2803125 0.03515625 2.265625 C0.02355469 1.51796875 0.01195312 0.7703125 0 0 Z " fill="#FBF0E9" transform="translate(318,193)"/>
<path d="M0 0 C2.375 0.6875 2.375 0.6875 3.375 1.6875 C3.625 4.625 3.625 4.625 3.375 7.6875 C0.375 9.6875 0.375 9.6875 -2.25 9.375 C-4.625 8.6875 -4.625 8.6875 -5.625 7.6875 C-5.875 4.75 -5.875 4.75 -5.625 1.6875 C-2.625 -0.3125 -2.625 -0.3125 0 0 Z " fill="#35355E" transform="translate(307.625,195.3125)"/>
</svg>
