<?xml version="1.0" encoding="UTF-8"?>
<svg version="1.1" xmlns="http://www.w3.org/2000/svg" width="512" height="512">
<path d="M0 0 C1.01790619 0.00215515 2.03581238 0.0043103 3.08456421 0.00653076 C17.69363523 0.05620146 32.02575853 0.30709809 46.375 3.3125 C47.34985352 3.51117676 48.32470703 3.70985352 49.32910156 3.91455078 C97.37402273 13.96468706 141.56847595 35.56129574 176.87475586 69.90942383 C178.93859956 71.83959628 181.16756034 73.55032168 183.375 75.3125 C184.47309154 76.46716769 185.5374861 77.65499631 186.5625 78.875 C188.5262211 81.18501171 190.50144722 83.44563755 192.58984375 85.64453125 C205.21399451 98.96434023 215.27358599 114.43358226 224.375 130.3125 C224.80409668 131.06080078 225.23319336 131.80910156 225.67529297 132.58007812 C238.71070917 155.62033667 247.38567422 180.84839856 252.6875 206.75 C252.83485596 207.46889404 252.98221191 208.18778809 253.1340332 208.9284668 C256.10789088 224.57475609 256.74800362 240.04818046 256.6875 255.9375 C256.68534485 256.95540619 256.6831897 257.97331238 256.68096924 259.02206421 C256.63129854 273.63113523 256.38040191 287.96325853 253.375 302.3125 C253.07698486 303.77478027 253.07698486 303.77478027 252.77294922 305.26660156 C242.65232806 353.6484774 220.7358123 397.63678269 186.375 433.3125 C185.74287598 433.97185547 185.11075195 434.63121094 184.45947266 435.31054688 C175.31502521 444.79880305 166.01765991 453.5387044 155.375 461.3125 C154.22394983 462.17056152 153.07290823 463.02863451 151.921875 463.88671875 C143.73224019 469.92427396 135.22961724 475.30707302 126.375 480.3125 C125.66778809 480.7146875 124.96057617 481.116875 124.23193359 481.53125 C98.0845517 496.25245028 69.06326215 505.95209116 39.375 510.3125 C38.169646 510.48982666 36.96429199 510.66715332 35.72241211 510.84985352 C24.08638483 512.44514801 12.54425476 512.67203114 0.8125 512.625 C-0.15644196 512.62284485 -1.12538391 512.6206897 -2.12368774 512.61846924 C-40.66830147 512.48104113 -77.86045213 504.27299221 -112.625 487.3125 C-113.31045898 486.9820166 -113.99591797 486.6515332 -114.70214844 486.31103516 C-137.53857732 475.17275808 -158.35677693 459.90740856 -176.625 442.3125 C-177.28435547 441.68037598 -177.94371094 441.04825195 -178.62304688 440.39697266 C-188.11130305 431.25252521 -196.8512044 421.95515991 -204.625 411.3125 C-205.48306152 410.16144983 -206.34113451 409.01040823 -207.19921875 407.859375 C-213.23736829 399.66819386 -218.59595521 391.15445895 -223.625 382.3125 C-223.98948242 381.68069824 -224.35396484 381.04889648 -224.72949219 380.39794922 C-239.66085402 354.31089649 -249.13420268 324.97749753 -253.625 295.3125 C-253.80232666 294.19367432 -253.97965332 293.07484863 -254.16235352 291.92211914 C-255.84376346 280.20014016 -255.98233932 268.57750982 -255.9375 256.75 C-255.93534485 255.72926392 -255.9331897 254.70852783 -255.93096924 253.65686035 C-255.88130885 239.01651952 -255.57934012 224.69931354 -252.625 210.3125 C-252.42632324 209.29994141 -252.22764648 208.28738281 -252.02294922 207.24414062 C-242.60716498 160.15816641 -221.02340662 117.28185007 -188.23828125 82.171875 C-186.43090247 80.19429463 -184.71108028 78.2258346 -183.01953125 76.15625 C-181.09327842 73.86862837 -179.27918745 71.97018994 -177 70.0625 C-174.71117944 68.12124108 -172.47365787 66.16877576 -170.296875 64.1015625 C-137.84833917 33.34512824 -94.77169983 13.81574549 -51.4375 4.5625 C-50.51267822 4.36366211 -49.58785645 4.16482422 -48.63500977 3.95996094 C-32.42831484 0.66808631 -16.49462105 -0.0628085 0 0 Z " fill="#010202" transform="translate(255.625,-0.3125)"/>
<path d="M0 0 C0.89460938 0.22300781 1.78921875 0.44601563 2.7109375 0.67578125 C37.45964957 9.38968905 69.94169547 26.64713208 97 50 C97.76828125 50.65742187 98.5365625 51.31484375 99.328125 51.9921875 C111.55800461 62.72370438 123.10792946 74.18936313 132.75732422 87.31298828 C133.97864961 88.97101549 135.22377916 90.60876498 136.47265625 92.24609375 C172.88119219 140.75477455 189.04954771 205.2487991 180.75 265.25 C180.2409873 268.51686275 179.64902419 271.75824538 179 275 C178.83951172 275.8132373 178.67902344 276.62647461 178.51367188 277.46435547 C170.66597065 316.37202714 155.16748542 353.10880552 130 384 C129.67 384 129.34 384 129 384 C128.76216797 382.47632813 128.76216797 382.47632813 128.51953125 380.921875 C125.63020117 363.44302729 118.95478942 348.56037944 105 337 C94.2611289 329.46100006 82.4564402 325.9650751 70.00317383 322.24526978 C52.24992075 316.91625458 35.2269742 311.38119095 18.87939453 302.53564453 C15.5324982 300.75067099 12.14491819 299.05417475 8.74609375 297.37109375 C8.13416168 297.06794754 7.52222961 296.76480133 6.89175415 296.45246887 C5.67164158 295.84824376 4.45145793 295.24416214 3.23120117 294.64022827 C-1.18899925 292.44644736 -5.5933731 290.22088374 -10 288 C-10.41595999 282.44177907 -10.65514764 276.89472068 -10.55859375 271.3203125 C-10.54626709 270.40266113 -10.53394043 269.48500977 -10.52124023 268.53955078 C-9.85556177 265.29627799 -8.56253321 263.99847284 -6.125 261.8125 C-5.30386719 261.36648438 -4.48273438 260.92046875 -3.63671875 260.4609375 C10.15522084 252.81918134 17.79476422 234.29450979 22.48925781 219.89111328 C23.25277789 217.06404514 23.48574276 214.22290063 23.75 211.3125 C24.1171875 208.421875 24.1171875 208.421875 25 206 C27.43146506 204.14827928 29.74482144 203.11333342 32.5859375 202.00390625 C36.58589171 200.34049487 38.19714365 197.59740591 40.07658386 193.85797119 C41.27573601 190.14659757 41.28718926 186.63026926 41.2746582 182.77246094 C41.27976913 181.95713394 41.28488007 181.14180695 41.29014587 180.30177307 C41.30401877 177.61256519 41.30308633 174.92361438 41.30078125 172.234375 C41.30467048 170.35735988 41.30900562 168.48034563 41.31376648 166.60333252 C41.32122451 162.66928252 41.32094118 158.73532225 41.31567383 154.80126953 C41.30989088 149.77670031 41.32678379 144.75250112 41.3500185 139.72799301 C41.36480351 135.85019812 41.36562087 131.97249125 41.36250877 128.09467316 C41.36301996 126.24324055 41.36821936 124.39180276 41.37832069 122.54039764 C41.39075548 119.94173199 41.38385088 117.34377284 41.37231445 114.74511719 C41.37995819 113.99051712 41.38760193 113.23591705 41.39547729 112.45845032 C41.30876597 103.55345293 38.45066903 95.70354795 32.28125 89.18359375 C25.71571867 82.94373362 18.8417931 80.94061629 10 80 C9.92523438 79.32195312 9.85046875 78.64390625 9.7734375 77.9453125 C8.48977922 68.85902543 5.44045989 61.4091077 -1.875 55.5625 C-8.51415409 50.74839476 -15.29192547 49.55298871 -23.25488281 49.61181641 C-24.14385757 49.60655945 -25.03283234 49.60130249 -25.94874573 49.59588623 C-28.86705471 49.58275934 -31.78481112 49.59140141 -34.703125 49.6015625 C-36.74802758 49.59953895 -38.79292946 49.59662518 -40.83782959 49.59286499 C-45.11803069 49.5884509 -49.39804351 49.59484058 -53.67822266 49.60888672 C-59.13624793 49.62593449 -64.59382911 49.61615943 -70.05183792 49.59816933 C-74.27461013 49.58726964 -78.49727911 49.59080681 -82.72005463 49.5985527 C-84.73088383 49.60053991 -86.74172271 49.59814804 -88.75254059 49.59111404 C-102.44106114 49.55374897 -114.72124487 50.21866493 -127.125 56.625 C-127.80167725 56.97199951 -128.47835449 57.31899902 -129.17553711 57.67651367 C-144.29448099 65.74896588 -152.83166932 79.29934508 -157.75 95.375 C-159.15611256 100.89845873 -159.87681918 106.32926724 -159 112 C-156.81381363 115.16620095 -155.63108389 115.7896387 -152 117 C-152 123.6 -152 130.2 -152 137 C-154.475 137.99 -154.475 137.99 -157 139 C-159.12882466 142.19323698 -159.25720438 143.04136757 -159.29052734 146.71166992 C-159.30328705 147.66663864 -159.31604675 148.62160736 -159.32919312 149.60551453 C-159.33141876 150.63674942 -159.33364441 151.66798431 -159.3359375 152.73046875 C-159.3425943 153.79485672 -159.3492511 154.85924469 -159.35610962 155.95588684 C-159.3662424 158.21121492 -159.37092645 160.46657301 -159.37060547 162.72192383 C-159.37496123 166.15692335 -159.41122732 169.59061999 -159.44921875 173.02539062 C-159.45509038 175.21874562 -159.45905745 177.4121067 -159.4609375 179.60546875 C-159.48249405 181.13713936 -159.48249405 181.13713936 -159.50448608 182.69975281 C-159.45676375 190.22836121 -158.11261055 195.88738945 -152.6875 201.3125 C-149.97225844 203.16721799 -149.97225844 203.16721799 -146.43359375 204.17578125 C-143 206 -143 206 -141.8359375 209.1171875 C-141.68382812 210.35726562 -141.53171875 211.59734375 -141.375 212.875 C-141.1692988 214.23318701 -140.95426147 215.58998901 -140.73046875 216.9453125 C-140.56297119 217.9667334 -140.56297119 217.9667334 -140.39208984 219.00878906 C-137.18508027 235.29544541 -126.4985598 251.30974247 -114 262 C-112.948125 262.49242187 -111.89625 262.98484375 -110.8125 263.4921875 C-108 266 -108 266 -107.51806641 268.38037109 C-107.40836574 271.35773976 -107.47772909 274.27437245 -107.625 277.25 C-107.66560547 278.796875 -107.66560547 278.796875 -107.70703125 280.375 C-107.77769201 282.9187875 -107.87627922 285.45833099 -108 288 C-114.46484375 291.23242188 -120.9296875 294.46484375 -127.39453125 297.69726562 C-128.09431091 298.04727631 -128.79409058 298.39728699 -129.51507568 298.75790405 C-130.93090473 299.46557375 -132.34712644 300.17245839 -133.76373291 300.87857056 C-137.13947149 302.56235052 -140.50858283 304.25661979 -143.86230469 305.98388672 C-150.14244904 309.20616083 -156.24549585 311.96398454 -163 314 C-165.54901228 314.84699957 -168.09549955 315.70010583 -170.640625 316.55859375 C-172.05584767 317.0323252 -173.4712148 317.50562531 -174.88671875 317.97851562 C-177.06294274 318.70595717 -179.23901989 319.43381808 -181.41455078 320.16333008 C-183.55191467 320.87990715 -185.68981048 321.5948586 -187.828125 322.30859375 C-188.52192764 322.54017685 -189.21573029 322.77175995 -189.93055725 323.01036072 C-195.32424062 324.799825 -200.7496369 326.46730421 -206.2019043 328.0703125 C-221.20069346 333.05376849 -233.20817971 344.90826745 -240.42578125 358.73046875 C-244.14690429 366.86425097 -245.63100473 375.22952625 -247 384 C-282.63534557 349.81017991 -298.93840308 289.83784071 -300.23828125 242.11328125 C-301.07037282 184.12060304 -284.20468713 129.63388748 -248 84 C-247.57315918 83.45601563 -247.14631836 82.91203125 -246.70654297 82.3515625 C-234.88745785 67.40457951 -221.06988283 53.39968524 -205.63867188 42.19433594 C-203.99679738 40.99766579 -202.38083212 39.77141293 -200.765625 38.5390625 C-145.26797265 -3.16228457 -67.05538108 -19.23719949 0 0 Z " fill="#C7DFFD" transform="translate(315,22)"/>
<path d="M0 0 C5.41716333 0.35507457 10.71331706 1.7676026 15.95800781 3.11279297 C25.79071448 5.6290368 35.37918798 5.89781112 45.5 5.9375 C46.20610413 5.94111542 46.91220825 5.94473083 47.63970947 5.94845581 C66.44895945 6.02127979 66.44895945 6.02127979 84.25 0.625 C86.45703125 0.31640625 86.45703125 0.31640625 89.0625 0.1875 C89.91457031 0.12691406 90.76664063 0.06632813 91.64453125 0.00390625 C94.8255474 0.76219946 96.33585459 2.1971819 98.2878418 4.79077148 C99.97329708 8.00387109 99.81309873 11.34580908 99.75 14.875 C99.9214609 22.00057817 100.54848483 27.90813413 105.25 33.625 C111.33152292 38.81029849 116.49256568 40.67727486 124.4375 41.1875 C125.70980469 41.27128906 126.98210937 41.35507813 128.29296875 41.44140625 C129.26878906 41.50199219 130.24460937 41.56257813 131.25 41.625 C131.3080476 44.89575883 131.34361165 48.16638524 131.375 51.4375 C131.39175781 52.36626953 131.40851563 53.29503906 131.42578125 54.25195312 C131.43222656 55.14462891 131.43867188 56.03730469 131.4453125 56.95703125 C131.45578613 57.77921143 131.46625977 58.6013916 131.47705078 59.44848633 C131.25 61.625 131.25 61.625 129.25 64.625 C127.991875 64.91375 126.73375 65.2025 125.4375 65.5 C121.01975604 66.52626357 118.8826295 67.75348602 116.25 71.625 C115.52570107 74.53544508 115.09418303 77.41487923 114.69140625 80.38671875 C112.16407809 98.9279138 103.12775412 114.5785728 88.8984375 126.7109375 C70.83304742 139.76704537 51.44826146 142.573422 29.6015625 140.234375 C12.28722331 136.53432443 -3.72529782 124.2273819 -13.625 109.9140625 C-20.41995561 98.98941404 -24.04476797 87.45451685 -25 74.6484375 C-25.98134158 70.69240427 -27.6095235 69.16429957 -30.75 66.625 C-33.10969123 65.46581702 -33.10969123 65.46581702 -35.5 64.875 C-39.69444444 63.68055556 -39.69444444 63.68055556 -40.75 62.625 C-40.83685603 61.06327255 -40.85702219 59.49770656 -40.84765625 57.93359375 C-40.84443359 56.98935547 -40.84121094 56.04511719 -40.83789062 55.07226562 C-40.82951172 54.07904297 -40.82113281 53.08582031 -40.8125 52.0625 C-40.80798828 51.06541016 -40.80347656 50.06832031 -40.79882812 49.04101562 C-40.78700007 46.56895151 -40.77051849 44.09700482 -40.75 41.625 C-39.40808594 41.60373047 -39.40808594 41.60373047 -38.0390625 41.58203125 C-30.07177074 41.26775641 -23.19117935 40.6597567 -16.75 35.625 C-10.61026363 28.46825209 -9.51196594 22.24676147 -9.49609375 13.04882812 C-9.36200428 9.02967262 -8.94974889 6.3451146 -6.4375 3.12109375 C-3.75 0.625 -3.75 0.625 0 0 Z " fill="#FEDCCD" transform="translate(210.75,148.375)"/>
<path d="M0 0 C10.10990489 3.87643752 19.50249977 8.83489028 29 14 C28.38425626 18.90670795 26.25176237 22.80256104 24 27.125 C23.2690902 28.54337392 22.53985487 29.9626123 21.8125 31.3828125 C21.32716797 32.31697998 21.32716797 32.31697998 20.83203125 33.27001953 C18.86851319 37.35261606 18.57227919 40.50893153 19 45 C20.97417566 50.51529791 23.46581324 54.75481202 27.875 58.625 C30.82529548 61.36961039 30.9814524 61.6105003 31.1875 65.9375 C30.35459047 69.64969163 28.65515718 72.78432175 26.87109375 76.1171875 C25.57058491 78.9281528 25.44926751 80.97097131 26 84 C27.41666667 86.58333333 27.41666667 86.58333333 30 88 C33.48569469 88.18354309 33.48569469 88.18354309 37 87 C38.72175148 84.61484965 39.75970454 82.82968805 40.875 80.1875 C41.16890625 79.55779297 41.4628125 78.92808594 41.765625 78.27929688 C44.84139071 71.55635027 46.05052692 65.38370349 45 58 C42.78559888 53.08081136 39.49810173 49.37222829 35.5625 45.75 C34.716875 44.8425 33.87125 43.935 33 43 C33.30891991 39.48804958 34.47498658 36.689815 36.06640625 33.57421875 C36.46923828 32.77822266 36.87207031 31.98222656 37.28710938 31.16210938 C37.70798828 30.34548828 38.12886719 29.52886719 38.5625 28.6875 C39.19961914 27.43356445 39.19961914 27.43356445 39.84960938 26.15429688 C40.8943479 24.10003574 41.94459762 22.04879708 43 20 C47.7855291 20.80600918 52.31226594 22.28594015 56.921875 23.765625 C57.781297 24.04090027 58.64071899 24.31617554 59.52618408 24.59979248 C61.34219762 25.18323031 63.15767781 25.76833052 64.97265625 26.35498047 C67.7238274 27.24156569 70.47895438 28.11500818 73.234375 28.98828125 C75.00547026 29.55908375 76.77631198 30.13067367 78.546875 30.703125 C79.35968933 30.95854065 80.17250366 31.2139563 81.00994873 31.47711182 C93.87721338 35.68950882 105.24302642 43.204629 111.75 55.38671875 C112.36875 56.68029297 112.36875 56.68029297 113 58 C113.61875 59.21623047 113.61875 59.21623047 114.25 60.45703125 C118.44802385 70.41276142 119.52190537 83.48528162 117 94 C113.87050484 100.12138689 108.40858621 103.99101581 103 108 C101.80901746 108.9704421 100.62390052 109.9481357 99.4453125 110.93359375 C96.59804537 113.28542108 93.68610359 115.52659346 90.71923828 117.72509766 C89.05028678 118.9627098 87.39822447 120.22053819 85.74609375 121.48046875 C62.06933053 139.23892239 35.21993881 150.71247576 7 159 C5.58654297 159.41765625 5.58654297 159.41765625 4.14453125 159.84375 C-16.46961987 165.64471715 -16.46961987 165.64471715 -27 165 C-21.99100226 158.99076558 -16.59058141 153.5234438 -11.00976562 148.04882812 C-7.01484168 144.09986687 -3.21683582 140.0544804 0.44799805 135.79711914 C2.39277871 133.54518733 4.41547527 131.37006355 6.4375 129.1875 C14.59679934 120.95305448 14.59679934 120.95305448 19.37890625 110.8203125 C19.25230713 108.70456166 19.25230713 108.70456166 18 106 C15.14360541 103.7044225 15.14360541 103.7044225 11.703125 103.94921875 C6.71824682 105.36370422 4.87271083 107.83633231 1.75 111.8125 C0.6161666 113.18880587 -0.51927422 114.56378893 -1.65625 115.9375 C-2.49736328 116.96810547 -2.49736328 116.96810547 -3.35546875 118.01953125 C-5.72551308 120.87371765 -8.2222782 123.59818899 -10.75 126.3125 C-14.87479621 130.76800145 -18.92715709 135.27812596 -22.9296875 139.84375 C-25.13291398 142.13843116 -27.4776194 144.06646783 -30 146 C-27.70361774 138.87276676 -25.09690449 131.88957515 -22.4151001 124.89907837 C-13.37858304 101.31324579 -5.5253434 78.41271596 -1.40673828 53.40917969 C-1.07193968 51.42611088 -0.69585381 49.45005728 -0.30859375 47.4765625 C2.44530822 32.18566626 2.05762923 15.35814456 0 0 Z " fill="#44769D" transform="translate(312,330)"/>
<path d="M0 0 C1.52070879 2.69719095 3.01262222 5.40930723 4.5 8.125 C5.14388672 9.26582031 5.14388672 9.26582031 5.80078125 10.4296875 C9.97839551 18.12180265 9.97839551 18.12180265 9 23 C7.1015625 25.6328125 7.1015625 25.6328125 4.625 28.125 C-0.10068305 32.94069606 -2.29540361 35.91521167 -2.625 42.75 C-2.4742176 51.73663086 1.61178552 58.41734223 6 66 C6.71662824 67.28618967 7.43278326 68.57264313 8.1484375 69.859375 C12.94364099 78.30355293 18.53231087 85.91041378 24.69189453 93.40380859 C25.90088881 94.87906141 27.09004965 96.3705084 28.27734375 97.86328125 C32.81986533 103.53937965 37.60535245 108.93451219 42.57592773 114.23461914 C45.2274557 117.06246354 47.8114 119.92833596 50.33984375 122.8671875 C54.16905477 127.26815022 58.27642094 131.35256145 62.4375 135.4375 C63.87593642 136.85058953 65.31226442 138.26582973 66.74609375 139.68359375 C67.37185303 140.29775146 67.9976123 140.91190918 68.64233398 141.54467773 C70 143 70 143 70 144 C61.08696899 143.52659725 52.66911887 142.09314741 44 140 C43.28424805 139.82984375 42.56849609 139.6596875 41.83105469 139.484375 C7.86500553 131.32436319 -23.91873711 116.15739691 -51 94 C-51.54350098 93.5580127 -52.08700195 93.11602539 -52.64697266 92.66064453 C-55.98023491 89.9397521 -59.23589414 87.14883932 -62.45996094 84.29980469 C-63.92494464 83.0633473 -65.48127859 81.93759196 -67.0390625 80.8203125 C-70.72457252 77.90304964 -73.5190647 75.474802 -74.44873047 70.69091797 C-75.01450096 64.42509796 -74.60429727 58.24740522 -74 52 C-73.90976563 50.87207031 -73.81953125 49.74414062 -73.7265625 48.58203125 C-72.15701211 36.49649325 -64.43384779 26.30372788 -55.34106445 18.59326172 C-47.76529985 12.92046695 -38.71441725 10.57667934 -29.8125 7.75 C-28.16950879 7.2174185 -26.52692667 6.68357324 -24.88476562 6.1484375 C-21.2133136 4.95426746 -17.53828461 3.77207509 -13.85879517 2.60290527 C-12.13127218 2.04257849 -10.41591454 1.44511863 -8.7019043 0.84472656 C-5.68026 -0.09996389 -3.14726788 -0.1498699 0 0 Z " fill="#497FA8" transform="translate(157,351)"/>
<path d="M0 0 C0.87852127 -0.0065712 1.75704254 -0.0131424 2.66218567 -0.01991272 C5.56596974 -0.03960465 8.46970225 -0.05129765 11.37353516 -0.0612793 C12.36634113 -0.06535482 13.35914711 -0.06943035 14.38203812 -0.07362938 C19.63441 -0.09447012 24.8867559 -0.10878188 30.13916016 -0.11816406 C35.56205075 -0.12923927 40.98453225 -0.16365782 46.40727806 -0.20333576 C50.58003502 -0.22947932 54.75269401 -0.23785377 58.92552567 -0.24144554 C60.92459509 -0.24631538 62.92366003 -0.25794064 64.92264938 -0.27648354 C67.72089905 -0.30083231 70.51808307 -0.29991803 73.31640625 -0.29296875 C74.55099831 -0.31218384 74.55099831 -0.31218384 75.81053162 -0.33178711 C82.55810625 -0.27079173 86.05084965 2.14359468 91.03759766 6.67700195 C94.04763614 10.41097375 94.09435524 14.70763038 94.70166016 19.32543945 C95.57285911 23.56527438 97.1028557 25.29556875 100.28759766 28.17700195 C103.51628395 30.15203348 106.36555819 30.5243045 110.10009766 30.92700195 C115.91947032 31.82229005 119.59000953 33.54948148 123.28759766 38.17700195 C125.08948662 41.2225163 125.53359236 43.42198753 125.51464844 46.94555664 C125.51442184 48.35656647 125.51442184 48.35656647 125.51419067 49.79608154 C125.5038681 50.80350403 125.49354553 51.81092651 125.48291016 52.84887695 C125.48008026 53.88643127 125.47725037 54.9239856 125.47433472 55.99298096 C125.46314631 59.30443896 125.43804393 62.61562579 125.41259766 65.92700195 C125.40256614 68.1730918 125.39344059 70.41918588 125.38525391 72.6652832 C125.36321136 78.16928186 125.32974698 83.67312253 125.28759766 89.17700195 C123.37218627 89.28542147 121.45499992 89.36278274 119.53759766 89.42700195 C118.47025391 89.4734082 117.40291016 89.51981445 116.30322266 89.56762695 C112.61326359 89.08965298 111.5613304 88.04573017 109.28759766 85.17700195 C107.99018562 82.58217787 108.13138651 80.21709986 108.04833984 77.36157227 C107.76285714 68.35935106 106.93148783 62.6306455 101.03759766 55.42700195 C94.26644372 49.88696691 88.91208995 48.53771645 80.08837891 48.7746582 C74.79405301 49.33510586 69.93869381 50.64661093 64.85791016 52.2043457 C56.48690196 54.48485012 48.1602452 54.35992518 39.53759766 54.36450195 C38.33876953 54.37674805 37.13994141 54.38899414 35.90478516 54.40161133 C26.09665054 54.41756816 16.82494245 53.38428808 7.41259766 50.55200195 C-0.80286303 48.46314301 -9.85275279 47.29695788 -17.71240234 51.11450195 C-23.15660139 54.65932559 -26.6789368 60.07660531 -28.71240234 66.17700195 C-28.94027256 69.76143666 -29.10579901 73.33980803 -29.22998047 76.92895508 C-29.57358151 84.37796633 -29.57358151 84.37796633 -31.71240234 87.17700195 C-34.89017144 89.41268906 -37.6523588 89.39271728 -41.46240234 89.30200195 C-42.44724609 89.28395508 -43.43208984 89.2659082 -44.44677734 89.24731445 C-45.19443359 89.22411133 -45.94208984 89.2009082 -46.71240234 89.17700195 C-46.74978516 88.34555664 -46.78716797 87.51411133 -46.82568359 86.6574707 C-46.89142578 85.57079102 -46.95716797 84.48411133 -47.02490234 83.36450195 C-47.11191406 81.74608398 -47.11191406 81.74608398 -47.20068359 80.0949707 C-47.7509676 76.95709165 -48.16313023 75.99964069 -50.71240234 74.17700195 C-51.70240234 73.84700195 -52.69240234 73.51700195 -53.71240234 73.17700195 C-53.88695255 69.92768268 -53.99331987 66.67956747 -54.08740234 63.42700195 C-54.13767578 62.50661133 -54.18794922 61.5862207 -54.23974609 60.63793945 C-54.29657149 58.02397135 -54.28775573 55.72973902 -53.71240234 53.17700195 C-50.75927734 50.98168945 -50.75927734 50.98168945 -47.71240234 49.17700195 C-46.7026972 45.81408117 -46.7026972 45.81408117 -46.58740234 42.05200195 C-45.42180791 29.5527335 -40.60349905 19.32645597 -31.09912109 10.8449707 C-21.42884352 3.47258087 -12.07102327 0.03924246 0 0 Z " fill="#355D7C" transform="translate(216.71240234375,85.822998046875)"/>
<path d="M0 0 C3.7317538 3.41415773 4.85000655 4.8838723 5.53125 9.953125 C5.53654814 11.38544475 5.52560466 12.81789933 5.5 14.25 C5.6714609 21.37557817 6.29848483 27.28313413 11 33 C17.08152292 38.18529849 22.24256568 40.05227486 30.1875 40.5625 C31.45980469 40.64628906 32.73210937 40.73007813 34.04296875 40.81640625 C35.01878906 40.87699219 35.99460937 40.93757813 37 41 C37.0580476 44.27075883 37.09361165 47.54138524 37.125 50.8125 C37.14175781 51.74126953 37.15851563 52.67003906 37.17578125 53.62695312 C37.18222656 54.51962891 37.18867188 55.41230469 37.1953125 56.33203125 C37.20578613 57.15421143 37.21625977 57.9763916 37.22705078 58.82348633 C37 61 37 61 35 64 C33.741875 64.28875 32.48375 64.5775 31.1875 64.875 C26.76975604 65.90126357 24.6326295 67.12848602 22 71 C21.27570107 73.91044508 20.84418303 76.78987923 20.44140625 79.76171875 C17.91407809 98.3029138 8.87775412 113.9535728 -5.3515625 126.0859375 C-17.56034853 134.90939643 -30.88168954 140.26066053 -46 140 C-45.125 138.97916667 -44.25 137.95833333 -43.375 136.9375 C-42.54742187 135.96296875 -42.54742187 135.96296875 -41.703125 134.96875 C-40.67531705 133.78064173 -39.62827797 132.60829292 -38.546875 131.46875 C-26.51910937 118.51577163 -19.72908352 100.44027683 -19.68115234 82.90014648 C-19.67110672 82.04051804 -19.6610611 81.18088959 -19.65071106 80.29521179 C-19.62011122 77.48717852 -19.60290913 74.67923954 -19.5859375 71.87109375 C-19.56720714 69.91096702 -19.54763236 67.95084819 -19.5272522 65.99073792 C-19.47612227 60.85672688 -19.43639456 55.72268976 -19.39910889 50.58856201 C-19.35894871 45.33957569 -19.3079114 40.09069608 -19.2578125 34.84179688 C-19.16128007 24.5612731 -19.07680328 14.28068879 -19 4 C-19.99 3.67 -20.98 3.34 -22 3 C-5.62715679 -1.72618155 -5.62715679 -1.72618155 0 0 Z " fill="#FDC9BC" transform="translate(305,149)"/>
<path d="M0 0 C10.10990489 3.87643752 19.50249977 8.83489028 29 14 C28.38425626 18.90670795 26.25176237 22.80256104 24 27.125 C23.2690902 28.54337392 22.53985487 29.9626123 21.8125 31.3828125 C21.32716797 32.31697998 21.32716797 32.31697998 20.83203125 33.27001953 C18.86851319 37.35261606 18.57227919 40.50893153 19 45 C20.97417566 50.51529791 23.46581324 54.75481202 27.875 58.625 C30.82529548 61.36961039 30.9814524 61.6105003 31.1875 65.9375 C30.3540744 69.65199169 28.65600961 72.7898785 26.86328125 76.12109375 C25.59661018 78.87796609 25.60282507 81.02118803 26 84 C26.40347656 84.76828125 26.80695313 85.5365625 27.22265625 86.328125 C28 89 28 89 26.76953125 91.75390625 C26.12371094 92.68074219 25.47789062 93.60757813 24.8125 94.5625 C24.17957031 95.49191406 23.54664063 96.42132813 22.89453125 97.37890625 C22.26933594 98.24386719 21.64414062 99.10882813 21 100 C20.50628906 100.77214844 20.01257813 101.54429687 19.50390625 102.33984375 C19.00761719 102.88769531 18.51132812 103.43554688 18 104 C14.125 104 14.125 104 12.1328125 103.75 C8.02177477 104.23187988 5.57015577 107.34448502 2.96484375 110.33984375 C1.96130859 111.62568359 1.96130859 111.62568359 0.9375 112.9375 C-3.49843491 118.47319248 -8.22404363 123.66336783 -13.06640625 128.84375 C-16.44137375 132.45546073 -19.70942177 136.15932006 -22.96484375 139.87890625 C-25.15494064 142.16148324 -27.4922493 144.07666425 -30 146 C-27.70361774 138.87276676 -25.09690449 131.88957515 -22.4151001 124.89907837 C-13.37858304 101.31324579 -5.5253434 78.41271596 -1.40673828 53.40917969 C-1.07193968 51.42611088 -0.69585381 49.45005728 -0.30859375 47.4765625 C2.44530822 32.18566626 2.05762923 15.35814456 0 0 Z " fill="#355C7B" transform="translate(312,330)"/>
<path d="M0 0 C-0.23589844 1.83884766 -0.23589844 1.83884766 -0.4765625 3.71484375 C-3.93619128 35.32550881 2.02236879 66.11174901 12 96 C12.3614209 97.10069824 12.7228418 98.20139648 13.09521484 99.33544922 C17.34195325 112.21465543 21.96642733 124.87264222 27.34545898 137.32543945 C27.70841064 138.17710693 28.0713623 139.02877441 28.4453125 139.90625 C28.77031738 140.65197266 29.09532227 141.39769531 29.43017578 142.16601562 C30 144 30 144 29 146 C23.41626551 140.50714003 17.87714187 135.03606434 12.79296875 129.0703125 C10.66853176 126.6172589 8.45811363 124.25296853 6.25 121.875 C0.98663126 116.0940534 -3.86196917 110.04871824 -8.60009766 103.83251953 C-9.53167461 102.61305377 -10.46884877 101.39784313 -11.41162109 100.18701172 C-16.90710894 93.12246996 -21.85486901 85.93949944 -26.125 78.0625 C-26.50350098 77.37696045 -26.88200195 76.6914209 -27.27197266 75.98510742 C-29.72324182 71.2795155 -31.01638621 67.34736792 -31 62 C-29.19921875 59.171875 -29.19921875 59.171875 -26.6875 56.75 C-21.86112442 51.99181497 -19.70640343 49.12226069 -19.375 42.25 C-19.43589864 34.55937204 -22.48804448 29.06934802 -26.15234375 22.53125 C-27.72940891 19.51715506 -28.59596004 17.334933 -29 14 C-26.00074658 12.41524955 -23.00045992 10.83246479 -20 9.25 C-19.16082031 8.8065625 -18.32164062 8.363125 -17.45703125 7.90625 C-14.97466303 6.59771482 -12.48876901 5.29631708 -10 4 C-9.22785156 3.59716797 -8.45570313 3.19433594 -7.66015625 2.77929688 C-2.23881173 0 -2.23881173 0 0 0 Z " fill="#355C7A" transform="translate(200,330)"/>
<path d="M0 0 C11.76123428 -0.09271823 23.52238148 -0.16377447 35.28390694 -0.20724869 C40.74539228 -0.22811515 46.20662741 -0.25641599 51.66796875 -0.30175781 C56.93939546 -0.34524856 62.21058163 -0.36914419 67.48217392 -0.37950897 C69.49241802 -0.3868945 71.5026491 -0.40131675 73.51279068 -0.42292023 C76.3305929 -0.4519969 79.1474037 -0.45595419 81.96533203 -0.45410156 C82.79467758 -0.46848267 83.62402313 -0.48286377 84.47850037 -0.49768066 C91.2539614 -0.4495424 94.74153043 1.94684585 99.75 6.5 C102.76003849 10.23397179 102.80675758 14.53062843 103.4140625 19.1484375 C104.28526146 23.38827242 105.81525804 25.1185668 109 28 C112.2286863 29.97503153 115.07796054 30.34730255 118.8125 30.75 C124.63187266 31.6452881 128.30241187 33.37247953 132 38 C133.80188897 41.04551435 134.2459947 43.24498557 134.22705078 46.76855469 C134.22682419 48.17956451 134.22682419 48.17956451 134.22659302 49.61907959 C134.21627045 50.62650208 134.20594788 51.63392456 134.1953125 52.671875 C134.1924826 53.70942932 134.18965271 54.74698364 134.18673706 55.815979 C134.17554865 59.12743701 134.15044627 62.43862384 134.125 65.75 C134.11496848 67.99608984 134.10584293 70.24218393 134.09765625 72.48828125 C134.0756137 77.99227991 134.04214932 83.49612058 134 89 C132.08458862 89.10841951 130.16740227 89.18578079 128.25 89.25 C127.18265625 89.29640625 126.1153125 89.3428125 125.015625 89.390625 C121.32566594 88.91265103 120.27373274 87.86872822 118 85 C116.70258796 82.40517592 116.84378885 80.04009791 116.76074219 77.18457031 C116.47525949 68.1823491 115.64389017 62.45364354 109.75 55.25 C101.83732489 48.77599309 95.15160217 48.30186276 85 49 C81.535 49.495 81.535 49.495 78 50 C78 33.83 78 17.66 78 1 C52.26 1 26.52 1 0 1 C0 0.67 0 0.34 0 0 Z " fill="#2A4C64" transform="translate(208,86)"/>
<path d="M0 0 C4.20059224 0.7759531 8.15182354 1.9581806 12.20703125 3.28125 C19.50231208 5.15863696 26.82589877 5.18257784 34.3125 5.1875 C35.28123047 5.19974609 36.24996094 5.21199219 37.24804688 5.22460938 C47.1435307 5.24441355 55.8193392 3.60668817 65 0 C65.99 0 66.98 0 68 0 C68.87433238 5.32695099 69.67780277 10.93508259 66.99951172 15.82763672 C64.23311372 19.6223651 60.95335205 22.9485712 57.65917969 26.28417969 C55.06637381 28.96549806 52.69649433 31.82124402 50.3125 34.6875 C49.41696752 35.74765004 48.52113806 36.8075493 47.625 37.8671875 C43.69990267 42.53700195 39.84425618 47.2634967 36 52 C31.74420618 50.39518992 29.14107954 47.17841288 26.1875 43.875 C25.65342529 43.28678467 25.11935059 42.69856934 24.5690918 42.0925293 C21.24455607 38.42075195 17.95795777 34.71606879 14.71875 30.96875 C11.89642341 27.73590318 9.00073164 24.56918808 6.11328125 21.39453125 C5.41589844 20.60433594 4.71851563 19.81414062 4 19 C3.25621094 18.2265625 2.51242188 17.453125 1.74609375 16.65625 C-0.5536888 13.15769936 -0.40495329 10.83250053 -0.25 6.6875 C-0.21390625 5.43324219 -0.1778125 4.17898438 -0.140625 2.88671875 C-0.07101563 1.45779297 -0.07101563 1.45779297 0 0 Z " fill="#FBDACB" transform="translate(222,298)"/>
<path d="M0 0 C3.96 0 7.92 0 12 0 C12.29245605 1.1144751 12.58491211 2.2289502 12.88623047 3.37719727 C13.97759085 7.53527521 15.06994814 11.69309072 16.16259766 15.85083008 C16.63422143 17.64600666 17.10557942 19.4412531 17.57666016 21.23657227 C18.2561265 23.82587053 18.93656693 26.41491118 19.6171875 29.00390625 C19.92981033 30.19651817 19.92981033 30.19651817 20.24874878 31.41322327 C20.44880524 32.17348312 20.64886169 32.93374298 20.85498047 33.71704102 C21.04445251 34.44617706 21.23392456 35.17531311 21.42913818 35.92654419 C21.95740762 37.84529807 22.5805988 39.73723305 23.21142578 41.62475586 C24.71014781 48.03956453 22.82910646 52.97666685 20.1640625 58.81640625 C19.88404388 59.43595688 19.60402527 60.05550751 19.31552124 60.6938324 C18.42702094 62.65397752 17.52615439 64.60814559 16.625 66.5625 C16.02784805 67.87659089 15.43148707 69.19104151 14.8359375 70.50585938 C12.31501107 76.05173141 9.75007133 81.56308328 7 87 C6.34 87 5.68 87 5 87 C1.76066659 80.308606 -1.45153619 73.60491951 -4.63183594 66.88525391 C-5.45805224 65.14288698 -6.28824433 63.40238675 -7.12597656 61.66552734 C-8.01972605 59.80690416 -8.88627653 57.93526534 -9.75 56.0625 C-10.21921875 55.06347656 -10.6884375 54.06445312 -11.171875 53.03515625 C-13.32989328 45.12581567 -9.65252656 36.07139665 -7.6875 28.375 C-7.37353271 27.13202148 -7.05956543 25.88904297 -6.73608398 24.60839844 C-4.63870785 16.35731317 -2.42864955 8.16026248 0 0 Z " fill="#DE7E83" transform="translate(250,407)"/>
<path d="M0 0 C3.91395537 2.846513 6.9242337 6.07442985 10.046875 9.7265625 C12.16034501 12.18664159 14.32426992 14.59485621 16.5 17 C18 18.66666667 19.5 20.33333333 21 22 C21.67933594 22.75023437 22.35867187 23.50046875 23.05859375 24.2734375 C23.67863281 24.96695312 24.29867187 25.66046875 24.9375 26.375 C25.48277344 26.98085938 26.02804688 27.58671875 26.58984375 28.2109375 C28.04135381 30.0524655 29.02946548 31.87138806 30 34 C27.77172107 35.9177069 25.54241095 37.83419239 23.3125 39.75 C22.68666016 40.28882813 22.06082031 40.82765625 21.41601562 41.3828125 C20.18236403 42.44207356 18.94429461 43.49621321 17.70166016 44.54492188 C16.24324999 45.79199857 14.82601825 47.08695436 13.41796875 48.390625 C10.30706208 50.46121232 8.68665642 50.4241184 5 50 C0.46171082 46.6632623 -2.52550146 42.25581274 -3.68505859 36.74316406 C-3.89551555 33.17100128 -3.84717093 29.69932033 -3.6875 26.125 C-3.67654297 24.93519531 -3.66558594 23.74539063 -3.65429688 22.51953125 C-3.47837403 14.66736546 -2.23373739 7.52171595 0 0 Z " fill="#EFF6FA" transform="translate(216,328)"/>
<path d="M0 0 C0.66 0 1.32 0 2 0 C4.76224195 8.38415376 5.63635261 16.25956229 5.75 25.0625 C5.811875 26.26455078 5.87375 27.46660156 5.9375 28.70507812 C6.04702272 37.06987553 4.17509428 41.33197642 -1.56933594 47.40014648 C-4 49 -4 49 -6.63012695 48.88598633 C-9.93444938 47.65065244 -11.89941099 45.68368535 -14.4375 43.25 C-15.39140625 42.35023438 -16.3453125 41.45046875 -17.328125 40.5234375 C-18.65070313 39.27433594 -18.65070313 39.27433594 -20 38 C-21.97142293 36.29193509 -23.9737813 34.64288002 -26 33 C-22.16134479 24.35800135 -14.39043767 17.26828854 -8.078125 10.37109375 C-5.57486892 7.51493503 -3.35475438 4.51711031 -1.19140625 1.3984375 C-0.79824219 0.93695313 -0.40507812 0.47546875 0 0 Z " fill="#EFF6FA" transform="translate(294,329)"/>
<path d="M0 0 C-0.55149315 6.67172202 -1.8647454 12.62602199 -3.875 19 C-4.25978516 20.25683594 -4.25978516 20.25683594 -4.65234375 21.5390625 C-6.35125765 27.05412973 -8.15289381 32.53296183 -10 38 C-12 37 -12 37 -12.77783203 34.76269531 C-13.01872559 33.79428711 -13.25961914 32.82587891 -13.5078125 31.828125 C-13.77207031 30.77109375 -14.03632813 29.7140625 -14.30859375 28.625 C-14.57800781 27.51125 -14.84742188 26.3975 -15.125 25.25 C-15.40214844 24.15171875 -15.67929687 23.0534375 -15.96484375 21.921875 C-18.86133774 10.16467773 -18.86133774 10.16467773 -17.109375 5.76171875 C-12.56708701 -1.1691862 -7.840663 -0.9134753 0 0 Z " fill="#DAECF4" transform="translate(294,392)"/>
<path d="M0 0 C10.18747327 -1.03852883 10.18747327 -1.03852883 14.16796875 1.2421875 C16.56193752 3.7100793 18.00589798 5.30618864 17.9934082 8.89306641 C17.43847778 14.87995013 16.03401553 20.68258 14.5625 26.5 C14.23668945 27.85738281 14.23668945 27.85738281 13.90429688 29.2421875 C13.68966797 30.10070312 13.47503906 30.95921875 13.25390625 31.84375 C13.06127197 32.61912109 12.8686377 33.39449219 12.67016602 34.19335938 C12 36 12 36 10 37 C7.02175305 29.67701631 4.84464773 22.17657557 2.75 14.5625 C2.47978027 13.59103027 2.20956055 12.61956055 1.93115234 11.61865234 C1.68059082 10.69391113 1.4300293 9.76916992 1.171875 8.81640625 C0.9459668 7.98568604 0.72005859 7.15496582 0.48730469 6.29907227 C0 4 0 4 0 0 Z " fill="#DBECF5" transform="translate(218,393)"/>
<path d="M0 0 C3.66415876 2.06312314 6.70548128 4.35872176 9.8125 7.1875 C10.60269531 7.90292969 11.39289063 8.61835938 12.20703125 9.35546875 C12.79871094 9.89816406 13.39039063 10.44085938 14 11 C10.25 17.75 10.25 17.75 8 20 C-5.40775171 21.69851563 -5.40775171 21.69851563 -10.390625 18.43359375 C-11.8480556 16.68255456 -12.9993249 15.04304499 -14 13 C-9.55618306 8.41283413 -4.79771501 4.21237287 0 0 Z " fill="#D9616C" transform="translate(256,372)"/>
</svg>
