<?xml version="1.0" encoding="UTF-8"?>
<svg version="1.1" xmlns="http://www.w3.org/2000/svg" width="512" height="512">
<path d="M0 0 C1.12361435 -0.00671722 2.2472287 -0.01343445 3.40489197 -0.02035522 C7.08955409 -0.03922496 10.77403291 -0.04325421 14.45874023 -0.04541016 C17.04548718 -0.05184693 19.63223342 -0.05857593 22.21897888 -0.06558228 C27.6329854 -0.07752844 33.04692044 -0.08135223 38.4609375 -0.08007812 C44.67130583 -0.07888024 50.88132468 -0.09992688 57.09160477 -0.13156545 C63.11706795 -0.1611412 69.14234534 -0.16804682 75.16789055 -0.16685867 C77.70687216 -0.16919875 80.24585714 -0.17793095 82.78479195 -0.19352341 C100.2487882 -0.29071661 116.92596886 0.41716776 133.14233398 7.60302734 C134.18659546 8.05077515 134.18659546 8.05077515 135.25195312 8.50756836 C160.97583349 19.86728634 180.32060481 41.72132985 191.20483398 67.29052734 C195.98854514 80.08021208 197.51128676 92.76635641 198.20483398 106.29052734 C199.46295898 106.20802734 200.72108398 106.12552734 202.01733398 106.04052734 C212.87304276 106.091573 222.11053649 111.75521463 229.95092773 118.87646484 C238.07092456 127.52373419 241.56979057 138.54299765 242.51733398 150.10302734 C242.09595797 163.11301192 237.177103 173.80500545 228.43920898 183.21630859 C219.84734772 191.19231967 209.64733958 194.38239198 198.20483398 195.29052734 C198.22803711 196.42748047 198.25124023 197.56443359 198.27514648 198.73583984 C198.54465203 217.35806533 197.10278803 233.82918492 184.20483398 248.29052734 C183.67116211 248.91701172 183.13749023 249.54349609 182.58764648 250.18896484 C173.01774927 260.6746417 158.97457175 265.11390327 145.16162109 265.91625977 C141.1760207 266.09510757 137.1936879 266.21098888 133.20483398 266.29052734 C134.34758789 266.71011719 134.34758789 266.71011719 135.51342773 267.13818359 C147.82197307 271.91715688 156.85034302 279.2587909 164.20483398 290.29052734 C166.30186101 290.73863593 166.30186101 290.73863593 168.75537109 290.65942383 C169.70073227 290.66630722 170.64609344 290.67319061 171.62010193 290.68028259 C172.64708694 290.6741243 173.67407196 290.667966 174.73217773 290.66162109 C176.90861145 290.67902229 179.0850437 290.69660644 181.26147461 290.71435547 C184.69094764 290.72437816 188.12031771 290.72803839 191.54980469 290.72631836 C194.86090416 290.72991869 198.17121935 290.75739467 201.48217773 290.78662109 C202.49094467 290.77843857 203.49971161 290.77025604 204.53904724 290.76182556 C214.65510334 290.8660846 223.36418163 293.71469815 231.19702148 300.22802734 C240.26608936 309.54411263 242.45008763 320.71088892 242.45581055 333.24121094 C242.32969319 341.55158016 240.2413078 349.25405353 234.20483398 355.29052734 C234.06297511 357.51689759 233.99224485 359.74781556 233.94848633 361.97827148 C233.93388367 362.67757782 233.91928101 363.37688416 233.90423584 364.09738159 C233.77794 370.5682512 233.70941321 377.04037024 233.65639305 383.51221561 C233.62067978 387.86005217 233.56751882 392.20603087 233.47094727 396.55297852 C233.37785262 400.75592916 233.32942874 404.95723812 233.31200027 409.16116142 C233.29794625 410.75963961 233.2683962 412.35806314 233.22269821 413.95594978 C232.76464276 422.94165525 232.76464276 422.94165525 236.16729736 430.95773315 C238.50183187 433.09542342 238.50183187 433.09542342 240.98135376 434.72532654 C246.67610716 438.73410184 249.39001348 445.86385826 250.61108398 452.49755859 C252.17092543 463.75323266 249.52555042 474.12036402 242.74389648 483.25927734 C236.68923144 489.99324627 227.39424747 494.77262032 218.35717773 495.52880859 C207.01632435 495.79062659 197.56531697 493.22839251 189.20483398 485.29052734 C181.6545903 477.16219075 178.54890443 468.36796805 178.6640625 457.33349609 C179.10900112 447.7018837 182.90932439 439.98725367 189.36108398 432.91162109 C191.20483398 431.29052734 191.20483398 431.29052734 193.77885437 430.0891571 C196.48846453 428.49028224 196.48846453 428.49028224 196.84407043 425.42414856 C196.85073227 424.25832748 196.8573941 423.09250641 196.86425781 421.89135742 C196.87474152 421.24718369 196.88522522 420.60300995 196.89602661 419.9393158 C196.92480367 417.81240832 196.9184833 415.68712605 196.91186523 413.56005859 C196.92497893 412.0845892 196.94028216 410.60913778 196.95768738 409.13371277 C196.99759002 405.25219279 197.00773108 401.37114182 197.01171875 397.48944092 C197.02267966 392.83117368 197.07052674 388.17315753 197.11220551 383.51508331 C197.17137329 376.44002037 197.18362027 369.36626452 197.20483398 362.29052734 C187.63483398 362.29052734 178.06483398 362.29052734 168.20483398 362.29052734 C167.54483398 365.59052734 166.88483398 368.89052734 166.20483398 372.29052734 C157.46272635 402.75236751 136.67189146 426.38063792 110.31469727 443.15844727 C108.20483398 444.29052734 108.20483398 444.29052734 105.23168945 445.33862305 C100.20101708 447.26624603 96.9946241 448.5969504 94.65039062 453.6237793 C93.46939812 457.71875485 92.82921527 461.89386873 92.20483398 466.10302734 C91.72353616 468.94627343 91.21546874 471.7844528 90.70483398 474.62255859 C90.58698547 475.30070618 90.46913696 475.97885376 90.34771729 476.67755127 C88.07611893 489.16807457 81.35092153 498.78127611 71.20483398 506.29052734 C60.31355526 512.97523188 47.30166355 514.18525161 34.90405273 511.60302734 C22.98357121 507.55647068 13.32711498 499.78603142 7.64624023 488.50146484 C5.6188778 483.91437501 4.52496759 479.42878352 3.74780273 474.49755859 C2.23394468 459.0960078 2.23394468 459.0960078 -5.41625977 446.70849609 C-8.73698303 444.90760228 -12.23063719 443.84663899 -15.8737793 442.890625 C-20.81400775 441.34766674 -24.82832705 437.49473156 -28.79516602 434.29052734 C-29.32770996 433.86336426 -29.86025391 433.43620117 -30.40893555 432.99609375 C-37.10280181 427.59608062 -43.54378423 422.15044049 -48.79516602 415.29052734 C-49.57375977 414.27474609 -50.35235352 413.25896484 -51.15454102 412.21240234 C-62.63997669 396.85673089 -70.01557722 381.18847133 -73.79516602 362.29052734 C-83.36516602 362.29052734 -92.93516602 362.29052734 -102.79516602 362.29052734 C-102.82074656 373.89930054 -102.82074656 373.89930054 -102.78149414 385.50732422 C-102.75109622 390.24348917 -102.72822308 394.97883957 -102.75048828 399.71508789 C-102.76796799 403.53466652 -102.75142697 407.35273398 -102.71148872 411.17212868 C-102.70220873 412.627708 -102.70509994 414.08341842 -102.72047234 415.53894615 C-103.12158915 423.34647974 -103.12158915 423.34647974 -100.25094604 430.24020386 C-98.1784425 431.79243724 -98.1784425 431.79243724 -94.79516602 433.29052734 C-86.84593042 442.18189457 -84.14692341 451.00803246 -84.45141602 462.79443359 C-85.45296743 472.9806667 -90.10773033 481.45937844 -97.89672852 488.07568359 C-106.72836143 494.42634543 -116.04020509 496.31480934 -126.79516602 495.29052734 C-137.61153831 493.41485585 -145.47605221 487.09558694 -151.79516602 478.29052734 C-156.87396537 469.22564002 -158.06675405 459.94689224 -155.67016602 449.85302734 C-153.92942102 443.99926626 -151.30192511 437.44262934 -145.88340759 434.11727905 C-141.98377808 431.51395473 -140.06446692 429.5425934 -139.06037903 424.87426758 C-138.69693638 420.52301346 -138.78822487 416.17520177 -138.87329102 411.81396484 C-138.87806548 410.19927561 -138.87986932 408.58457512 -138.87884521 406.96987915 C-138.88508356 403.59525409 -138.91807041 400.22233935 -138.97192383 396.84814453 C-139.03999568 392.52914854 -139.05517719 388.21202304 -139.0521431 383.89255333 C-139.05323202 380.562065 -139.07518787 377.23198326 -139.10414886 373.9016304 C-139.11684831 372.30929257 -139.12475411 370.71690886 -139.12772369 369.12452316 C-139.13642475 366.89830164 -139.17148481 364.67404009 -139.21411133 362.44824219 C-139.22935852 361.18362152 -139.24460571 359.91900085 -139.26031494 358.61605835 C-139.88709219 354.71896015 -141.15157864 353.15257465 -143.79516602 350.29052734 C-149.27987259 340.53993789 -149.40809041 326.96559944 -146.48657227 316.23974609 C-142.57301085 305.20659837 -136.15684518 298.67971168 -125.79516602 293.29052734 C-119.67788158 291.05946475 -114.10340802 291.08648891 -107.63891602 291.19287109 C-105.46053351 291.1969337 -103.28214606 291.19882058 -101.10375977 291.19873047 C-97.6928402 291.20684351 -94.28422937 291.22821542 -90.8737793 291.28686523 C-87.56509154 291.33813869 -84.26038358 291.33258439 -80.95141602 291.31787109 C-79.93768921 291.34872299 -78.9239624 291.37957489 -77.8795166 291.41136169 C-73.57485808 291.35345545 -70.88301833 291.28738153 -67.62626648 288.30305481 C-65.8602713 286.03534268 -64.31837197 283.72517652 -62.79516602 281.29052734 C-56.1635847 274.10147509 -48.05482878 269.3770816 -38.79516602 266.29052734 C-40.07649414 266.26474609 -41.35782227 266.23896484 -42.67797852 266.21240234 C-61.73339799 265.66178516 -77.0841869 262.18018814 -90.72485352 247.80615234 C-101.54774818 234.6553143 -104.02404132 220.72477875 -103.85766602 204.22802734 C-103.8531543 203.36242187 -103.84864258 202.49681641 -103.84399414 201.60498047 C-103.83236514 199.50013196 -103.81443675 197.39531976 -103.79516602 195.29052734 C-104.59438477 195.21576172 -105.39360352 195.14099609 -106.21704102 195.06396484 C-118.79057832 193.55868221 -129.26511163 188.8360644 -137.79516602 179.29052734 C-144.89871744 169.50756617 -148.90615168 158.5113697 -147.79516602 146.29052734 C-145.64844551 132.95381489 -140.47463526 121.71613441 -129.37329102 113.49755859 C-120.85725438 108.14197655 -113.76693407 106.0729615 -103.79516602 106.29052734 C-103.75552734 105.73292725 -103.71588867 105.17532715 -103.67504883 104.60083008 C-101.4839528 75.13906235 -92.47790449 51.48081768 -71.79516602 30.29052734 C-71.20219727 29.63568359 -70.60922852 28.98083984 -69.99829102 28.30615234 C-52.57419336 9.50192814 -25.11836246 -0.0219848 0 0 Z " fill="#3B96D2" transform="translate(208.795166015625,-0.29052734375)"/>
<path d="M0 0 C0.66721677 -0.00453111 1.33443354 -0.00906223 2.021869 -0.01373065 C4.23859454 -0.02630448 6.45507217 -0.02475886 8.67182922 -0.02310181 C10.2691377 -0.02909157 11.86644329 -0.03589815 13.46374512 -0.04345703 C17.7904602 -0.06108148 22.11709609 -0.06581099 26.4438436 -0.0670886 C29.15177778 -0.0685131 31.85969202 -0.07278842 34.56762123 -0.07808304 C44.02847693 -0.09657357 53.48927637 -0.10475512 62.95014954 -0.10317993 C71.74621603 -0.10197972 80.54203668 -0.12306089 89.33804101 -0.15466726 C96.90774547 -0.18089043 104.47736995 -0.19154466 112.04711944 -0.19026911 C116.56015379 -0.18976113 121.07296968 -0.19535286 125.58595848 -0.21662521 C129.83538141 -0.23610903 134.08437979 -0.23606344 138.33381844 -0.22159195 C139.88490805 -0.21951506 141.43602496 -0.22413724 142.98706818 -0.23631287 C159.33813789 -0.35625442 172.51715676 3.79372793 184.45039368 15.32992554 C186.72468936 17.65334207 188.06287999 19.37469773 189.4523468 22.35653687 C192.3192672 25.61571802 192.70533131 25.70987658 196.79048157 25.97689819 C198.77217968 25.99085463 200.75425153 25.97366483 202.73554993 25.93148804 C203.79140793 25.9357077 204.84726593 25.93992737 205.93511963 25.9442749 C209.31592147 25.95515271 212.69477388 25.92707635 216.07539368 25.89242554 C219.43076478 25.86827749 222.78523203 25.85326356 226.14068604 25.86199951 C228.22664526 25.86652696 230.31276401 25.85227674 232.39840698 25.81567383 C242.50907388 25.81935819 251.18361083 28.70105055 259.00508118 35.20492554 C268.07414905 44.52101082 270.25814732 55.68778711 270.26387024 68.21810913 C270.13775289 76.52847836 268.0493675 84.23095172 262.01289368 90.26742554 C261.8710348 92.49379579 261.80030454 94.72471376 261.75654602 96.95516968 C261.74194336 97.65447601 261.7273407 98.35378235 261.71229553 99.07427979 C261.58599969 105.5451494 261.5174729 112.01726844 261.46445274 118.48911381 C261.42873947 122.83695037 261.37557851 127.18292907 261.27900696 131.52987671 C261.18591231 135.73282735 261.13748843 139.93413632 261.12005997 144.13805962 C261.10600594 145.7365378 261.07645589 147.33496133 261.0307579 148.93284798 C260.57270245 157.91855345 260.57270245 157.91855345 263.97535706 165.93463135 C266.30989157 168.07232161 266.30989157 168.07232161 268.78941345 169.70222473 C274.48416685 173.71100003 277.19807317 180.84075645 278.41914368 187.47445679 C279.97898512 198.73013085 277.33361011 209.09726222 270.55195618 218.23617554 C264.49729113 224.97014447 255.20230716 229.74951851 246.16523743 230.50570679 C234.82438405 230.76752479 225.37337667 228.20529071 217.01289368 220.26742554 C209.46264999 212.13908895 206.35696412 203.34486624 206.47212219 192.31039429 C206.91706081 182.67878189 210.71738408 174.96415187 217.16914368 167.88851929 C219.01289368 166.26742554 219.01289368 166.26742554 221.58691406 165.0660553 C224.29652423 163.46718044 224.29652423 163.46718044 224.65213013 160.40104675 C224.65879196 159.23522568 224.6654538 158.0694046 224.6723175 156.86825562 C224.68280121 156.22408188 224.69328491 155.57990814 224.7040863 154.91621399 C224.73286336 152.78930652 224.726543 150.66402424 224.71992493 148.53695679 C224.73303862 147.0614874 224.74834185 145.58603597 224.76574707 144.11061096 C224.80564971 140.22909098 224.81579077 136.34804002 224.81977844 132.46633911 C224.83073935 127.80807188 224.87858643 123.15005572 224.9202652 118.49198151 C224.97943298 111.41691857 224.99167996 104.34316272 225.01289368 97.26742554 C215.44289368 97.26742554 205.87289368 97.26742554 196.01289368 97.26742554 C195.35289368 100.56742554 194.69289368 103.86742554 194.01289368 107.26742554 C185.27078604 137.7292657 164.47995116 161.35753611 138.12275696 178.13534546 C136.01289368 179.26742554 136.01289368 179.26742554 133.03974915 180.31552124 C128.00907678 182.24314422 124.80268379 183.57384859 122.45845032 188.60067749 C121.27745781 192.69565304 120.63727496 196.87076692 120.01289368 201.07992554 C119.53159585 203.92317162 119.02352843 206.761351 118.51289368 209.59945679 C118.33612091 210.61667816 118.33612091 210.61667816 118.15577698 211.65444946 C115.88417862 224.14497276 109.15898122 233.7581743 99.01289368 241.26742554 C88.12161495 247.95213007 75.10972325 249.1621498 62.71211243 246.57992554 C50.79163091 242.53336887 41.13517468 234.76292961 35.45429993 223.47836304 C33.42693749 218.89127321 32.33302728 214.40568171 31.55586243 209.47445679 C30.04200437 194.07290599 30.04200437 194.07290599 22.39179993 181.68539429 C19.07107666 179.88450048 15.5774225 178.82353719 11.9342804 177.86752319 C6.99405194 176.32456493 2.97973264 172.47162975 -0.98710632 169.26742554 C-1.51965027 168.84026245 -2.05219421 168.41309937 -2.60087585 167.97299194 C-9.29474211 162.57297881 -15.73572454 157.12733868 -20.98710632 150.26742554 C-22.15499695 148.74375366 -22.15499695 148.74375366 -23.34648132 147.18930054 C-34.83191699 131.83362908 -42.20751753 116.16536953 -45.98710632 97.26742554 C-55.55710632 97.26742554 -65.12710632 97.26742554 -74.98710632 97.26742554 C-75.01268686 108.87619874 -75.01268686 108.87619874 -74.97343445 120.48422241 C-74.94303652 125.22038736 -74.92016339 129.95573776 -74.94242859 134.69198608 C-74.95990829 138.51156471 -74.94336728 142.32963217 -74.90342903 146.14902687 C-74.89414903 147.60460619 -74.89704025 149.06031661 -74.91241264 150.51584435 C-75.31352946 158.32337794 -75.31352946 158.32337794 -72.44288635 165.21710205 C-70.3703828 166.76933543 -70.3703828 166.76933543 -66.98710632 168.26742554 C-59.03787073 177.15879276 -56.33886372 185.98493065 -56.64335632 197.77133179 C-57.64490773 207.95756489 -62.29967063 216.43627663 -70.08866882 223.05258179 C-78.92030174 229.40324362 -88.2321454 231.29170753 -98.98710632 230.26742554 C-109.80347861 228.39175404 -117.66799251 222.07248514 -123.98710632 213.26742554 C-129.06590567 204.20253821 -130.25869436 194.92379043 -127.86210632 184.82992554 C-126.12136133 178.97616446 -123.49386542 172.41952753 -118.0753479 169.09417725 C-114.17571839 166.49085292 -112.25640723 164.5194916 -111.25231934 159.85116577 C-110.88887669 155.49991165 -110.98016518 151.15209996 -111.06523132 146.79086304 C-111.07000579 145.1761738 -111.07180963 143.56147331 -111.07078552 141.94677734 C-111.07702387 138.57215228 -111.11001071 135.19923754 -111.16386414 131.82504272 C-111.23193599 127.50604673 -111.2471175 123.18892123 -111.2440834 118.86945152 C-111.24517232 115.53896319 -111.26712818 112.20888146 -111.29608917 108.87852859 C-111.30878862 107.28619077 -111.31669442 105.69380706 -111.319664 104.10142136 C-111.32836506 101.87519983 -111.36342511 99.65093829 -111.40605164 97.42514038 C-111.42129883 96.16051971 -111.43654602 94.89589905 -111.45225525 93.59295654 C-112.07903249 89.69585834 -113.34351895 88.12947284 -115.98710632 85.26742554 C-121.47181289 75.51683608 -121.60003072 61.94249763 -118.67851257 51.21664429 C-114.76495115 40.18349656 -108.34878549 33.65660988 -97.98710632 28.26742554 C-91.86982189 26.03636294 -86.29534833 26.0633871 -79.83085632 26.16976929 C-77.65247382 26.17383189 -75.47408636 26.17571878 -73.29570007 26.17562866 C-69.8847805 26.1837417 -66.47616968 26.20511362 -63.0657196 26.26376343 C-59.75703185 26.31503688 -56.45232388 26.30948258 -53.14335632 26.29476929 C-52.12962952 26.32562119 -51.11590271 26.35647308 -50.07145691 26.38825989 C-45.76679839 26.33035364 -43.07495863 26.26427973 -39.81820679 23.279953 C-38.05221161 21.01224087 -36.51031228 18.70207472 -34.98710632 16.26742554 C-25.91100515 6.42835965 -13.49351683 0.03808979 0 0 Z " fill="#297FB8" transform="translate(180.9871063232422,264.7325744628906)"/>
<path d="M0 0 C1.2059079 -0.00335861 2.4118158 -0.00671722 3.65426636 -0.01017761 C6.94149209 -0.018016 10.22867979 -0.02135314 13.51591372 -0.0219934 C15.57438915 -0.02270708 17.63285806 -0.02484736 19.69133186 -0.02749062 C26.8858596 -0.03672292 34.08036888 -0.04082799 41.27490234 -0.04003906 C47.9607221 -0.03943823 54.6464612 -0.04999665 61.33226055 -0.06578273 C67.09132973 -0.07889181 72.85037263 -0.08422158 78.6094566 -0.08358365 C82.04082367 -0.08332974 85.4721189 -0.08612199 88.90347099 -0.0967617 C92.73259013 -0.10658254 96.56150238 -0.10367533 100.390625 -0.09765625 C101.51454147 -0.10327576 102.63845795 -0.10889526 103.7964325 -0.11468506 C122.49735159 -0.04016265 139.59126953 7.14787619 152.96704102 20.22338867 C170.30359858 37.93031013 174.44622249 58.51514054 174.23706055 82.33422852 C174.06945966 92.36310343 173.01861959 101.63057714 169.76000977 111.14526367 C169.48286133 112.06049805 169.20571289 112.97573242 168.92016602 113.91870117 C163.21972367 130.57344977 149.18802902 144.29842479 133.76000977 152.14526367 C128.89648355 154.2525888 123.8810761 155.78728123 118.76000977 157.14526367 C118.12738944 157.31761347 117.49476912 157.48996326 116.84297848 157.66753578 C110.55944212 159.23689046 104.55561498 159.44135236 98.10009766 159.43579102 C96.96702179 159.44250824 95.83394592 159.44922546 94.66653442 159.45614624 C90.93853302 159.47506618 87.21071239 159.47904812 83.48266602 159.48120117 C80.87064034 159.48763563 78.25861538 159.49436446 75.64659119 159.50137329 C70.17356199 159.514133 64.70058112 159.51714181 59.22753906 159.51586914 C52.94791329 159.51467231 46.66863375 159.53569245 40.38909537 159.56735647 C34.30170279 159.59693191 28.21447281 159.60383775 22.12701225 159.60264969 C19.56011993 159.60499059 16.99322432 159.61372754 14.42637825 159.62931442 C-10.57908037 159.76688392 -31.86683855 157.56011843 -51.23999023 140.14526367 C-51.85100586 139.62706055 -52.46202148 139.10885742 -53.09155273 138.57495117 C-63.25485045 129.3398085 -68.70281206 117.1291225 -72.23999023 104.14526367 C-72.58312256 102.90953613 -72.92625488 101.67380859 -73.27978516 100.40063477 C-74.79081808 94.30478322 -74.61195426 88.13550555 -74.6105957 81.89428711 C-74.61492693 79.67765938 -74.65120166 77.46309747 -74.68920898 75.24682617 C-74.84924826 55.13867407 -68.86404956 37.26497821 -55.23999023 22.14526367 C-54.68698242 21.51104492 -54.13397461 20.87682617 -53.56420898 20.22338867 C-39.41597046 4.96084974 -19.97891027 -0.00804142 0 0 Z " fill="#65DBB7" transform="translate(206.239990234375,70.854736328125)"/>
<path d="M0 0 C1.2059079 -0.00335861 2.4118158 -0.00671722 3.65426636 -0.01017761 C6.94149209 -0.018016 10.22867979 -0.02135314 13.51591372 -0.0219934 C15.57438915 -0.02270708 17.63285806 -0.02484736 19.69133186 -0.02749062 C26.8858596 -0.03672292 34.08036888 -0.04082799 41.27490234 -0.04003906 C47.9607221 -0.03943823 54.6464612 -0.04999665 61.33226055 -0.06578273 C67.09132973 -0.07889181 72.85037263 -0.08422158 78.6094566 -0.08358365 C82.04082367 -0.08332974 85.4721189 -0.08612199 88.90347099 -0.0967617 C92.73259013 -0.10658254 96.56150238 -0.10367533 100.390625 -0.09765625 C101.51454147 -0.10327576 102.63845795 -0.10889526 103.7964325 -0.11468506 C122.49735159 -0.04016265 139.59126953 7.14787619 152.96704102 20.22338867 C170.30359858 37.93031013 174.44622249 58.51514054 174.23706055 82.33422852 C174.06945966 92.36310343 173.01861959 101.63057714 169.76000977 111.14526367 C169.48286133 112.06049805 169.20571289 112.97573242 168.92016602 113.91870117 C163.21972367 130.57344977 149.18802902 144.29842479 133.76000977 152.14526367 C128.89648355 154.2525888 123.8810761 155.78728123 118.76000977 157.14526367 C118.12738944 157.31761347 117.49476912 157.48996326 116.84297848 157.66753578 C110.55944212 159.23689046 104.55561498 159.44135236 98.10009766 159.43579102 C96.96702179 159.44250824 95.83394592 159.44922546 94.66653442 159.45614624 C90.93853302 159.47506618 87.21071239 159.47904812 83.48266602 159.48120117 C80.87064034 159.48763563 78.25861538 159.49436446 75.64659119 159.50137329 C70.17356199 159.514133 64.70058112 159.51714181 59.22753906 159.51586914 C52.94791329 159.51467231 46.66863375 159.53569245 40.38909537 159.56735647 C34.30170279 159.59693191 28.21447281 159.60383775 22.12701225 159.60264969 C19.56011993 159.60499059 16.99322432 159.61372754 14.42637825 159.62931442 C-10.57908037 159.76688392 -31.86683855 157.56011843 -51.23999023 140.14526367 C-51.85100586 139.62706055 -52.46202148 139.10885742 -53.09155273 138.57495117 C-63.25485045 129.3398085 -68.70281206 117.1291225 -72.23999023 104.14526367 C-72.58312256 102.90953613 -72.92625488 101.67380859 -73.27978516 100.40063477 C-74.79081808 94.30478322 -74.61195426 88.13550555 -74.6105957 81.89428711 C-74.61492693 79.67765938 -74.65120166 77.46309747 -74.68920898 75.24682617 C-74.84924826 55.13867407 -68.86404956 37.26497821 -55.23999023 22.14526367 C-54.68698242 21.51104492 -54.13397461 20.87682617 -53.56420898 20.22338867 C-39.41597046 4.96084974 -19.97891027 -0.00804142 0 0 Z M-45.23999023 37.14526367 C-54.22838445 49.28397617 -56.78690591 61.81290718 -56.7409668 76.67749023 C-56.73999738 78.87903096 -56.7816907 81.07703804 -56.82592773 83.27807617 C-56.9644999 99.71917491 -51.87515773 113.98661745 -40.67749023 126.33276367 C-28.92486852 137.40209342 -14.86443277 141.60824518 0.9699707 141.56518555 C2.13741821 141.57365509 3.30486572 141.58212463 4.50769043 141.59085083 C8.33670182 141.61409757 12.16530837 141.61524577 15.99438477 141.61401367 C17.9985736 141.61932333 20.00276256 141.62464087 22.00694871 141.63088083 C28.30130047 141.65003963 34.59551967 141.65302688 40.88989258 141.64624023 C47.34238831 141.63960995 53.7943109 141.66243971 60.24669051 141.69955397 C65.82250515 141.73043998 71.39813724 141.74159059 76.9740355 141.73771715 C80.28834903 141.73566843 83.60212266 141.74313491 86.91637421 141.76560974 C107.93714095 141.89246791 124.84053748 140.35964827 141.01000977 125.45776367 C152.69898824 113.00229481 156.47294407 97.93480384 156.28149414 81.35229492 C156.26002424 79.14675036 156.28142223 76.94446098 156.30688477 74.73901367 C156.33903138 58.98684399 152.01941803 44.56410035 141.01000977 32.83276367 C128.16853896 20.86401418 114.00177561 16.8305594 96.87548828 16.87060547 C95.73102234 16.86549454 94.5865564 16.86038361 93.40740967 16.8551178 C89.65119086 16.84129909 85.89515711 16.84217262 82.13891602 16.84448242 C79.51155022 16.84059159 76.88418505 16.83625613 74.25682068 16.83149719 C68.76038999 16.8233108 63.26401078 16.82417468 57.76757812 16.82958984 C51.43956681 16.83562896 45.11177788 16.82331068 38.78380448 16.80201977 C32.6638227 16.782196 26.54394399 16.77923977 20.42393303 16.7827549 C17.83451757 16.78224332 15.24509843 16.77703653 12.65570259 16.76694298 C9.02827176 16.75453607 5.40134915 16.761396 1.77392578 16.77294922 C0.18770668 16.76148361 0.18770668 16.76148361 -1.43055725 16.74978638 C-18.55446308 16.86966456 -34.15123582 24.02323674 -45.23999023 37.14526367 Z " fill="#E8EDEF" transform="translate(206.239990234375,70.854736328125)"/>
<path d="M0 0 C1.07770157 0.0028299 2.15540314 0.00565979 3.26576233 0.00857544 C6.68900924 0.01972057 10.11198916 0.04481494 13.53515625 0.0703125 C15.8639285 0.08034961 18.19270487 0.08947418 20.52148438 0.09765625 C26.2136319 0.11964134 31.90562499 0.15306237 37.59765625 0.1953125 C37.40429688 0.76378906 37.2109375 1.33226562 37.01171875 1.91796875 C36.46752339 3.53169656 35.92985202 5.14763413 35.39753723 6.76531982 C34.75188589 8.72677167 34.09065124 10.68308994 33.42456055 12.63769531 C32.36602965 17.19184714 32.32965363 21.45877977 32.3671875 26.1171875 C32.36764572 27.05782043 32.36810394 27.99845337 32.36857605 28.96759033 C32.37158567 30.95106269 32.37943311 32.93453295 32.3918457 34.91796875 C32.41001502 37.92196228 32.41235561 40.9256449 32.41210938 43.9296875 C32.41702918 45.86719011 32.42285951 47.80469067 32.4296875 49.7421875 C32.43080032 50.62590027 32.43191315 51.50961304 32.43305969 52.42010498 C32.48035201 58.77646139 33.01725496 64.81089827 33.59765625 71.1953125 C24.02765625 71.1953125 14.45765625 71.1953125 4.59765625 71.1953125 C4.57207571 82.8040857 4.57207571 82.8040857 4.61132812 94.41210938 C4.64172605 99.14827432 4.66459918 103.88362472 4.64233398 108.61987305 C4.62485428 112.43945167 4.6413953 116.25751913 4.68133354 120.07691383 C4.69061354 121.53249316 4.68772232 122.98820358 4.67234993 124.44373131 C4.27123311 132.2512649 4.27123311 132.2512649 7.14187622 139.14498901 C9.21437977 140.69722239 9.21437977 140.69722239 12.59765625 142.1953125 C20.54689185 151.08667972 23.24589885 159.91281762 22.94140625 171.69921875 C21.93985484 181.88545185 17.28509194 190.3641636 9.49609375 196.98046875 C0.66446083 203.33113058 -8.64738283 205.21959449 -19.40234375 204.1953125 C-30.21871604 202.319641 -38.08322994 196.0003721 -44.40234375 187.1953125 C-49.4811431 178.13042518 -50.67393178 168.85167739 -48.27734375 158.7578125 C-46.53659875 152.90405142 -43.90910285 146.3474145 -38.49058533 143.02206421 C-34.59095581 140.41873988 -32.67164466 138.44737856 -31.66755676 133.77905273 C-31.30411411 129.42779862 -31.39540261 125.07998693 -31.48046875 120.71875 C-31.48524321 119.10406077 -31.48704706 117.48936027 -31.48602295 115.87466431 C-31.49226129 112.50003924 -31.52524814 109.12712451 -31.57910156 105.75292969 C-31.64717341 101.4339337 -31.66235493 97.11680819 -31.65932083 92.79733849 C-31.66040975 89.46685015 -31.6823656 86.13676842 -31.7113266 82.80641556 C-31.72402604 81.21407773 -31.73193184 79.62169402 -31.73490143 78.02930832 C-31.74360249 75.8030868 -31.77866254 73.57882525 -31.82128906 71.35302734 C-31.83653625 70.08840668 -31.85178345 68.82378601 -31.86749268 67.52084351 C-32.49426992 63.6237453 -33.75875637 62.0573598 -36.40234375 59.1953125 C-41.88705032 49.44472304 -42.01526815 35.87038459 -39.09375 25.14453125 C-35.18018858 14.11138352 -28.76402292 7.58449684 -18.40234375 2.1953125 C-12.23496243 -0.05299538 -6.52042676 -0.06498838 0 0 Z " fill="#285680" transform="translate(101.40234375,290.8046875)"/>
<path d="M0 0 C6.77680466 -0.10212012 13.55340805 -0.17176532 20.33081055 -0.21972656 C22.63231827 -0.23973827 24.93377582 -0.26695631 27.23510742 -0.30175781 C30.55920862 -0.35073699 33.88263276 -0.37307401 37.20703125 -0.390625 C38.2220723 -0.41127014 39.23711334 -0.43191528 40.28291321 -0.45318604 C50.43826756 -0.45631623 59.13401669 2.40310707 66.9921875 8.9375 C76.06125537 18.25358528 78.24525365 29.42036158 78.25097656 41.95068359 C78.12485921 50.26105282 76.03647382 57.96352618 70 64 C69.85814113 66.22637025 69.78741087 68.45728822 69.74365234 70.68774414 C69.72904968 71.38705048 69.71444702 72.08635681 69.69940186 72.80685425 C69.57310601 79.27772386 69.50457922 85.7498429 69.45155907 92.22168827 C69.4158458 96.56952483 69.36268484 100.91550353 69.26611328 105.26245117 C69.17301864 109.46540181 69.12459476 113.66671078 69.10716629 117.87063408 C69.09311226 119.46911227 69.06356221 121.0675358 69.01786423 122.66542244 C68.55980878 131.65112791 68.55980878 131.65112791 71.96246338 139.66720581 C74.29699789 141.80489607 74.29699789 141.80489607 76.77651978 143.43479919 C82.47127318 147.4435745 85.1851795 154.57333091 86.40625 161.20703125 C87.96609145 172.46270532 85.32071643 182.82983668 78.5390625 191.96875 C72.48439745 198.70271893 63.18941349 203.48209297 54.15234375 204.23828125 C42.81149037 204.50009925 33.36048299 201.93786517 25 194 C17.44975631 185.87166341 14.34407045 177.0774407 14.45922852 166.04296875 C14.90416713 156.41135636 18.7044904 148.69672633 25.15625 141.62109375 C27 140 27 140 29.57402039 138.79862976 C32.28363055 137.1997549 32.28363055 137.1997549 32.63923645 134.13362122 C32.64589828 132.96780014 32.65256012 131.80197906 32.65942383 130.60083008 C32.67514938 129.63456947 32.67514938 129.63456947 32.69119263 128.64878845 C32.71996968 126.52188098 32.71364932 124.39659871 32.70703125 122.26953125 C32.72014495 120.79406186 32.73544817 119.31861043 32.75285339 117.84318542 C32.79275603 113.96166544 32.80289709 110.08061448 32.80688477 106.19891357 C32.81784567 101.54064634 32.86569275 96.88263018 32.90737152 92.22455597 C32.9665393 85.14949303 32.97878629 78.07573718 33 71 C23.43 71 13.86 71 4 71 C4.33 67.37 4.66 63.74 5 60 C5.2393671 53.71312919 5.31138394 47.43135928 5.35009766 41.14038086 C5.36665494 39.17704411 5.39394201 37.21376759 5.43212891 35.25073242 C5.66890128 22.95195159 4.93859936 13.32441141 0 2 C0 1.34 0 0.68 0 0 Z " fill="#285680" transform="translate(373,291)"/>
<path d="M0 0 C1.23234375 0.144375 2.4646875 0.28875 3.734375 0.4375 C18.83638983 2.46073644 33.46739895 7.56805627 48 12 C46.08925429 16.23655131 43.18646687 18.79366873 39.6875 21.75 C39.06375488 22.27932129 38.44000977 22.80864258 37.79736328 23.35400391 C31.26944077 28.77773352 24.16585829 34.22967294 16.07128906 37.00366211 C11.02792001 38.93756545 7.79449118 40.2979104 5.44287109 45.3359375 C4.26392753 49.43001216 3.62417776 53.60471341 3 57.8125 C2.51870217 60.65574609 2.01063475 63.49392546 1.5 66.33203125 C1.32322723 67.34925262 1.32322723 67.34925262 1.1428833 68.38702393 C-1.12871505 80.87754722 -7.85391245 90.49074876 -18 98 C-28.89127872 104.68470453 -41.90317043 105.89472427 -54.30078125 103.3125 C-66.22126277 99.26594333 -75.877719 91.49550407 -81.55859375 80.2109375 C-83.58595619 75.62384767 -84.6798664 71.13825617 -85.45703125 66.20703125 C-86.97088931 50.80548045 -86.97088931 50.80548045 -94.62109375 38.41796875 C-97.94181702 36.61707494 -101.43547117 35.55611165 -105.07861328 34.60009766 C-110.01817391 33.05734797 -114.03405745 29.20434619 -118 26 C-118.56444824 25.54625 -119.12889648 25.0925 -119.71044922 24.625 C-121.52548 23.15775663 -123.32784449 21.67657171 -125.125 20.1875 C-125.69436279 19.71916748 -126.26372559 19.25083496 -126.8503418 18.76831055 C-129.46733263 16.55270113 -130.8947209 15.31583729 -132 12 C-89.3284074 -2.3388377 -44.64942914 -5.68782537 0 0 Z " fill="#27567F" transform="translate(298,408)"/>
<path d="M0 0 C3.66232198 0.63290613 7.12944751 1.63915457 10.66845703 2.76489258 C36.6871217 10.92720426 64.46015684 10.2666026 90.0234375 0.98828125 C93 0 93 0 96 0 C95.34604062 6.95640304 94.16318743 13.67326361 92.6875 20.5 C92.48705078 21.48097656 92.28660156 22.46195312 92.08007812 23.47265625 C89.15551017 37.07234998 83.30955824 47.62964899 72 56 C61.10872128 62.68470453 48.09682957 63.89472427 35.69921875 61.3125 C25.0041145 57.68191298 15.26326734 50.7856491 9.77075195 40.75512695 C6.10982311 33.27146407 4.30987734 25.70007078 2.6875 17.5625 C2.42388672 16.31017578 2.16027344 15.05785156 1.88867188 13.76757812 C0 4.62836851 0 4.62836851 0 0 Z " fill="#454E5C" transform="translate(208,450)"/>
<path d="M0 0 C7.56990477 5.39425806 13.40715104 13.75578729 15 23 C16.07244071 34.28743852 14.46672194 43.52753916 7.8125 52.8125 C1.05385057 60.85097879 -7.51356349 65.28606168 -17.94921875 66.28125 C-28.61535894 66.60901871 -37.08179648 64.27618702 -45 57 C-52.95543393 49.28859778 -56.50329699 41.32636935 -57.25 30.3125 C-57.0357139 19.08390821 -52.28526874 9.88252885 -44.3125 2.1875 C-31.53659769 -8.15833427 -13.98171425 -7.49372555 0 0 Z " fill="#28567F" transform="translate(109,429)"/>
<path d="M0 0 C8.61631777 4.4584435 14.132699 11.51458269 17.9375 20.265625 C20.64699999 31.55520829 19.77962434 41.82350771 14.1484375 52.109375 C8.86919671 60.35289538 0.95316261 65.0307149 -8.296875 68.03515625 C-19.29764922 69.97521527 -29.4580469 67.99499022 -38.625 61.640625 C-46.50858177 55.19188735 -51.60438898 46.78347779 -52.73046875 36.6171875 C-53.29517734 25.78730258 -50.976593 16.7536012 -44.25 8.015625 C-33.05905888 -3.81762179 -14.64838814 -5.65236716 0 0 Z " fill="#285680" transform="translate(440.3125,426.609375)"/>
<path d="M0 0 C14.41919013 2.0598843 25.35124676 5.0178298 35 16 C41.87230175 25.3372209 46.56048685 37.22153074 45 49 C42.80102212 62.34728433 37.70833768 73.55302097 26.578125 81.79296875 C17.83102236 87.29386404 10.45965084 88.95403492 0 90 C0 60.3 0 30.6 0 0 Z " fill="#2880B9" transform="translate(406,105)"/>
<path d="M0 0 C0 29.37 0 58.74 0 89 C-15.04521839 87.49547816 -26.32372041 83.22298334 -36.2109375 71.484375 C-42.63355199 62.56563523 -46.22044378 51.02213293 -45 40 C-42.82725288 26.65797469 -37.69385438 15.43625671 -26.578125 7.20703125 C-17.57266242 1.54365804 -10.93539934 0 0 0 Z " fill="#2880B9" transform="translate(106,106)"/>
<path d="M0 0 C1.56260056 -0.00430527 1.56260056 -0.00430527 3.1567688 -0.00869751 C5.357285 -0.01073611 7.5578194 -0.00522055 9.75830078 0.00732422 C13.11402286 0.02334778 16.46853458 0.00748473 19.82421875 -0.01171875 C21.96614848 -0.00973565 24.10807745 -0.00589059 26.25 0 C27.24812714 -0.00607269 28.24625427 -0.01214539 29.27462769 -0.0184021 C35.70075531 0.04594895 40.90997647 0.62451622 46.03515625 4.87109375 C49.12969983 9.11176458 49.81563973 12.55739401 49.82421875 17.7734375 C48.34259278 24.64000752 43.67711239 29.44720697 38.9453125 34.3359375 C37.78290959 35.5589988 36.62144387 36.78295152 35.4609375 38.0078125 C34.63045898 38.88083008 34.63045898 38.88083008 33.78320312 39.77148438 C31.33473075 42.38297923 29.01804733 45.10171095 26.72265625 47.84765625 C22.73092506 52.073569 19.5705209 53.22712577 13.8828125 53.6484375 C6.28778886 53.12464277 2.08088758 48.8120932 -2.7421875 43.3984375 C-5.01223581 40.68585269 -7.24232252 37.94543917 -9.45703125 35.1875 C-12.2570032 31.77009834 -15.20901017 28.51361303 -18.2109375 25.2734375 C-21.23116688 21.57519745 -21.13660406 17.54848618 -21.08984375 12.97265625 C-20.4113675 7.94888264 -17.63442165 4.93691135 -13.81469727 1.83129883 C-9.25320551 -0.2959475 -4.97457914 -0.03014351 0 0 Z " fill="#64DBB8" transform="translate(241.7421875,308.6015625)"/>
<path d="M0 0 C0 24.09 0 48.18 0 73 C-5 72 -5 72 -7.82421875 70.95703125 C-11.53452159 69.83892031 -14.97520131 69.66910451 -18.8125 69.6875 C-19.47314453 69.67138672 -20.13378906 69.65527344 -20.81445312 69.63867188 C-26.75207269 69.63292394 -29.89458634 70.96486211 -36 73 C-36 51.22 -36 29.44 -36 7 C-28.41 6.67 -20.82 6.34 -13 6 C-8.63873659 4.06166071 -4.77260702 0 0 0 Z " fill="#A3A3A2" transform="translate(442,355)"/>
<path d="M0 0 C3.96 1.98 7.92 3.96 12 6 C19.92 6.33 27.84 6.66 36 7 C36 28.78 36 50.56 36 73 C32.7 72.01 29.4 71.02 26 70 C21.92283378 69.53529118 21.92283378 69.53529118 18 69.625 C16.72125 69.61726563 15.4425 69.60953125 14.125 69.6015625 C8.92958003 69.96882342 8.92958003 69.96882342 0 73 C0 48.91 0 24.82 0 0 Z " fill="#A3A3A2" transform="translate(70,355)"/>
<path d="M0 0 C9.06694861 4.41531791 15.5503978 11.84088416 19.5 21.0625 C21.34419597 26.91633495 21.69561369 33.67127262 18.9375 39.1875 C15.6393393 41.72454669 13.66115024 42.20598794 9.5 42.0625 C6.33841063 40.48170532 5.33428145 39.92017629 3.5 37.0625 C2.46631528 33.76554591 1.75371861 30.52061922 1.140625 27.12109375 C0.56845678 24.38933938 -0.04195126 22.42078337 -1.5 20.0625 C-3.26529595 18.84559467 -3.26529595 18.84559467 -5.5 18.0625 C-6.428125 17.69125 -7.35625 17.32 -8.3125 16.9375 C-14.53127919 15.23038414 -19.14313121 15.70320087 -24.7109375 18.8203125 C-29.62127888 22.22967616 -30.70776811 26.63343617 -31.9375 32.1875 C-32.81143442 35.94962409 -33.3061778 37.82022225 -35.75 40.875 C-39.4943577 42.49188174 -41.60894806 42.19444238 -45.5 41.0625 C-48.26779498 38.91584393 -49.36215735 37.70695913 -50.1015625 34.25 C-50.18114439 23.42686325 -46.6386517 15.18625864 -39.5 7.0625 C-37.38671875 5.3671875 -37.38671875 5.3671875 -35.1875 3.9375 C-34.46949219 3.46054688 -33.75148438 2.98359375 -33.01171875 2.4921875 C-22.76077158 -3.34272178 -11.13447358 -4.13076106 0 0 Z " fill="#46515E" transform="translate(323.5,125.9375)"/>
<path d="M0 0 C8.46140092 4.87171568 14.63230807 13.02045399 17.44921875 22.41015625 C18.75669324 33.05484759 18.75669324 33.05484759 16.34765625 37.39453125 C13.64237365 39.96961309 11.48744152 40.40883822 7.82421875 40.53515625 C3.66353262 39.14826087 2.56387837 38.24787187 0.44921875 34.41015625 C0.0702298 32.77423271 -0.25937859 31.12642859 -0.55078125 29.47265625 C-1.35972558 24.89770221 -2.30657491 21.90391692 -5.55078125 18.41015625 C-10.66475097 15.23870216 -15.48897659 13.60954054 -21.55078125 14.41015625 C-24.7679107 15.76829632 -24.7679107 15.76829632 -27.55078125 17.41015625 C-28.54078125 17.74015625 -29.53078125 18.07015625 -30.55078125 18.41015625 C-31.69287942 20.19244561 -31.69287942 20.19244561 -32.55078125 22.41015625 C-33.07671875 23.52390625 -33.07671875 23.52390625 -33.61328125 24.66015625 C-34.46153387 27.14836394 -34.66039238 28.83474659 -34.80078125 31.41015625 C-35.15241593 34.60518169 -35.83139941 36.24611371 -38.17578125 38.47265625 C-41.55078125 40.41015625 -41.55078125 40.41015625 -45.17578125 40.53515625 C-48.55078125 39.41015625 -48.55078125 39.41015625 -50.98828125 37.53515625 C-53.7153134 32.08109195 -53.29771596 26.68479717 -51.9609375 20.82421875 C-48.78955578 11.55852285 -41.86415759 4.22476814 -33.47265625 -0.65234375 C-32.8384375 -0.96171875 -32.20421875 -1.27109375 -31.55078125 -1.58984375 C-30.81472656 -1.95207031 -30.07867187 -2.31429687 -29.3203125 -2.6875 C-19.88943191 -5.76018465 -8.7386906 -4.27993169 0 0 Z " fill="#46515E" transform="translate(220.55078125,127.58984375)"/>
</svg>
