<svg xmlns="http://www.w3.org/2000/svg" viewBox="0 0 139.787 209.067" id="user"><defs><linearGradient id="a" x1="110.516" x2="70.408" y1="124.576" y2="163.574" gradientUnits="userSpaceOnUse"><stop offset=".326" stop-color="#fff"></stop><stop offset=".888"></stop><stop offset="1"></stop></linearGradient><linearGradient id="b" x1="106.447" x2="85.36" y1="62.965" y2="50.916" gradientUnits="userSpaceOnUse"><stop offset="0" stop-color="#fff"></stop><stop offset="1"></stop></linearGradient><linearGradient id="c" x2="19.695" y1="140.995" y2="140.995" gradientUnits="userSpaceOnUse"><stop offset="0" stop-color="#66afe3"></stop><stop offset=".103" stop-color="#58a2d6"></stop><stop offset=".449" stop-color="#2e79ae"></stop><stop offset=".721" stop-color="#145f95"></stop><stop offset=".882" stop-color="#0a568c"></stop><stop offset=".904" stop-color="#0a5d86"></stop><stop offset=".938" stop-color="#0b7276"></stop><stop offset=".979" stop-color="#0d935c"></stop><stop offset="1" stop-color="#0ea84c"></stop></linearGradient><linearGradient id="d" x1="4.512" x2="138.308" y1="138.298" y2="138.298" gradientUnits="userSpaceOnUse"><stop offset="0" stop-color="#abebff"></stop><stop offset=".036" stop-color="#9ae0fb"></stop><stop offset=".17" stop-color="#5fbbed"></stop><stop offset=".285" stop-color="#35a0e3"></stop><stop offset=".374" stop-color="#1b8fdd"></stop><stop offset=".427" stop-color="#1189db"></stop><stop offset=".674" stop-color="#0c68ab"></stop><stop offset=".74" stop-color="#0c6caf"></stop><stop offset=".811" stop-color="#0e7aba"></stop><stop offset=".886" stop-color="#108fcc"></stop><stop offset=".961" stop-color="#13aee5"></stop><stop offset="1" stop-color="#15c0f5"></stop></linearGradient><linearGradient id="f" x1="106.325" x2="53.06" y1="108.729" y2="142.972" gradientUnits="userSpaceOnUse"><stop offset="0" stop-color="#6de2f2"></stop><stop offset=".497" stop-color="#80d6f7"></stop><stop offset=".882" stop-color="#8ad0fa"></stop></linearGradient><linearGradient id="g" x1="94.309" x2="139.787" y1="180.976" y2="180.976" gradientUnits="userSpaceOnUse"><stop offset=".163" stop-color="#2da8f0"></stop><stop offset=".359" stop-color="#1990d5"></stop><stop offset=".578" stop-color="#077bbe"></stop><stop offset=".713" stop-color="#0073b5"></stop><stop offset=".783" stop-color="#037abc"></stop><stop offset=".888" stop-color="#0a8fd0"></stop><stop offset="1" stop-color="#14aced"></stop></linearGradient><linearGradient id="h" x1="37.661" x2="93.711" y1="126.572" y2="126.572" gradientUnits="userSpaceOnUse"><stop offset=".006" stop-color="#4fd6ff"></stop><stop offset=".168" stop-color="#49cbf7"></stop><stop offset=".449" stop-color="#37afe0"></stop><stop offset=".814" stop-color="#1c81bc"></stop><stop offset="1" stop-color="#0c67a8"></stop></linearGradient><linearGradient id="i" x1="38.351" x2="94.848" y1="107.783" y2="107.783" gradientUnits="userSpaceOnUse"><stop offset="0" stop-color="#ebfbff"></stop><stop offset=".109" stop-color="#dbf2fa"></stop><stop offset=".32" stop-color="#b3dbef"></stop><stop offset=".612" stop-color="#71b6db"></stop><stop offset=".971" stop-color="#1883c1"></stop><stop offset="1" stop-color="#107fbf"></stop></linearGradient><linearGradient id="j" x1="44.213" x2="91.63" y1="99.883" y2="99.883" gradientUnits="userSpaceOnUse"><stop offset="0" stop-color="#c28469"></stop><stop offset=".05" stop-color="#c4886c"></stop><stop offset=".432" stop-color="#d5a383"></stop><stop offset=".657" stop-color="#dbad8c"></stop><stop offset=".728" stop-color="#deb394"></stop><stop offset=".835" stop-color="#e7c4a9"></stop><stop offset=".965" stop-color="#f6dfcb"></stop><stop offset="1" stop-color="#fae7d5"></stop></linearGradient><linearGradient id="k" x1="43.737" x2="91.628" y1="110.618" y2="110.618" gradientUnits="userSpaceOnUse"><stop offset="0" stop-color="#9e5444"></stop><stop offset=".072" stop-color="#a45c4b"></stop><stop offset=".487" stop-color="#c2886e"></stop><stop offset=".81" stop-color="#d4a384"></stop><stop offset="1" stop-color="#dbad8c"></stop></linearGradient><linearGradient id="l" x1="42.996" x2="83.103" y1="46.974" y2="92.154" gradientUnits="userSpaceOnUse"><stop offset="0" stop-color="#592f26"></stop><stop offset=".251" stop-color="#6a3c31"></stop><stop offset=".723" stop-color="#855142"></stop><stop offset="1" stop-color="#8f5949"></stop></linearGradient><linearGradient id="m" x1="39.538" x2="80.2" y1="44.023" y2="89.828" gradientUnits="userSpaceOnUse"><stop offset=".006" stop-color="#fae7d5"></stop><stop offset=".713" stop-color="#e8b794"></stop><stop offset=".8" stop-color="#ebbc9a"></stop><stop offset=".919" stop-color="#f3ccac"></stop><stop offset="1" stop-color="#fadabc"></stop></linearGradient><linearGradient id="n" x1="19.959" x2="103.68" y1="48.552" y2="48.552" gradientUnits="userSpaceOnUse"><stop offset="0" stop-color="#302419"></stop><stop offset=".543" stop-color="#422615"></stop><stop offset="1" stop-color="#4c2712"></stop></linearGradient><linearGradient id="o" x1="16.135" x2="107.273" y1="43.76" y2="43.76" gradientUnits="userSpaceOnUse"><stop offset="0" stop-color="#c79465"></stop><stop offset=".02" stop-color="#c49163"></stop><stop offset=".305" stop-color="#986a47"></stop><stop offset=".527" stop-color="#7d5236"></stop><stop offset=".657" stop-color="#734930"></stop><stop offset=".757" stop-color="#774c33"></stop><stop offset=".85" stop-color="#82553b"></stop><stop offset=".939" stop-color="#956448"></stop><stop offset="1" stop-color="#a67254"></stop></linearGradient><linearGradient id="p" x1="92.83" x2="92.83" y1="211.332" y2="211.332" gradientUnits="userSpaceOnUse"><stop offset="0" stop-color="#a0f26d"></stop><stop offset=".063" stop-color="#92e66b"></stop><stop offset=".344" stop-color="#57b662"></stop><stop offset=".584" stop-color="#2d935c"></stop><stop offset=".771" stop-color="#137d58"></stop><stop offset=".882" stop-color="#097557"></stop></linearGradient><linearGradient id="r" x1="84.226" x2="103.886" y1="50.625" y2="60.614" gradientUnits="userSpaceOnUse"><stop offset=".163" stop-color="#593925"></stop><stop offset=".313" stop-color="#5d3c27"></stop><stop offset=".454" stop-color="#68442d"></stop><stop offset=".59" stop-color="#7b5138"></stop><stop offset=".724" stop-color="#956447"></stop><stop offset=".857" stop-color="#b87d5a"></stop><stop offset=".986" stop-color="#e19a71"></stop><stop offset="1" stop-color="#e69e74"></stop></linearGradient><linearGradient id="s" x1="15.94" x2="106.307" y1="57.791" y2="57.791" gradientUnits="userSpaceOnUse"><stop offset="0" stop-color="#dba674"></stop><stop offset=".219" stop-color="#dbac67"></stop><stop offset=".466" stop-color="#dbb15d"></stop><stop offset=".594" stop-color="#c59759"></stop><stop offset=".731" stop-color="#b48256"></stop><stop offset=".867" stop-color="#a97655"></stop><stop offset="1" stop-color="#a67254"></stop></linearGradient><linearGradient id="t" x1="21.916" x2="72.643" y1="95.598" y2="95.598" gradientTransform="rotate(-7.539 -528.77 46.405)" gradientUnits="userSpaceOnUse"><stop offset="0" stop-color="#e8c8a0"></stop><stop offset=".024" stop-color="#e5c497"></stop><stop offset=".189" stop-color="#d4a85c"></stop><stop offset=".33" stop-color="#c89432"></stop><stop offset=".44" stop-color="#c08818"></stop><stop offset=".506" stop-color="#bd830e"></stop><stop offset="1" stop-color="#87380b"></stop></linearGradient><mask id="e" width="150.287" height="142.359" x="1.092" y="71.508" maskUnits="userSpaceOnUse"><rect width="150.287" height="111.92" x="1.092" y="101.948" fill="url(#a)"></rect></mask><mask id="q" width="40.107" height="79.106" x="72.219" y="11.099" maskUnits="userSpaceOnUse"><polygon fill="url(#b)" points="95.363 11.099 72.219 88.939 81.572 90.206 101.231 89.571 112.326 30.756 95.363 11.099"></polygon></mask></defs><g data-name="Layer 2"><g data-name="图层 1"><path fill="url(#c)" d="M19.69549,113.77684S1.83419,115.99654.45919,141.766c-.7949,14.9033-.3164,15.875-.3164,15.875l10.2383,10.5713Z"></path><path fill="url(#d)" d="M134.26,152.35984c-9.3027-11.961-26.9941-31.2998-37.7344-44.0616-3.1621-3.7558-17.6133-2.5078-19.1777-4.76561-4.7539-6.86519,8.0058-13.00979,8.0058-13.00979l-10.4902-.61421c.2852-11.09769.3887-18.40039.3887-18.40039l-26.752,2.9541s3.5254,15.7832-.2031,22.19429c-5.4062,9.27251-8.0996,13.42481-27.7559,16.91121-13.1777,2.33879-17.2011,35.9677-15.748,48.3037,1.3301,11.3349,29.3809,35.5097,55.3789,39.5234,27.4785,6.1328,76.0039,5.0029,77.5742-6.2334C139.594,181.95454,136.47868,155.21334,134.26,152.35984Z"></path><g mask="url(#e)"><path fill="url(#f)" d="M112.69748,165.99354c11.37892,13.9405,22.37892-11.8808,21.666-12.79191-9.3008-11.96-27.0976-32.14159-37.8379-44.90339-3.1621-3.7558-17.6133-2.5078-19.1777-4.76561-4.7539-6.86519,8.0058-13.00979,8.0058-13.00979l-10.4902-.61421c.2852-11.09769.3887-18.40039.3887-18.40039l-26.752,2.9541s3.5254,15.7832-.2031,22.19429c-5.4062,9.27251-9.92969,21.54011,5.6406,34.03321C61.39868,136.685,87.86158,135.55414,112.69748,165.99354Z" opacity=".54"></path></g><path fill="url(#g)" d="M134.69358,152.88524s-33.9219,6.1425-40.3848,52.3437c0,0,28.1074,13.5742,44.2617-10.334C138.57048,194.89494,143.094,173.88914,134.69358,152.88524Z"></path><path fill="url(#h)" d="M88.60368,109.02194c-1.9277-15.3584,5.3614-47.0752-48.9355,3.1689,0,0-8.0313,52.21579,8.03321,55.8037,16.06249,3.5967,48.40628-40.792,45.86908-54.9511C93.46508,112.44863,88.68378,109.69474,88.60368,109.02194Z" opacity=".49"></path><path fill="url(#i)" d="M90.82248,106.06874s6.2598,3.3291,3.168,8.4024c-1.336,2.1894-29.8008,24.35349-49.9356.3174-19.35349-23.1065,16.7539-25.1084,16.7539-25.1084Z"></path><path fill="url(#j)" d="M91.35368,78.69284s.6211,29.2382,0,31.4677c-.6191,2.2198-26.6718,23.20509-47.1406.3164l15.8184-24.789Z"></path><path fill="url(#k)" d="M88.91818,107.57463c-.6113,2.18951-24.8359,20.07421-45.1816-1.42579l.4765,4.3281c20.4688,22.88869,46.5215,1.9034,47.1406-.3164a86.91628,86.91628,0,0,0,.2735-9.997C91.61548,104.265,89.10958,106.89,88.91818,107.57463Z"></path><path fill="url(#l)" d="M101.44158,61.99754c0,6.2724-7.8418,6.1718-10.7793,12.206-1.6738,3.4287,2.3692,13.2275.0098,16.3692-10.3769,13.8212-26.4492,24.0566-39.959,24.0566-21.9765,0-28.8515-27.0684-28.8515-52.6318,0-25.5723,17.8144-46.2911,39.789-46.2911C83.62908,15.70645,101.44158,36.42524,101.44158,61.99754Z" opacity=".29"></path><path fill="url(#m)" d="M98.42988,60.72894c0,25.5625-28.8496,50.5811-50.72848,52.6318-15.21871,1.4278-27.42581-20.45111-29.32811-49.4609-1.67189-25.5137,5.8652-45.3398,40.2656-49.4619C80.45918,11.82175,98.42988,35.15663,98.42988,60.72894Z"></path><path fill="url(#n)" d="M65.87718,35.03654s-34.416,25.7617-45.918,12.2178c0,0,24.0254-52.3555,61.25-38.0479,1.959.74319,7.9746,6.4707,8.9277,8.7286,0,0,30.2637,12.8115.31252,66.5625l-14.97851,5.8769s8.0039-13.6445-2.5879-34.4902c-4.457-8.76861-11.1152-13.0098-7.0058-20.8477" opacity=".96"></path><path fill="url(#o)" d="M68.21308,31.24263s-39.0293,25.998-52.0605,11.73041c0,0-2.4258-43.77341,49.1465-42.9619,10.1445.1592,20.1308,3.4893,22.3515,9.35349,0,0,41.377,16.64651,3.9629,73.875l-14.2656,4.28131s11.8887-14.4258-2.9317-36.3047c-5.9375-8.7685-10.54679-12.999-5.8945-21.2422"></path><path fill="url(#p)" d="M92.83028,211.33244"></path><g mask="url(#q)"><path fill="url(#r)" d="M98.72088,17.599c-1.39648,7.4707-7.8144,39.9307-17.4414,60.6865a23.10829,23.10829,0,0,1-3.9316,9.2354l14.2656-4.28131C115.03928,47.40184,107.5764,27.48774,98.72088,17.599Z"></path></g><path fill="url(#s)" d="M81.47478,77.60194c1.7832-6.33,2.0625-16.3964-6.4238-28.9218-4.4473-6.5684-8.1465-10.5908-7.7715-15.6533-2.289,6.54779,1.8926,10.7597,7.1367,18.50679C81.72088,62.31484,82.52758,71.28163,81.47478,77.60194Zm-11.4765-49.8574c-3.7871,2.4668-41.7266,23.4922-54.0586,9.9873,0,0,.6465-1.1289,1.6758-6.4804a43.82785,43.82785,0,0,0-1.4629,12.039c12.0293,13.168,46.1445-7.9355,51.3301-11.2646C67.64868,31.05414,69.51388,28.82463,69.99828,27.74454Zm22.25,52.959L79.2834,84.58734a18.7164,18.7164,0,0,1-1.93551,3.251l14.2656-4.2813c8.5254-13.0488,12.9297-23.958,14.6934-33.0732C104.22288,59.00434,99.90448,68.99163,92.24828,80.70354Z"></path><path fill="url(#t)" d="M23.97289,25.66354S41.23659,3.86663,72.59978,6.433c0,0-18.5039,2.7734-22.7617,6.8555,0,0,2.7051-1.3184,8.52931-.8116,0,0-13.89451,3.7549-19.01171,8.5889,0,0,14.1914-6.3506,24.3926-4.1904,0,0-34.2031,7.4121-37.3946,17.1123,0,0-1.40229-3.3389,7.1133-11.5049l7.5489-5.7959S30.60179,17.74755,23.97289,25.66354Z"></path><path fill="#402205" d="M86.803,10.306c2.3906,1.5254,4.8261,4.8155,6.1132,7.293-1.42178-.2285-2.6054-1.8027-4.1914-2.2197a10.655,10.655,0,0,0-3.3183-.7236c.832,2.20989,2.873,3.706,3.5078,6.124a21.54571,21.54571,0,0,1,.2578,5.9726c-1.3789-2.8515-4.2246-8.0439-7.7949-8.5693-.2363,2.0908,1.4824,5.5303,1.8984,7.7188-1.1074-1.1104-2.9804-3.1114-4.70118-2.8741.12109,2.1123,2.28908,4.2227,1.28719,6.3614-.8438-.0987-1.9024-1.5157-2.7188-1.98151-.9922-.57419-2.2246-.87109-2.8398-1.80169-.2598,2.5556.9375,5.0918,1.0488,7.6679a15.48525,15.48525,0,0,1-.418,4.9737c-1.5976-1.0596-1.2832-4.3711-3.0293-5.9043a5.43158,5.43158,0,0,0-3.9492-1.4571c1.6543-2.5576,4.5762-3.747,6.457-6.0049,1.6524-1.9824-.7382-2.72461-2.0586-4.55761.8184-.34669,3.0625.19831,3.7969-.51459,1.1016-1.0703-.2617-2.7656-.07619-3.9336,2.12309-.3477,4.09968,2.0303,5.34178-.6553.834-1.8027-.09178-3.0508-.5722-4.5869,1.10742.2275,3.1523,2.4971,4.2519,1.9219.9004-.4756.5567-2.4873.6348-3.3184a5.56639,5.56639,0,0,1,1.8652,1.3867" opacity=".54"></path></g></g></svg>